<svg width="85" height="83" viewBox="0 0 85 83" fill="none" xmlns="http://www.w3.org/2000/svg">
<path d="M64.2443 44.1705C67.2805 42.3947 71.3263 42.0237 74.2509 43.9777C70.5997 45.1175 67.4693 47.5121 65.4137 50.7378C64.6254 51.9846 63.8785 53.4535 62.4786 53.9185C61.6075 54.2079 60.6353 54.0295 59.8082 53.6314C58.9812 53.2333 58.2721 52.6318 57.573 52.037L57.3497 51.9854C59.039 48.9003 61.2081 45.9462 64.2443 44.1705Z" fill="#F0F0F0"/>
<path d="M74.2185 44.0437C71.3155 43.8235 68.4169 44.5236 65.9344 46.0445C65.3942 46.3624 64.9074 46.7636 64.4921 47.2331C64.1023 47.7035 63.8456 48.2697 63.7486 48.8729C63.6469 49.4335 63.6078 50.0188 63.3716 50.5449C63.2467 50.8124 63.0666 51.0505 62.8433 51.2436C62.6199 51.4366 62.3582 51.5803 62.0754 51.6651C61.3763 51.8948 60.6363 51.8596 59.9139 51.8001C59.1118 51.7339 58.2796 51.6525 57.5116 51.951C57.4186 51.9872 57.3679 51.8407 57.4608 51.8046C58.797 51.2852 60.2303 51.8717 61.6026 51.6246C62.243 51.5093 62.8524 51.2003 63.1683 50.6078C63.4444 50.0896 63.4853 49.4861 63.5833 48.9176C63.6693 48.3277 63.8984 47.7679 64.2506 47.2871C64.6406 46.7979 65.1111 46.3787 65.6418 46.0474C66.8248 45.2825 68.1206 44.7084 69.4819 44.346C71.0332 43.9238 72.6453 43.7701 74.2485 43.8916C74.3477 43.8992 74.317 44.0512 74.2185 44.0437Z" fill="white"/>
<path d="M66.7049 45.5079C66.5063 45.0568 66.4744 44.5497 66.6151 44.0773C66.7559 43.6048 67.0599 43.1978 67.473 42.9289C67.5568 42.8747 67.6449 43.0024 67.561 43.0566C67.1758 43.3063 66.8926 43.6855 66.7625 44.1257C66.6324 44.5659 66.6639 45.0381 66.8513 45.4571C66.892 45.5482 66.7453 45.5985 66.7049 45.5079Z" fill="white"/>
<path d="M63.7628 48.5819C64.6987 48.9553 65.741 48.9622 66.6818 48.6012C66.775 48.5654 66.8257 48.7119 66.7326 48.7477C65.7529 49.1215 64.6683 49.1121 63.6952 48.7214C63.6025 48.6841 63.6706 48.5448 63.7628 48.5819Z" fill="white"/>
<path d="M71.0038 44.1277C71.0443 44.3182 71.1315 44.4958 71.2576 44.6443C71.3836 44.7929 71.5446 44.9078 71.726 44.9788C71.8192 45.0149 71.751 45.1541 71.6584 45.1183C71.4583 45.0389 71.2807 44.9118 71.141 44.748C71.0014 44.5842 70.904 44.3886 70.8574 44.1785C70.8513 44.1591 70.8529 44.138 70.8618 44.1197C70.8707 44.1014 70.8862 44.0872 70.9052 44.0799C70.9246 44.0732 70.9459 44.0745 70.9644 44.0835C70.9828 44.0924 70.997 44.1083 71.0038 44.1277Z" fill="white"/>
<path d="M75.4631 55.8243C75.4043 55.8035 75.3454 55.7826 75.2856 55.7624C74.4935 55.4856 73.6802 55.2736 72.8538 55.1286C72.7901 55.1163 72.7254 55.1049 72.6614 55.0945C70.6667 54.7662 68.6284 54.8111 66.65 55.2269C65.8629 55.393 65.0896 55.6188 64.3368 55.9023C63.2972 56.2939 62.2011 56.8012 61.1245 56.8257C61.0122 56.8296 60.8998 56.8264 60.7879 56.8163L57.304 52.2614C57.3013 52.2471 57.2975 52.2335 57.2948 52.2191L57.1473 52.0436C57.1851 52.0263 57.2247 52.0091 57.2625 51.9918C57.2844 51.9816 57.3071 51.9725 57.329 51.9623C57.3438 51.9559 57.3587 51.9495 57.3717 51.9428C57.3766 51.9407 57.3816 51.9386 57.3855 51.9372C57.3985 51.9305 57.4113 51.9257 57.4233 51.9199C57.6443 51.8233 57.8664 51.7281 58.0895 51.6344C58.0905 51.6336 58.0905 51.6336 58.0923 51.6338C59.7942 50.9235 61.5703 50.3491 63.3771 50.0625C63.4315 50.0539 63.4868 50.0445 63.5428 50.0379C64.3579 49.9133 65.1819 49.8555 66.0065 49.865C66.458 49.8717 66.9088 49.9013 67.3573 49.9536C68.5159 50.0909 69.6457 50.4096 70.7053 50.8981C72.8174 51.872 74.5944 53.5106 75.4029 55.6596C75.4235 55.7145 75.4435 55.7686 75.4631 55.8243Z" fill="#F0F0F0"/>
<path d="M75.3976 55.8586C73.2123 53.935 70.4764 52.7488 67.5786 52.4686C66.9558 52.3972 66.3257 52.4244 65.7114 52.5492C65.117 52.6901 64.5711 52.9877 64.1305 53.4109C63.7117 53.7973 63.3282 54.241 62.8228 54.5189C62.562 54.6573 62.2749 54.739 61.9803 54.7586C61.6857 54.7783 61.3903 54.7355 61.1135 54.6329C60.4169 54.3954 59.8473 53.9218 59.3063 53.4393C58.7057 52.9035 58.0903 52.3375 57.2973 52.1135C57.2013 52.0863 57.249 51.9389 57.3449 51.966C58.7246 52.3558 59.5158 53.687 60.7603 54.3159C61.341 54.6094 62.0137 54.7297 62.6226 54.4466C63.1551 54.1992 63.551 53.7419 63.9716 53.347C64.3954 52.9278 64.9153 52.6188 65.4861 52.4469C66.092 52.2912 66.72 52.2397 67.3433 52.2948C68.7483 52.3962 70.1286 52.718 71.4337 53.2483C72.9265 53.8452 74.3062 54.6931 75.5132 55.7552C75.5878 55.821 75.4718 55.924 75.3976 55.8586Z" fill="white"/>
<path d="M68.5169 52.5038C68.63 52.024 68.9098 51.6 69.3066 51.3075C69.7034 51.015 70.1912 50.8731 70.683 50.907C70.7031 50.9086 70.7217 50.9179 70.735 50.933C70.7484 50.948 70.7553 50.9676 70.7545 50.9877C70.7536 51.0078 70.745 51.0268 70.7304 51.0406C70.7158 51.0545 70.6964 51.0621 70.6763 51.062C70.2185 51.0295 69.7641 51.1617 69.3951 51.4349C69.0262 51.708 68.7671 52.104 68.6645 52.5514C68.6421 52.6486 68.4947 52.6005 68.5169 52.5038Z" fill="white"/>
<path d="M64.3169 53.1868C64.8394 54.0484 65.6675 54.6814 66.636 54.9597C66.7319 54.9871 66.6842 55.1346 66.5884 55.1072C65.5811 54.8158 64.7207 54.1553 64.1789 53.2575C64.1274 53.1719 64.2656 53.1017 64.3169 53.1868Z" fill="white"/>
<path d="M5.1267 71.965C5.48291 68.4657 7.56895 64.9793 10.8716 63.7695C9.6392 67.3905 9.72728 71.3307 11.1203 74.893C11.6625 76.2649 12.4084 77.7343 11.9585 79.1392C11.6785 80.0133 10.9611 80.6933 10.1519 81.1266C9.34272 81.5598 8.4388 81.7778 7.54616 81.9916L7.37288 82.1416C5.87733 78.958 4.77049 75.4642 5.1267 71.965Z" fill="#F0F0F0"/>
<path d="M10.906 63.8353C9.01636 66.0501 7.87256 68.8039 7.6371 71.7057C7.57532 72.3295 7.61225 72.9591 7.74654 73.5714C7.89662 74.1637 8.20256 74.7049 8.63256 75.1389C9.02536 75.5516 9.47495 75.9283 9.76059 76.4293C9.90299 76.6879 9.98911 76.9737 10.0133 77.268C10.0375 77.5622 9.99923 77.8583 9.901 78.1367C9.67426 78.8368 9.20949 79.4137 8.73538 79.962C8.20898 80.5709 7.65255 81.1949 7.44077 81.9912C7.41511 82.0877 7.26689 82.0422 7.29252 81.9459C7.66099 80.5604 8.97985 79.7487 9.5895 78.4947C9.87397 77.9095 9.98382 77.2351 9.69144 76.6306C9.43576 76.102 8.97248 75.7131 8.57115 75.2987C8.14546 74.8815 7.82842 74.3664 7.64771 73.7983C7.48268 73.1949 7.42155 72.5677 7.46694 71.9437C7.54671 70.5373 7.84713 69.1522 8.35719 67.839C8.93099 66.3372 9.75749 64.9445 10.8009 63.7214C10.8655 63.6457 10.9702 63.7601 10.906 63.8353Z" fill="white"/>
<path d="M7.658 70.7667C7.1765 70.6611 6.74822 70.3878 6.44964 69.9955C6.15106 69.6033 6.00162 69.1177 6.02801 68.6255C6.02931 68.6055 6.03833 68.5867 6.05317 68.5732C6.06801 68.5597 6.08751 68.5525 6.10757 68.553C6.12763 68.5536 6.1467 68.5619 6.16077 68.5762C6.17484 68.5905 6.18281 68.6097 6.18301 68.6298C6.15759 69.0881 6.29684 69.5404 6.57562 69.9051C6.85441 70.2698 7.25437 70.5228 7.70332 70.6184C7.80085 70.6393 7.75498 70.7875 7.658 70.7667Z" fill="white"/>
<path d="M8.40587 74.9555C9.25932 74.4198 9.8795 73.5821 10.1427 72.6094C10.1687 72.513 10.317 72.5584 10.291 72.6547C10.0152 73.6664 9.368 74.5368 8.47865 75.0924C8.39384 75.1453 8.32152 75.0081 8.40587 74.9555Z" fill="white"/>
<path d="M9.07809 66.4807C9.25588 66.5604 9.45067 66.5947 9.64498 66.5805C9.83929 66.5662 10.027 66.504 10.1913 66.3993C10.2754 66.3454 10.3477 66.4826 10.2641 66.5362C10.082 66.651 9.87463 66.7195 9.65998 66.7357C9.44534 66.7518 9.23 66.7152 9.03278 66.629C9.0135 66.6224 8.99746 66.6087 8.9879 66.5907C8.97834 66.5728 8.97598 66.5518 8.9813 66.5322C8.9874 66.5126 9.00099 66.4962 9.01911 66.4865C9.03723 66.4769 9.05843 66.4748 9.07809 66.4807Z" fill="white"/>
<path d="M21.1548 69.7763C21.1033 69.8115 21.0517 69.8467 21.0001 69.8832C20.3095 70.3597 19.6588 70.8915 19.0543 71.4734C19.0068 71.5176 18.9594 71.5632 18.9133 71.6087C17.4719 73.0261 16.3062 74.6988 15.4754 76.5418C15.1455 77.2755 14.8719 78.0332 14.6569 78.8083C14.3601 79.8789 14.1235 81.0633 13.5085 81.9473C13.4454 82.0402 13.3765 82.1292 13.3024 82.2136L7.56932 82.3413C7.55614 82.3351 7.54293 82.3301 7.5297 82.3239L7.30103 82.3395C7.30932 82.2987 7.3188 82.2566 7.32709 82.2159C7.3318 82.1922 7.33779 82.1685 7.34251 82.1449C7.34605 82.1291 7.34966 82.1133 7.35196 82.0988C7.35312 82.0936 7.35435 82.0883 7.35553 82.0844C7.35783 82.0699 7.3615 82.0568 7.36383 82.0436C7.41616 81.8082 7.47023 81.5727 7.52605 81.3372C7.52602 81.3359 7.52602 81.3359 7.52727 81.3346C7.95717 79.5413 8.54056 77.7681 9.37453 76.1399C9.39964 76.0909 9.42466 76.0406 9.45238 75.9915C9.83237 75.2597 10.2715 74.5601 10.7655 73.8998C11.0372 73.5391 11.3269 73.1924 11.6336 72.861C12.4277 72.0063 13.3513 71.2817 14.3706 70.714C16.4026 69.5825 18.7739 69.1135 20.9862 69.7277C21.0428 69.7435 21.0982 69.7593 21.1548 69.7763Z" fill="#F0F0F0"/>
<path d="M21.1434 69.8497C18.3012 70.4803 15.7299 71.9905 13.7949 74.1656C13.37 74.6265 13.0204 75.1515 12.7589 75.7212C12.5222 76.2844 12.4406 76.9007 12.5227 77.5062C12.5878 78.0722 12.72 78.6436 12.6464 79.2156C12.6044 79.5079 12.5011 79.7879 12.3433 80.0374C12.1854 80.2869 11.9766 80.5003 11.7306 80.6634C11.128 81.0859 10.4096 81.2667 9.70091 81.4191C8.91404 81.5883 8.09405 81.7515 7.44551 82.2598C7.36693 82.3214 7.27596 82.1959 7.35442 82.1344C8.48277 81.25 10.0245 81.396 11.2663 80.7617C11.8458 80.4658 12.3395 79.9934 12.47 79.3347C12.5841 78.7587 12.4483 78.1693 12.3774 77.5968C12.2887 77.0074 12.3457 76.4052 12.5434 75.8429C12.775 75.2617 13.1038 74.7241 13.5157 74.2532C14.4262 73.1783 15.5 72.2532 16.6978 71.5119C18.0602 70.6582 19.5586 70.0438 21.1281 69.6954C21.2253 69.6739 21.24 69.8283 21.1434 69.8497Z" fill="white"/>
<path d="M14.3768 73.4284C14.0559 73.0542 13.8785 72.5781 13.8762 72.0852C13.874 71.5923 14.047 71.1146 14.3645 70.7374C14.4289 70.6613 14.5502 70.758 14.4856 70.8342C14.1894 71.1848 14.0283 71.6298 14.0313 72.0888C14.0343 72.5478 14.2014 72.9906 14.5022 73.3373C14.5675 73.4127 14.4417 73.5034 14.3768 73.4284Z" fill="white"/>
<path d="M12.4517 77.2231C13.4557 77.3092 14.4553 77.0137 15.2511 76.3956C15.3299 76.3343 15.4209 76.4598 15.3422 76.521C14.5128 77.1627 13.472 77.4681 12.4275 77.3763C12.3279 77.3674 12.3527 77.2144 12.4517 77.2231Z" fill="white"/>
<path d="M18.0912 70.8612C18.1851 71.0318 18.32 71.1765 18.4837 71.2821C18.6474 71.3877 18.8348 71.4511 19.029 71.4664C19.1287 71.474 19.1037 71.627 19.0047 71.6195C18.7902 71.6016 18.5834 71.5314 18.4023 71.4151C18.2211 71.2987 18.0713 71.1398 17.9657 70.9522C17.9543 70.9354 17.9497 70.9148 17.9529 70.8947C17.9561 70.8746 17.9668 70.8565 17.9829 70.844C17.9996 70.832 18.0203 70.8271 18.0406 70.8303C18.0608 70.8335 18.079 70.8446 18.0912 70.8612Z" fill="white"/>
<path d="M49.312 10.3474L18.4499 7.31175C18.0924 7.27463 17.7469 7.16184 17.4364 6.98086C17.116 6.79442 16.832 6.55151 16.5981 6.26389C16.0954 5.64907 15.8195 4.87994 15.817 4.08574C15.8167 3.8923 15.8339 3.69923 15.8684 3.50889C15.9015 3.32657 15.952 3.14785 16.0193 2.97521C16.0844 2.80817 16.1665 2.64824 16.2642 2.49793C16.3604 2.35024 16.4722 2.21338 16.5977 2.08972C16.7198 1.96926 16.8552 1.863 17.0012 1.77297C17.2854 1.59773 17.6068 1.49149 17.9394 1.46276C18.1095 1.44817 18.2806 1.45256 18.4497 1.47584L49.312 5.65053C49.5476 5.68552 49.7707 5.77894 49.9608 5.92228C50.1692 6.07859 50.3472 6.27153 50.4864 6.49167C50.6415 6.73415 50.7601 6.99806 50.8386 7.27498C50.9242 7.57323 50.9675 7.88199 50.9674 8.19227C50.9675 8.34345 50.957 8.49447 50.936 8.64417C50.9159 8.78683 50.885 8.92775 50.8436 9.06573C50.8042 9.19707 50.7538 9.32487 50.693 9.44776C50.6349 9.56513 50.5658 9.67671 50.4867 9.781C50.4127 9.87875 50.3282 9.96812 50.2348 10.0475C50.1482 10.1211 50.0526 10.1835 49.9505 10.2333C49.7524 10.33 49.5312 10.3694 49.3119 10.3473L49.312 10.3474Z" fill="#E4E4E4"/>
<path d="M35.5947 8.99821L18.4499 7.31175C18.0924 7.27463 17.7469 7.16184 17.4364 6.98087C17.116 6.79442 16.832 6.55151 16.5981 6.26389C16.0954 5.64907 15.8195 4.87994 15.817 4.08574C15.8167 3.8923 15.8339 3.69923 15.8684 3.50889C15.9015 3.32657 15.952 3.14785 16.0193 2.97521C16.0844 2.80817 16.1665 2.64824 16.2642 2.49793C16.3604 2.35024 16.4722 2.21338 16.5977 2.08972C16.7198 1.96926 16.8552 1.863 17.0012 1.77297C17.2854 1.59773 17.6068 1.49149 17.9394 1.46276C18.1095 1.44817 18.2806 1.45256 18.4497 1.47584L35.5943 3.79542L35.5947 8.99821Z" fill="#7FD8D8"/>
<path d="M35.5509 9.38133C35.4716 9.37306 35.3954 9.34616 35.3285 9.30283C35.2579 9.2573 35.1964 9.19905 35.1472 9.13104C35.0935 9.05756 35.052 8.97598 35.0242 8.88939C34.9942 8.7972 34.9789 8.70085 34.9789 8.60391V4.04482C34.9783 3.95134 34.9936 3.85844 35.024 3.77007C35.0509 3.6919 35.0927 3.61969 35.1472 3.55746C35.1967 3.5002 35.259 3.45539 35.329 3.42662C35.3996 3.39863 35.4763 3.38961 35.5514 3.40046C35.6308 3.41219 35.7065 3.44201 35.7725 3.48759C35.8427 3.53613 35.9036 3.59683 35.9523 3.66684C36.0051 3.74166 36.0461 3.82418 36.0737 3.9115C36.1032 4.00358 36.1182 4.09966 36.1182 4.19633V8.71865C36.1188 8.81207 36.1037 8.90493 36.0737 8.9934C36.0471 9.0724 36.0059 9.14571 35.9523 9.20954C35.9033 9.2681 35.8416 9.31484 35.772 9.34627C35.7026 9.37681 35.6264 9.38889 35.5509 9.38133Z" fill="#3F3D56"/>
<path d="M8.12521 5.63871C8.09467 5.63558 8.06437 5.63038 8.03454 5.62314C8.00399 5.6157 7.97397 5.60626 7.94466 5.59488C7.91452 5.58319 7.88515 5.5696 7.85674 5.55419C7.82733 5.53824 7.79893 5.5205 7.77169 5.50107C7.60701 5.38373 7.48978 5.21131 7.4412 5.01502C7.42509 4.94974 7.41697 4.88274 7.417 4.8155V1.39206C7.41676 1.32679 7.42489 1.26176 7.4412 1.19856C7.45653 1.13889 7.48009 1.08164 7.5112 1.02847C7.57222 0.924586 7.66301 0.841407 7.77182 0.789696C7.8265 0.76354 7.88474 0.745597 7.94466 0.736446C8.00447 0.727408 8.06525 0.726878 8.12521 0.734875C8.18716 0.743187 8.24773 0.759641 8.30537 0.783808C8.36638 0.809396 8.42402 0.842349 8.47703 0.881935L11.2112 2.91315C11.2601 2.94951 11.3048 2.9911 11.3447 3.03718C11.4236 3.12842 11.4821 3.23548 11.5162 3.35119C11.5333 3.40921 11.544 3.46891 11.5483 3.52925C11.5483 3.53407 11.5486 3.53887 11.5492 3.54365C11.5498 3.54842 11.5498 3.55326 11.5492 3.55804V3.58695C11.5494 3.65069 11.5416 3.71419 11.5261 3.77601C11.5115 3.83427 11.489 3.8903 11.4594 3.94256C11.4306 3.99323 11.3947 4.03949 11.3528 4.07994C11.3108 4.12055 11.2631 4.15476 11.2112 4.18147L8.47676 5.57369C8.44953 5.58753 8.42133 5.59938 8.39238 5.60914C8.36383 5.61879 8.33462 5.62635 8.30498 5.63178C8.27542 5.63718 8.24551 5.64046 8.21548 5.64159C8.18536 5.64273 8.1552 5.64177 8.12521 5.63871Z" fill="#CACACA"/>
<path d="M49.318 25.253L18.4592 25.835C18.1097 25.8414 17.7633 25.7689 17.4458 25.6229C17.1274 25.4755 16.8422 25.265 16.6075 25.0042C16.3609 24.7309 16.1675 24.414 16.0369 24.0699C15.7564 23.3273 15.7564 22.508 16.0369 21.7655C16.1675 21.4212 16.361 21.1043 16.6075 20.8309C16.8422 20.5699 17.1273 20.3591 17.4458 20.2114C17.7633 20.0652 18.1097 19.9924 18.4592 19.9987L49.318 20.5564C49.548 20.5623 49.7722 20.6301 49.9668 20.7527C50.1747 20.884 50.3535 21.0564 50.4923 21.2594C50.6485 21.4863 50.7674 21.7368 50.8443 22.0014C51.016 22.5906 51.016 23.2166 50.8443 23.8058C50.7674 24.0705 50.6485 24.3211 50.4923 24.5482C50.3536 24.7517 50.1748 24.9247 49.9668 25.0565C49.7722 25.1792 49.548 25.247 49.318 25.253Z" fill="#E4E4E4"/>
<path d="M30.5205 25.6076L18.4592 25.835C18.1097 25.8415 17.7633 25.769 17.4458 25.6229C17.1274 25.4755 16.8422 25.265 16.6075 25.0042C16.3609 24.7309 16.1675 24.414 16.0369 24.0699C15.897 23.7019 15.8257 23.3114 15.8265 22.9178C15.8264 22.7223 15.8436 22.5273 15.878 22.3349C15.9115 22.147 15.962 21.9625 16.0288 21.7837C16.0945 21.6078 16.1765 21.4384 16.2737 21.2777C16.3702 21.1183 16.4819 20.9684 16.6071 20.8304C16.729 20.6956 16.8642 20.5734 17.0106 20.4658C17.1514 20.3624 17.3027 20.2743 17.462 20.2028C17.7753 20.0621 18.1158 19.9924 18.4592 19.9987L30.5205 20.2167V25.6076Z" fill="#7FD8D8"/>
<path d="M30.6615 25.9483C30.5791 25.95 30.4976 25.9316 30.4239 25.8947C30.3489 25.8567 30.2826 25.8035 30.2292 25.7385C30.1716 25.6685 30.127 25.5887 30.0975 25.503C30.0652 25.4098 30.0488 25.3119 30.0491 25.2133V20.4954C30.0488 20.3967 30.0651 20.2987 30.0975 20.2054C30.127 20.1197 30.1716 20.0399 30.2292 19.9699C30.2826 19.9051 30.3489 19.8521 30.4239 19.8142C30.4976 19.7773 30.5791 19.7589 30.6615 19.7606C30.7444 19.7626 30.8256 19.7844 30.8983 19.8242C30.9729 19.8652 31.0385 19.9206 31.0913 19.9873C31.148 20.0587 31.192 20.1394 31.2212 20.2257C31.253 20.3189 31.2691 20.4166 31.2689 20.515V25.1937C31.2691 25.2921 31.253 25.3898 31.2212 25.4829C31.192 25.5693 31.148 25.65 31.0913 25.7215C31.0385 25.7883 30.9729 25.8438 30.8983 25.8849C30.8256 25.9246 30.7444 25.9464 30.6615 25.9483Z" fill="#3F3D56"/>
<path d="M8.13569 25.3723C8.07475 25.3732 8.01398 25.3656 7.95514 25.3497C7.92517 25.3416 7.89579 25.3315 7.86722 25.3194C7.83797 25.3069 7.8096 25.2925 7.78231 25.2762C7.72765 25.2437 7.67757 25.2041 7.63342 25.1584C7.58973 25.1129 7.5522 25.0619 7.52182 25.0067C7.49098 24.9506 7.46745 24.8908 7.45182 24.8287C7.43562 24.7646 7.42749 24.6986 7.42761 24.6325V21.209C7.4275 21.1429 7.43563 21.0769 7.45182 21.0128C7.46748 20.9508 7.49101 20.8911 7.52182 20.8351C7.58294 20.7235 7.67296 20.6305 7.78244 20.5657C7.83638 20.5332 7.89453 20.5082 7.95527 20.4915C8.07358 20.4595 8.19849 20.4613 8.31585 20.4966C8.37626 20.5149 8.43396 20.5411 8.48738 20.5747L11.2218 22.2853L11.2316 22.2916L11.2415 22.298L11.2511 22.3045L11.2607 22.3112C11.3046 22.3429 11.3447 22.3796 11.3801 22.4206C11.4156 22.4613 11.4463 22.506 11.4717 22.5536C11.4974 22.6019 11.5177 22.6528 11.5323 22.7055C11.5473 22.7597 11.5566 22.8153 11.5598 22.8714V22.9192C11.5599 22.9838 11.5522 23.0481 11.5368 23.1109C11.5218 23.1715 11.4994 23.23 11.47 23.2851C11.4411 23.3394 11.4053 23.3898 11.3635 23.4349C11.3213 23.4803 11.2733 23.5199 11.2208 23.5527L8.48738 25.2662C8.46033 25.2832 8.43219 25.2984 8.40312 25.3116C8.37477 25.3245 8.34557 25.3355 8.31572 25.3445C8.28639 25.3533 8.25649 25.3601 8.22623 25.3648C8.19626 25.3694 8.16601 25.3719 8.13569 25.3723Z" fill="#CACACA"/>
<path d="M49.312 40.1101L18.4499 44.2978C18.1146 44.3461 17.7727 44.3157 17.4513 44.209C17.1298 44.1023 16.8376 43.9221 16.5979 43.6828C16.3498 43.4361 16.1555 43.1407 16.0272 42.8153C15.8859 42.4564 15.8146 42.0738 15.817 41.6881C15.8195 40.8938 16.0953 40.1246 16.598 39.5097C16.8319 39.222 17.1159 38.9789 17.4363 38.7923C17.7468 38.6113 18.0923 38.4983 18.4499 38.4611L49.312 35.4134C49.5352 35.391 49.7603 35.4325 49.9608 35.5332C50.1679 35.6398 50.3477 35.7925 50.4863 35.9796C50.644 36.1908 50.7632 36.428 50.8385 36.6805C50.9255 36.9682 50.9689 37.2672 50.9673 37.5677C50.9674 37.878 50.9241 38.1868 50.8385 38.485C50.7601 38.762 50.6414 39.0259 50.4863 39.2684C50.3472 39.4887 50.1691 39.6817 49.9608 39.8381C49.7706 39.9815 49.5476 40.0751 49.312 40.1101Z" fill="#E4E4E4"/>
<path d="M44.4593 40.769L18.4499 44.2982C18.1146 44.3466 17.7727 44.3162 17.4513 44.2094C17.1298 44.1027 16.8376 43.9225 16.5979 43.6833C16.3498 43.4366 16.1555 43.1412 16.0272 42.8157C15.886 42.457 15.8146 42.0746 15.8169 41.6891C15.817 41.4917 15.8342 41.2947 15.8684 41.1003C15.9705 40.5162 16.2217 39.9683 16.5976 39.5097C16.7196 39.3609 16.8546 39.2233 17.0011 39.0985C17.1412 38.979 17.2923 38.8731 17.4524 38.7823C17.607 38.6947 17.7701 38.623 17.9392 38.5683C18.105 38.5147 18.2761 38.4789 18.4495 38.4616L44.4593 35.8931V40.769Z" fill="#7FD8D8"/>
<path d="M8.12508 45.0421C8.09502 45.0461 8.06473 45.048 8.03441 45.0478C8.00436 45.0476 7.97437 45.0452 7.94466 45.0407C7.88474 45.0316 7.82649 45.0136 7.77182 44.9875C7.66293 44.9356 7.57213 44.8522 7.5112 44.7482C7.48009 44.695 7.45653 44.6377 7.4412 44.5781C7.42496 44.5151 7.41682 44.4504 7.41699 44.3854V40.9614C7.41699 40.8943 7.42512 40.8274 7.4412 40.7623C7.48985 40.5659 7.60712 40.3935 7.77182 40.2761C7.8253 40.2377 7.88336 40.2062 7.94466 40.1823C8.00262 40.1597 8.06334 40.1449 8.12521 40.1384C8.18528 40.1322 8.24594 40.1345 8.30537 40.1452C8.36501 40.1561 8.42275 40.1757 8.47676 40.2032L11.2112 41.5944L11.2212 41.5995L11.231 41.6048L11.2407 41.6103L11.2502 41.616C11.2917 41.6411 11.3299 41.6713 11.364 41.7057C11.398 41.7401 11.4278 41.7784 11.4527 41.8198C11.4782 41.8622 11.4988 41.9074 11.5141 41.9544C11.5301 42.0036 11.5408 42.0544 11.546 42.1058C11.5467 42.1126 11.5473 42.1194 11.5479 42.1262C11.5484 42.133 11.5488 42.1399 11.5492 42.1469C11.5492 42.1538 11.5494 42.1607 11.55 42.1677C11.5505 42.1747 11.5505 42.1818 11.55 42.1888C11.55 42.2542 11.5422 42.3195 11.5269 42.3832C11.4969 42.5097 11.4381 42.6277 11.3551 42.7278C11.3127 42.7783 11.2643 42.8236 11.2112 42.8627L8.47676 44.895C8.44976 44.915 8.42158 44.9335 8.39237 44.9502C8.36416 44.9663 8.33497 44.9807 8.30498 44.9932C8.27584 45.0054 8.24594 45.0157 8.21548 45.024C8.18579 45.032 8.15559 45.0381 8.12508 45.0421Z" fill="#CACACA"/>
<path d="M44.2718 37.2666C44.4621 37.2392 44.6562 37.2538 44.8403 37.3095C45.0244 37.3652 45.1941 37.4606 45.3373 37.5889C45.4806 37.7173 45.594 37.8755 45.6695 38.0524C45.745 38.2293 45.7808 38.4206 45.7743 38.6128L50.1376 40.2923L48.1608 41.7047L44.3204 39.8933C43.9981 39.8611 43.6989 39.7118 43.4794 39.4737C43.2599 39.2356 43.1354 38.9253 43.1294 38.6015C43.1234 38.2778 43.2364 37.9631 43.4469 37.717C43.6575 37.471 43.951 37.3107 44.2718 37.2666Z" fill="#FFB6B6"/>
<path d="M60.8392 36.4419L61.5774 37.784C61.399 38.6352 60.9379 39.4011 60.2692 39.9571C59.139 40.9102 53.2297 44.4601 53.2297 44.4601L45.7695 40.7149L47.0746 38.9807L52.9316 40.9436L56.2357 37.8235L60.8392 36.4419Z" fill="#3F3D56"/>
<path d="M61.5172 57.4872L60.7457 57.6326L65.3972 82.3185L66.1686 82.1732L61.5172 57.4872Z" fill="#CACACA"/>
<path d="M53.8388 82.1725L54.6102 82.3179L59.2617 57.6319L58.4903 57.4866L53.8388 82.1725Z" fill="#CACACA"/>
<path d="M59.4667 58.6494C62.6822 58.6494 65.2889 57.8001 65.2889 56.7523C65.2889 55.7046 62.6822 54.8552 59.4667 54.8552C56.2512 54.8552 53.6445 55.7046 53.6445 56.7523C53.6445 57.8001 56.2512 58.6494 59.4667 58.6494Z" fill="#CACACA"/>
<path d="M47.1007 80.763L45.4967 80.7629L44.7336 74.5759L47.101 74.5761L47.1007 80.763Z" fill="#FFB6B6"/>
<path d="M47.5097 82.3177L42.3376 82.3175V82.2521C42.3377 81.7182 42.5498 81.2062 42.9273 80.8287C43.3048 80.4511 43.8169 80.239 44.3507 80.239L47.5098 80.2391L47.5097 82.3177Z" fill="#2F2E41"/>
<path d="M54.8873 72.3448L53.4862 73.1258L49.8071 68.0933L51.875 66.9407L54.8873 72.3448Z" fill="#FFB6B6"/>
<path d="M56.0016 73.5038L51.4841 76.022L51.4522 75.9648C51.1923 75.4985 51.1282 74.948 51.2742 74.4344C51.4201 73.9209 51.764 73.4863 52.2303 73.2263L54.9896 71.6882L56.0016 73.5038Z" fill="#2F2E41"/>
<path d="M63.9978 52.1145C63.9978 52.1145 64.7755 54.5241 60.0037 57.5714L53.8581 63.6953L47.4724 78.9702L43.6814 77.2706L49.5114 61.7089L52.9206 55.7396L53.0195 52.5006L53.8581 50.2174L59.9419 48.0586L63.9978 52.1145Z" fill="#2F2E41"/>
<path d="M51.52 72.2448L45.1771 62.6819C44.8859 62.2419 44.7569 61.7141 44.8124 61.1894C44.8679 60.6646 45.1044 60.1755 45.4813 59.8061L51.9036 53.524L52.9925 52.4351H55.4292L54.2866 56.6507L50.3227 61.144L54.9051 69.2529L51.52 72.2448Z" fill="#2F2E41"/>
<path d="M56.1815 39.0126L58.0927 36.2774L62.4598 35.926C62.4598 35.926 66.2142 39.4632 65.5311 44.1209C64.8481 48.7785 64.1939 53.3578 64.1939 53.3578C64.1939 53.3578 57.3905 48.5169 53.8579 50.2177L56.1815 39.0126Z" fill="#3F3D56"/>
<path d="M54.8841 53.2819C54.918 53.0926 54.993 52.913 55.1038 52.7558C55.2146 52.5985 55.3585 52.4675 55.5254 52.3719C55.6923 52.2763 55.8782 52.2185 56.0698 52.2025C56.2615 52.1865 56.4543 52.2128 56.6348 52.2794L59.6021 48.6663L60.3206 50.9871L57.3927 54.0624C57.2607 54.3581 57.0248 54.5951 56.7298 54.7286C56.4347 54.862 56.101 54.8826 55.7918 54.7864C55.4825 54.6902 55.2194 54.4839 55.0521 54.2066C54.8848 53.9293 54.8251 53.6003 54.8841 53.2819Z" fill="#FFB6B6"/>
<path d="M58.6196 53.047L57.3127 51.1592L61.0238 46.2112L59.1121 42.1146L59.2513 37.2418L60.831 36.95L60.8506 36.9598C61.6187 37.4019 62.2124 38.0934 62.5331 38.9195C62.9272 39.9047 63.807 43.6033 64.2963 45.7201C64.3924 46.1304 64.3819 46.5584 64.2658 46.9634C64.1496 47.3684 63.9317 47.7369 63.6328 48.0338L58.6196 53.047Z" fill="#3F3D56"/>
<path d="M61.9513 33.8831C62.8018 32.4524 62.3314 30.6032 60.9008 29.7527C59.4701 28.9023 57.6208 29.3726 56.7704 30.8033C55.9199 32.234 56.3903 34.0832 57.821 34.9337C59.2516 35.7842 61.1009 35.3138 61.9513 33.8831Z" fill="#FFB6B6"/>
<path d="M61.2874 31.2613C61.2556 31.6989 61.666 33.3125 61.666 33.3125C61.9668 32.8065 61.4943 34.4881 61.4943 34.4881C66.4307 31.0471 62.5302 27.59 61.0044 27.8973C61.0363 27.4597 59.7919 27.6331 59.7919 27.6331C59.3177 26.8947 58.2786 27.8748 58.2786 27.8748L58.4791 27.5375C57.6723 27.7427 56.8749 30.2362 56.8749 30.2362C57.1485 31.3119 61.3193 30.8237 61.2874 31.2613Z" fill="#2F2E41"/>
<path d="M44.3438 41.0963C44.2776 41.1058 44.21 41.0967 44.1487 41.0701C44.0864 41.0422 44.0317 41 43.9889 40.9468C43.9406 40.8873 43.9037 40.8193 43.8803 40.7463C43.8536 40.6629 43.8404 40.5757 43.8411 40.4881V36.2147C43.8409 36.1241 43.8541 36.0339 43.8803 35.9472C43.9047 35.8668 43.9413 35.7906 43.9889 35.7214C44.0317 35.6584 44.0859 35.6039 44.1488 35.5609C44.2068 35.5212 44.2738 35.4965 44.3438 35.4891C44.4105 35.4825 44.4777 35.4944 44.5382 35.5235C44.6002 35.5539 44.6544 35.5982 44.6967 35.6527C44.7443 35.7136 44.7804 35.7825 44.8035 35.8562C44.8299 35.9395 44.8432 36.0264 44.8428 36.1138V40.3549C44.8427 40.4453 44.8295 40.5352 44.8035 40.6217C44.7795 40.7028 44.7435 40.7798 44.6967 40.8502C44.6543 40.9146 44.6006 40.9709 44.5382 41.0163C44.4808 41.0583 44.4141 41.0857 44.3438 41.0963Z" fill="#3F3D56"/>
<path d="M84.8442 82.4412H0.155331C0.114093 82.4411 0.0745834 82.4246 0.0454657 82.3954C0.0163481 82.3662 0 82.3267 0 82.2854C0 82.2442 0.0163481 82.2046 0.0454657 82.1754C0.0745834 82.1462 0.114093 82.1298 0.155331 82.1296H84.8442C84.8855 82.1296 84.9252 82.1461 84.9544 82.1753C84.9836 82.2045 85 82.2441 85 82.2854C85 82.3267 84.9836 82.3664 84.9544 82.3956C84.9252 82.4248 84.8855 82.4412 84.8442 82.4412Z" fill="#CACACA"/>
</svg>
