<svg width="93" height="90" viewBox="0 0 93 90" fill="none" xmlns="http://www.w3.org/2000/svg">
<g id="game-icons:night-sky">
<path id="Vector" d="M46.1027 2.74651C22.068 2.74651 2.54858 21.636 2.54858 44.8953C2.54858 68.1547 22.0682 87.0445 46.1027 87.0445C70.1374 87.0445 89.6569 68.1551 89.6569 44.8957C89.6569 21.6363 70.1371 2.74651 46.1027 2.74651ZM46.1027 5.89405C68.3815 5.89405 86.4099 23.3356 86.4099 44.8957C86.4099 50.2989 85.2728 55.4408 83.2252 60.1173L75.534 54.0142C66.5222 56.4716 55.4923 55.602 50.303 43.3137L42.6795 70.1973C41.0744 62.194 38.4382 55.9098 33.978 49.9438C30.3979 52.3792 28.1016 55.6795 26.7633 58.9034L16.1551 41.6654C12.9128 46.4677 10.0211 51.6084 7.97546 57.5683C6.56884 53.5956 5.80159 49.3326 5.80159 44.8955C5.80159 40.3229 6.61606 35.9354 8.10606 31.8603C8.60594 33.0218 9.78987 33.8378 11.1712 33.8378C13.0045 33.8378 14.4916 32.404 14.4916 30.6298C14.4916 28.8557 13.0045 27.4165 11.1712 27.4165C10.738 27.4165 10.3248 27.5009 9.94517 27.6468C14.947 17.8329 24.0823 10.3556 35.1649 7.34407C35.0621 7.69248 35.0105 8.05314 35.0116 8.41546C35.0116 10.5505 36.7958 12.2826 39.0022 12.2826C41.2081 12.2826 42.9983 10.5505 42.9983 8.41546C42.9983 7.53831 42.695 6.72972 42.1864 6.08108C43.4746 5.96103 44.7817 5.89405 46.1027 5.89405ZM49.5085 10.7556C49.2304 10.7555 48.955 10.8084 48.698 10.9113C48.441 11.0142 48.2076 11.1651 48.0109 11.3554C47.8143 11.5457 47.6583 11.7717 47.5519 12.0204C47.4456 12.2691 47.3909 12.5356 47.3911 12.8047C47.3911 13.9373 48.338 14.8591 49.5083 14.8591C50.6788 14.8591 51.6313 13.9375 51.6313 12.8049C51.6313 11.6722 50.679 10.7556 49.5085 10.7556ZM35.9703 15.8589C34.8768 15.8695 33.7666 16.0115 32.6611 16.2984C25.5872 18.1325 21.3885 25.1683 23.2839 32.0141C25.1796 38.8601 32.4501 42.9231 39.5239 41.0888C43.4677 40.0661 46.5134 37.4238 48.1119 34.1015C46.83 35.4398 45.1829 36.3996 43.361 36.87C38.0019 38.2596 32.4906 35.1843 31.0549 29.9981C29.6187 24.8118 32.8023 19.4841 38.1614 18.0941C40.0523 17.6041 41.9588 17.6693 43.7014 18.1878C41.4709 16.6765 38.7761 15.8317 35.9703 15.8589ZM64.1758 16.0013C62.4669 16.0013 61.0825 17.3415 61.0825 18.9952C61.0825 20.6493 62.4669 21.9891 64.1758 21.9891C65.885 21.9891 67.2695 20.6491 67.2695 18.9956C67.2695 17.3415 65.8845 16.0013 64.1758 16.0013ZM18.9587 20.8135C17.7884 20.8135 16.8415 21.7353 16.8415 22.868C16.8415 24.0006 17.7882 24.9169 18.9585 24.9169C20.1289 24.9169 21.0757 24.0006 21.0757 22.868C21.0757 21.7353 20.129 20.8135 18.9587 20.8135ZM69.0349 27.9876L68.9213 33.2335L63.7954 34.9583L68.9213 36.6832L69.0349 41.929L72.3098 37.749L77.498 39.2651L74.4047 34.9584L77.498 30.6465L72.31 32.1679L69.0349 27.9876ZM55.9397 30.0255C54.769 30.0255 53.8221 30.9417 53.8221 32.0744C53.8221 33.2068 54.769 34.1286 55.9395 34.1286C57.1096 34.1286 58.0621 33.2068 58.0621 32.0742C58.0621 30.9413 57.11 30.0255 55.9397 30.0255ZM81.1877 43.1651C80.017 43.1651 79.0701 44.0869 79.0701 45.2195C79.0701 46.352 80.017 47.2684 81.1875 47.2684C82.3577 47.2684 83.3102 46.352 83.3102 45.2195C83.3102 44.0869 82.358 43.1651 81.1877 43.1651ZM58.0623 43.7804C56.892 43.7804 55.9451 44.7022 55.9451 45.8347C55.9451 46.9673 56.892 47.8836 58.0623 47.8836C58.3404 47.8838 58.6158 47.8309 58.8728 47.728C59.1297 47.6251 59.3632 47.4742 59.5598 47.2839C59.7565 47.0936 59.9124 46.8677 60.0187 46.619C60.1251 46.3704 60.1797 46.1038 60.1795 45.8347C60.1795 44.7022 59.2328 43.7804 58.0623 43.7804Z" fill="#7FD8D8"/>
</g>
</svg>
