<svg width="93" height="90" viewBox="0 0 93 90" fill="none" xmlns="http://www.w3.org/2000/svg">
<g id="game-icons:night-sky">
<path id="Vector" d="M46.1027 2.74676C22.068 2.74676 2.54858 21.6362 2.54858 44.8956C2.54858 68.155 22.0682 87.0448 46.1027 87.0448C70.1374 87.0448 89.6569 68.1553 89.6569 44.8959C89.6569 21.6366 70.1371 2.74676 46.1027 2.74676ZM46.1027 5.8943C68.3815 5.8943 86.4099 23.3358 86.4099 44.8959C86.4099 50.2991 85.2728 55.4411 83.2252 60.1175L75.534 54.0144C66.5222 56.4718 55.4923 55.6022 50.303 43.3139L42.6795 70.1975C41.0744 62.1942 38.4382 55.91 33.978 49.944C30.3979 52.3795 28.1016 55.6798 26.7633 58.9036L16.1551 41.6656C12.9128 46.468 10.0211 51.6087 7.97546 57.5685C6.56884 53.5959 5.80159 49.3328 5.80159 44.8958C5.80159 40.3232 6.61606 35.9357 8.10606 31.8605C8.60594 33.0221 9.78987 33.8381 11.1712 33.8381C13.0045 33.8381 14.4916 32.4042 14.4916 30.6301C14.4916 28.8559 13.0045 27.4168 11.1712 27.4168C10.738 27.4168 10.3248 27.5012 9.94517 27.6471C14.947 17.8332 24.0823 10.3558 35.1649 7.34432C35.0621 7.69272 35.0105 8.05338 35.0116 8.4157C35.0116 10.5507 36.7958 12.2829 39.0022 12.2829C41.2081 12.2829 42.9983 10.5507 42.9983 8.4157C42.9983 7.53855 42.695 6.72996 42.1864 6.08133C43.4746 5.96127 44.7817 5.8943 46.1027 5.8943ZM49.5085 10.7559C49.2304 10.7557 48.955 10.8086 48.698 10.9115C48.441 11.0144 48.2076 11.1654 48.0109 11.3557C47.8143 11.546 47.6583 11.7719 47.5519 12.0206C47.4456 12.2693 47.3909 12.5358 47.3911 12.805C47.3911 13.9375 48.338 14.8593 49.5083 14.8593C50.6788 14.8593 51.6313 13.9377 51.6313 12.8051C51.6313 11.6724 50.679 10.7559 49.5085 10.7559ZM35.9703 15.8592C34.8768 15.8697 33.7666 16.0117 32.6611 16.2986C25.5872 18.1327 21.3885 25.1685 23.2839 32.0143C25.1796 38.8603 32.4501 42.9233 39.5239 41.089C43.4677 40.0663 46.5134 37.424 48.1119 34.1017C46.83 35.44 45.1829 36.3999 43.361 36.8703C38.0019 38.2598 32.4906 35.1846 31.0549 29.9983C29.6187 24.8121 32.8023 19.4843 38.1614 18.0944C40.0523 17.6043 41.9588 17.6695 43.7014 18.1881C41.4709 16.6767 38.7761 15.8319 35.9703 15.8592ZM64.1758 16.0015C62.4669 16.0015 61.0825 17.3417 61.0825 18.9954C61.0825 20.6496 62.4669 21.9894 64.1758 21.9894C65.885 21.9894 67.2695 20.6494 67.2695 18.9958C67.2695 17.3417 65.8845 16.0015 64.1758 16.0015ZM18.9587 20.8137C17.7884 20.8137 16.8415 21.7355 16.8415 22.8683C16.8415 24.0008 17.7882 24.9172 18.9585 24.9172C20.1289 24.9172 21.0757 24.0008 21.0757 22.8683C21.0757 21.7355 20.129 20.8137 18.9587 20.8137ZM69.0349 27.9879L68.9213 33.2337L63.7954 34.9585L68.9213 36.6834L69.0349 41.9293L72.3098 37.7492L77.498 39.2653L74.4047 34.9587L77.498 30.6468L72.31 32.1681L69.0349 27.9879ZM55.9397 30.0257C54.769 30.0257 53.8221 30.9419 53.8221 32.0746C53.8221 33.207 54.769 34.1288 55.9395 34.1288C57.1096 34.1288 58.0621 33.207 58.0621 32.0745C58.0621 30.9415 57.11 30.0257 55.9397 30.0257ZM81.1877 43.1654C80.017 43.1654 79.0701 44.0872 79.0701 45.2197C79.0701 46.3523 80.017 47.2686 81.1875 47.2686C82.3577 47.2686 83.3102 46.3523 83.3102 45.2197C83.3102 44.0872 82.358 43.1654 81.1877 43.1654ZM58.0623 43.7806C56.892 43.7806 55.9451 44.7024 55.9451 45.835C55.9451 46.9675 56.892 47.8839 58.0623 47.8839C58.3404 47.8841 58.6158 47.8312 58.8728 47.7283C59.1297 47.6254 59.3632 47.4745 59.5598 47.2842C59.7565 47.0939 59.9124 46.8679 60.0187 46.6193C60.1251 46.3706 60.1797 46.1041 60.1795 45.835C60.1795 44.7024 59.2328 43.7806 58.0623 43.7806Z" fill="#495CC5"/>
</g>
</svg>
