<svg width="20" height="21" viewBox="0 0 20 21" fill="none" xmlns="http://www.w3.org/2000/svg">
<path d="M18.65 8.37506L17.25 6.97506L18 6.20006L14.8 3.00006L14.025 3.75006L12.6 2.32506L13.35 1.55006C13.7334 1.16673 14.2084 0.979062 14.775 0.987062C15.3417 0.995062 15.8167 1.19106 16.2 1.57506L19.425 4.80006C19.8084 5.1834 20 5.65406 20 6.21206C20 6.77006 19.8084 7.24106 19.425 7.62506L18.65 8.37506ZM6.65002 20.4001C6.26669 20.7834 5.79569 20.9751 5.23702 20.9751C4.67836 20.9751 4.20802 20.7834 3.82602 20.4001L0.600024 17.1751C0.216691 16.7917 0.0250244 16.3207 0.0250244 15.7621C0.0250244 15.2034 0.216691 14.7327 0.600024 14.3501L1.35002 13.6001L2.77502 15.0251L2.00002 15.7751L5.22502 19.0001L5.97502 18.2251L7.40002 19.6501L6.65002 20.4001ZM16.575 12.0001L18 10.5751L10.425 3.00006L9.00002 4.42506L16.575 12.0001ZM9.57502 19.0001L11 17.5501L3.45002 10.0001L2.00002 11.4251L9.57502 19.0001ZM9.42502 13.1501L12.175 10.4251L10.575 8.82506L7.85002 11.5751L9.42502 13.1501ZM11 20.4001C10.6167 20.7834 10.1417 20.9751 9.57502 20.9751C9.00836 20.9751 8.53336 20.7834 8.15002 20.4001L0.600024 12.8501C0.216691 12.4667 0.0250244 11.9917 0.0250244 11.4251C0.0250244 10.8584 0.216691 10.3834 0.600024 10.0001L2.02502 8.57506C2.40836 8.19173 2.87902 8.00006 3.43702 8.00006C3.99502 8.00006 4.46602 8.19173 4.85002 8.57506L6.42502 10.1501L9.17502 7.40006L7.60002 5.85006C7.21669 5.46673 7.02502 4.99173 7.02502 4.42506C7.02502 3.8584 7.21669 3.3834 7.60002 3.00006L9.02502 1.57506C9.40836 1.19173 9.87936 1.00006 10.438 1.00006C10.9967 1.00006 11.4674 1.19173 11.85 1.57506L19.425 9.15006C19.8084 9.53339 20 10.0041 20 10.5621C20 11.1201 19.8084 11.5911 19.425 11.9751L18 13.4001C17.6167 13.7834 17.1417 13.9751 16.575 13.9751C16.0084 13.9751 15.5334 13.7834 15.15 13.4001L13.6 11.8251L10.85 14.5751L12.425 16.1501C12.8084 16.5334 13 17.0044 13 17.5631C13 18.1217 12.8084 18.5924 12.425 18.9751L11 20.4001Z" fill="#7FD8D8"/>
</svg>
