<svg width="20" height="18" viewBox="0 0 20 18" fill="none" xmlns="http://www.w3.org/2000/svg">
<path d="M2 18C1.45 18 0.979002 17.804 0.587002 17.412C0.195002 17.02 -0.000664969 16.5493 1.69779e-06 16V13H20V16C20 16.55 19.804 17.021 19.412 17.413C19.02 17.805 18.5493 18.0007 18 18H2ZM10 10.5C9.4 10.5 8.925 10.6667 8.575 11C8.225 11.3333 7.58333 11.5 6.65 11.5C5.71667 11.5 5.08334 11.3333 4.75 11C4.41667 10.6667 3.95 10.5 3.35 10.5C2.75 10.5 2.275 10.6667 1.925 11C1.575 11.3333 0.933335 11.5 1.69779e-06 11.5V9.5C0.600002 9.5 1.075 9.33333 1.425 9C1.775 8.66667 2.41667 8.5 3.35 8.5C4.28333 8.5 4.91667 8.66667 5.25 9C5.58334 9.33333 6.05 9.5 6.65 9.5C7.25 9.5 7.725 9.33333 8.075 9C8.425 8.66667 9.06667 8.5 10 8.5C10.9333 8.5 11.575 8.66667 11.925 9C12.275 9.33333 12.75 9.5 13.35 9.5C13.95 9.5 14.4167 9.33333 14.75 9C15.0833 8.66667 15.7167 8.5 16.65 8.5C17.5833 8.5 18.2417 8.66667 18.625 9C19.0083 9.33333 19.4667 9.5 20 9.5V11.5C19.0667 11.5 18.4417 11.3333 18.125 11C17.8083 10.6667 17.35 10.5 16.75 10.5C16.15 10.5 15.6667 10.6667 15.3 11C14.9333 11.3333 14.2833 11.5 13.35 11.5C12.4167 11.5 11.775 11.3333 11.425 11C11.075 10.6667 10.6 10.5 10 10.5ZM1.69779e-06 7V6C1.69779e-06 4.08333 0.904335 2.604 2.713 1.562C4.52167 0.52 6.95067 -0.000666027 10 6.39386e-07C13.05 6.39386e-07 15.4793 0.521001 17.288 1.563C19.0967 2.605 20.0007 4.084 20 6V7H1.69779e-06Z" fill="#7FD8D8"/>
</svg>
