<svg width="85" height="83" viewBox="0 0 85 83" fill="none" xmlns="http://www.w3.org/2000/svg">
<g id="Group 1000001339">
<path id="Vector" d="M64.2443 44.1705C67.2805 42.3947 71.3263 42.0237 74.2509 43.9777C70.5997 45.1175 67.4693 47.5121 65.4137 50.7378C64.6254 51.9846 63.8785 53.4535 62.4786 53.9185C61.6075 54.2079 60.6353 54.0295 59.8082 53.6314C58.9812 53.2333 58.2721 52.6318 57.573 52.037L57.3497 51.9854C59.039 48.9003 61.2081 45.9462 64.2443 44.1705Z" fill="#F0F0F0"/>
<path id="Vector_2" d="M74.2185 44.0434C71.3155 43.8232 68.4169 44.5233 65.9344 46.0443C65.3942 46.3622 64.9074 46.7633 64.4921 47.2328C64.1023 47.7032 63.8456 48.2695 63.7486 48.8727C63.6469 49.4333 63.6078 50.0185 63.3716 50.5446C63.2467 50.8122 63.0666 51.0503 62.8433 51.2433C62.6199 51.4364 62.3582 51.58 62.0754 51.6649C61.3763 51.8946 60.6363 51.8594 59.9139 51.7998C59.1118 51.7337 58.2796 51.6523 57.5116 51.9508C57.4186 51.987 57.3679 51.8405 57.4608 51.8043C58.797 51.285 60.2303 51.8715 61.6026 51.6244C62.243 51.5091 62.8524 51.2001 63.1683 50.6075C63.4444 50.0893 63.4853 49.4859 63.5833 48.9173C63.6693 48.3275 63.8984 47.7677 64.2506 47.2868C64.6406 46.7977 65.1111 46.3785 65.6418 46.0472C66.8248 45.2823 68.1206 44.7081 69.4819 44.3458C71.0332 43.9236 72.6453 43.7699 74.2485 43.8913C74.3477 43.8989 74.317 44.051 74.2185 44.0434Z" fill="white"/>
<path id="Vector_3" d="M66.7049 45.5077C66.5063 45.0565 66.4744 44.5495 66.6151 44.077C66.7559 43.6046 67.0599 43.1976 67.473 42.9286C67.5568 42.8745 67.6449 43.0021 67.561 43.0563C67.1758 43.3061 66.8926 43.6852 66.7625 44.1254C66.6324 44.5656 66.6639 45.0378 66.8513 45.4569C66.892 45.548 66.7453 45.5983 66.7049 45.5077Z" fill="white"/>
<path id="Vector_4" d="M63.7628 48.5814C64.6987 48.9548 65.741 48.9617 66.6818 48.6007C66.775 48.5649 66.8257 48.7114 66.7326 48.7472C65.7529 49.121 64.6683 49.1116 63.6952 48.7209C63.6025 48.6836 63.6706 48.5443 63.7628 48.5814Z" fill="white"/>
<path id="Vector_5" d="M71.0038 44.1272C71.0443 44.3178 71.1315 44.4953 71.2576 44.6438C71.3836 44.7924 71.5446 44.9073 71.726 44.9783C71.8192 45.0144 71.751 45.1536 71.6584 45.1178C71.4583 45.0384 71.2807 44.9113 71.141 44.7475C71.0014 44.5837 70.904 44.3882 70.8574 44.178C70.8513 44.1586 70.8529 44.1376 70.8618 44.1192C70.8707 44.1009 70.8862 44.0867 70.9052 44.0794C70.9246 44.0727 70.9459 44.074 70.9644 44.083C70.9828 44.0919 70.997 44.1078 71.0038 44.1272Z" fill="white"/>
<path id="Vector_6" d="M75.4631 55.8241C75.4043 55.8032 75.3454 55.7823 75.2856 55.7622C74.4935 55.4854 73.6802 55.2734 72.8538 55.1283C72.7901 55.1161 72.7254 55.1046 72.6614 55.0943C70.6667 54.766 68.6284 54.8108 66.65 55.2266C65.8629 55.3928 65.0896 55.6186 64.3368 55.9021C63.2972 56.2937 62.2011 56.801 61.1245 56.8255C61.0122 56.8293 60.8998 56.8262 60.7879 56.8161L57.304 52.2611C57.3013 52.2468 57.2975 52.2332 57.2948 52.2189L57.1473 52.0434C57.1851 52.026 57.2247 52.0089 57.2625 51.9915C57.2844 51.9814 57.3071 51.9722 57.329 51.9621C57.3438 51.9557 57.3587 51.9493 57.3717 51.9426C57.3766 51.9404 57.3816 51.9383 57.3855 51.937C57.3985 51.9303 57.4113 51.9255 57.4233 51.9196C57.6443 51.8231 57.8664 51.7279 58.0895 51.6341C58.0905 51.6333 58.0905 51.6333 58.0923 51.6335C59.7942 50.9233 61.5703 50.3489 63.3771 50.0623C63.4315 50.0537 63.4868 50.0442 63.5428 50.0377C64.3579 49.913 65.1819 49.8552 66.0065 49.8648C66.458 49.8715 66.9088 49.901 67.3573 49.9533C68.5159 50.0907 69.6457 50.4094 70.7053 50.8978C72.8174 51.8718 74.5944 53.5104 75.4029 55.6593C75.4235 55.7143 75.4435 55.7683 75.4631 55.8241Z" fill="#F0F0F0"/>
<path id="Vector_7" d="M75.3976 55.8584C73.2123 53.9347 70.4764 52.7485 67.5786 52.4683C66.9558 52.3969 66.3257 52.4241 65.7114 52.549C65.117 52.6899 64.5711 52.9874 64.1305 53.4107C63.7117 53.7971 63.3282 54.2408 62.8228 54.5186C62.562 54.657 62.2749 54.7387 61.9803 54.7584C61.6857 54.778 61.3903 54.7352 61.1135 54.6327C60.4169 54.3952 59.8473 53.9216 59.3063 53.439C58.7057 52.9033 58.0903 52.3373 57.2973 52.1133C57.2013 52.0861 57.249 51.9386 57.3449 51.9657C58.7246 52.3555 59.5158 53.6868 60.7603 54.3157C61.341 54.6092 62.0137 54.7294 62.6226 54.4464C63.1551 54.1989 63.551 53.7417 63.9716 53.3468C64.3954 52.9276 64.9153 52.6185 65.4861 52.4466C66.092 52.2909 66.72 52.2395 67.3433 52.2945C68.7483 52.396 70.1286 52.7177 71.4337 53.248C72.9265 53.8449 74.3062 54.6928 75.5132 55.755C75.5878 55.8208 75.4718 55.9237 75.3976 55.8584Z" fill="white"/>
<path id="Vector_8" d="M68.5169 52.5036C68.63 52.0238 68.9098 51.5997 69.3066 51.3072C69.7034 51.0148 70.1912 50.8728 70.683 50.9068C70.7031 50.9084 70.7217 50.9177 70.735 50.9327C70.7484 50.9478 70.7553 50.9674 70.7545 50.9875C70.7536 51.0076 70.745 51.0265 70.7304 51.0404C70.7158 51.0542 70.6964 51.0619 70.6763 51.0617C70.2185 51.0292 69.7641 51.1615 69.3951 51.4346C69.0262 51.7077 68.7671 52.1037 68.6645 52.5512C68.6421 52.6484 68.4947 52.6002 68.5169 52.5036Z" fill="white"/>
<path id="Vector_9" d="M64.3169 53.1866C64.8394 54.0482 65.6675 54.6812 66.636 54.9594C66.7319 54.9869 66.6842 55.1344 66.5884 55.1069C65.5811 54.8156 64.7207 54.155 64.1789 53.2572C64.1274 53.1716 64.2656 53.1014 64.3169 53.1866Z" fill="white"/>
<path id="Vector_10" d="M5.1267 71.965C5.48291 68.4657 7.56895 64.9793 10.8716 63.7695C9.6392 67.3905 9.72728 71.3307 11.1203 74.893C11.6625 76.2649 12.4084 77.7343 11.9585 79.1392C11.6785 80.0133 10.9611 80.6933 10.1519 81.1266C9.34272 81.5598 8.4388 81.7778 7.54616 81.9916L7.37288 82.1416C5.87733 78.958 4.77049 75.4642 5.1267 71.965Z" fill="#F0F0F0"/>
<path id="Vector_11" d="M10.906 63.8351C9.01636 66.0498 7.87256 68.8037 7.6371 71.7055C7.57532 72.3293 7.61225 72.9589 7.74654 73.5712C7.89662 74.1634 8.20256 74.7046 8.63256 75.1386C9.02536 75.5514 9.47495 75.928 9.76059 76.429C9.90299 76.6877 9.98911 76.9735 10.0133 77.2677C10.0375 77.562 9.99923 77.858 9.901 78.1364C9.67426 78.8365 9.20949 79.4134 8.73538 79.9618C8.20898 80.5706 7.65255 81.1947 7.44077 81.991C7.41511 82.0875 7.26689 82.042 7.29252 81.9457C7.66099 80.5602 8.97985 79.7485 9.5895 78.4944C9.87397 77.9093 9.98382 77.2348 9.69144 76.6303C9.43576 76.1017 8.97248 75.7129 8.57115 75.2985C8.14546 74.8812 7.82842 74.3661 7.64771 73.7981C7.48268 73.1946 7.42155 72.5675 7.46694 71.9435C7.54671 70.537 7.84713 69.1519 8.35719 67.8388C8.93099 66.3369 9.75749 64.9443 10.8009 63.7211C10.8655 63.6454 10.9702 63.7599 10.906 63.8351Z" fill="white"/>
<path id="Vector_12" d="M7.658 70.7664C7.1765 70.6608 6.74822 70.3875 6.44964 69.9953C6.15106 69.6031 6.00162 69.1175 6.02801 68.6253C6.02931 68.6052 6.03833 68.5865 6.05317 68.573C6.06801 68.5595 6.08751 68.5522 6.10757 68.5528C6.12763 68.5533 6.1467 68.5616 6.16077 68.5759C6.17484 68.5903 6.18281 68.6095 6.18301 68.6295C6.15759 69.0879 6.29684 69.5402 6.57562 69.9048C6.85441 70.2695 7.25437 70.5225 7.70332 70.6182C7.80085 70.6391 7.75498 70.7872 7.658 70.7664Z" fill="white"/>
<path id="Vector_13" d="M8.40587 74.9553C9.25932 74.4195 9.8795 73.5818 10.1427 72.6091C10.1687 72.5127 10.317 72.5582 10.291 72.6544C10.0152 73.6661 9.368 74.5366 8.47865 75.0921C8.39384 75.145 8.32152 75.0079 8.40587 74.9553Z" fill="white"/>
<path id="Vector_14" d="M9.07809 66.4805C9.25588 66.5601 9.45067 66.5944 9.64498 66.5802C9.83929 66.566 10.027 66.5038 10.1913 66.3991C10.2754 66.3451 10.3477 66.4823 10.2641 66.5359C10.082 66.6508 9.87463 66.7192 9.65998 66.7354C9.44534 66.7516 9.23 66.715 9.03278 66.6287C9.0135 66.6221 8.99746 66.6085 8.9879 66.5905C8.97834 66.5725 8.97598 66.5516 8.9813 66.5319C8.9874 66.5123 9.00099 66.4959 9.01911 66.4863C9.03723 66.4767 9.05843 66.4746 9.07809 66.4805Z" fill="white"/>
<path id="Vector_15" d="M21.1548 69.7763C21.1033 69.8115 21.0517 69.8467 21.0001 69.8832C20.3095 70.3597 19.6588 70.8915 19.0543 71.4734C19.0068 71.5176 18.9594 71.5632 18.9133 71.6087C17.4719 73.0261 16.3062 74.6988 15.4754 76.5418C15.1455 77.2755 14.8719 78.0332 14.6569 78.8083C14.3601 79.8789 14.1235 81.0633 13.5085 81.9473C13.4454 82.0402 13.3765 82.1292 13.3024 82.2136L7.56932 82.3413C7.55614 82.3351 7.54293 82.3301 7.5297 82.3239L7.30103 82.3395C7.30932 82.2987 7.3188 82.2566 7.32709 82.2159C7.3318 82.1922 7.33779 82.1685 7.34251 82.1449C7.34605 82.1291 7.34966 82.1133 7.35196 82.0988C7.35312 82.0936 7.35435 82.0883 7.35553 82.0844C7.35783 82.0699 7.3615 82.0568 7.36383 82.0436C7.41616 81.8082 7.47023 81.5727 7.52605 81.3372C7.52602 81.3359 7.52602 81.3359 7.52727 81.3346C7.95717 79.5413 8.54056 77.7681 9.37453 76.1399C9.39964 76.0909 9.42466 76.0406 9.45238 75.9915C9.83237 75.2597 10.2715 74.5601 10.7655 73.8998C11.0372 73.5391 11.3269 73.1924 11.6336 72.861C12.4277 72.0063 13.3513 71.2817 14.3706 70.714C16.4026 69.5825 18.7739 69.1135 20.9862 69.7277C21.0428 69.7435 21.0982 69.7593 21.1548 69.7763Z" fill="#F0F0F0"/>
<path id="Vector_16" d="M21.1434 69.8497C18.3012 70.4803 15.7299 71.9905 13.7949 74.1656C13.37 74.6265 13.0204 75.1515 12.7589 75.7212C12.5222 76.2844 12.4406 76.9007 12.5227 77.5062C12.5878 78.0722 12.72 78.6436 12.6464 79.2156C12.6044 79.5079 12.5011 79.7879 12.3433 80.0374C12.1854 80.2869 11.9766 80.5003 11.7306 80.6634C11.128 81.0859 10.4096 81.2667 9.70091 81.4191C8.91404 81.5883 8.09405 81.7515 7.44551 82.2598C7.36693 82.3214 7.27596 82.1959 7.35442 82.1344C8.48277 81.25 10.0245 81.396 11.2663 80.7617C11.8458 80.4658 12.3395 79.9934 12.47 79.3347C12.5841 78.7587 12.4483 78.1693 12.3774 77.5968C12.2887 77.0074 12.3457 76.4052 12.5434 75.8429C12.775 75.2617 13.1038 74.7241 13.5157 74.2532C14.4262 73.1783 15.5 72.2532 16.6978 71.5119C18.0602 70.6582 19.5586 70.0438 21.1281 69.6954C21.2253 69.6739 21.24 69.8283 21.1434 69.8497Z" fill="white"/>
<path id="Vector_17" d="M14.3768 73.4282C14.0559 73.054 13.8785 72.5779 13.8762 72.0849C13.874 71.592 14.047 71.1143 14.3645 70.7372C14.4289 70.6611 14.5502 70.7577 14.4856 70.8339C14.1894 71.1846 14.0283 71.6296 14.0313 72.0886C14.0343 72.5476 14.2014 72.9904 14.5022 73.3371C14.5675 73.4125 14.4417 73.5032 14.3768 73.4282Z" fill="white"/>
<path id="Vector_18" d="M12.4517 77.2229C13.4557 77.309 14.4553 77.0135 15.2511 76.3953C15.3299 76.334 15.4209 76.4595 15.3422 76.5208C14.5128 77.1625 13.472 77.4679 12.4275 77.376C12.3279 77.3672 12.3527 77.2141 12.4517 77.2229Z" fill="white"/>
<path id="Vector_19" d="M18.0912 70.8609C18.1851 71.0316 18.32 71.1762 18.4837 71.2819C18.6474 71.3875 18.8348 71.4508 19.029 71.4662C19.1287 71.4737 19.1037 71.6268 19.0047 71.6193C18.7902 71.6013 18.5834 71.5311 18.4023 71.4148C18.2211 71.2985 18.0713 71.1396 17.9657 70.952C17.9543 70.9352 17.9497 70.9146 17.9529 70.8945C17.9561 70.8744 17.9668 70.8562 17.9829 70.8437C17.9996 70.8318 18.0203 70.8268 18.0406 70.8301C18.0608 70.8333 18.079 70.8444 18.0912 70.8609Z" fill="white"/>
<g id="Group 1">
<path id="Path 1" d="M49.312 10.3471L18.4499 7.3115C18.0924 7.27439 17.7469 7.16159 17.4364 6.98062C17.116 6.79417 16.832 6.55126 16.5981 6.26364C16.0954 5.64882 15.8195 4.8797 15.817 4.0855C15.8167 3.89206 15.8339 3.69898 15.8684 3.50865C15.9015 3.32633 15.952 3.14761 16.0193 2.97497C16.0844 2.80793 16.1665 2.648 16.2642 2.49768C16.3604 2.35 16.4722 2.21313 16.5977 2.08948C16.7198 1.96902 16.8552 1.86276 17.0012 1.77272C17.2854 1.59749 17.6068 1.49125 17.9394 1.46251C18.1095 1.44793 18.2806 1.45232 18.4497 1.4756L49.312 5.65029C49.5476 5.68527 49.7707 5.7787 49.9608 5.92203C50.1692 6.07834 50.3472 6.27129 50.4864 6.49143C50.6415 6.7339 50.7601 6.99782 50.8386 7.27474C50.9242 7.57298 50.9675 7.88175 50.9674 8.19202C50.9675 8.34321 50.957 8.49422 50.936 8.64393C50.9159 8.78659 50.885 8.92751 50.8436 9.06548C50.8042 9.19683 50.7538 9.32463 50.693 9.44752C50.6349 9.56489 50.5658 9.67647 50.4867 9.78076C50.4127 9.87851 50.3282 9.96787 50.2348 10.0473C50.1482 10.1208 50.0526 10.1832 49.9505 10.2331C49.7524 10.3297 49.5312 10.3692 49.3119 10.347L49.312 10.3471Z" fill="#E4E4E4"/>
<path id="Path 2" d="M35.5947 8.99797L18.4499 7.3115C18.0924 7.27439 17.7469 7.1616 17.4364 6.98062C17.116 6.79418 16.832 6.55126 16.5981 6.26364C16.0954 5.64883 15.8195 4.8797 15.817 4.0855C15.8167 3.89206 15.8339 3.69898 15.8684 3.50865C15.9015 3.32633 15.952 3.14761 16.0193 2.97497C16.0844 2.80793 16.1665 2.648 16.2642 2.49768C16.3604 2.35 16.4722 2.21313 16.5977 2.08948C16.7198 1.96902 16.8552 1.86276 17.0012 1.77272C17.2854 1.59749 17.6068 1.49125 17.9394 1.46251C18.1095 1.44793 18.2806 1.45232 18.4497 1.4756L35.5943 3.79518L35.5947 8.99797Z" fill="#495CC5"/>
<path id="Path 3" d="M35.5509 9.38133C35.4716 9.37306 35.3954 9.34616 35.3285 9.30283C35.2579 9.2573 35.1964 9.19905 35.1472 9.13104C35.0935 9.05756 35.052 8.97598 35.0242 8.88939C34.9942 8.7972 34.9789 8.70085 34.9789 8.60391V4.04482C34.9783 3.95134 34.9936 3.85844 35.024 3.77007C35.0509 3.6919 35.0927 3.61969 35.1472 3.55746C35.1967 3.5002 35.259 3.45539 35.329 3.42662C35.3996 3.39863 35.4763 3.38961 35.5514 3.40046C35.6308 3.41219 35.7065 3.44201 35.7725 3.48759C35.8427 3.53613 35.9036 3.59683 35.9523 3.66684C36.0051 3.74166 36.0461 3.82418 36.0737 3.9115C36.1032 4.00358 36.1182 4.09966 36.1182 4.19633V8.71865C36.1188 8.81207 36.1037 8.90493 36.0737 8.9934C36.0471 9.0724 36.0059 9.14571 35.9523 9.20954C35.9033 9.2681 35.8416 9.31484 35.772 9.34627C35.7026 9.37681 35.6264 9.38889 35.5509 9.38133Z" fill="#3F3D56"/>
<path id="Path 4" d="M8.12521 5.63847C8.09467 5.63534 8.06437 5.63014 8.03454 5.6229C8.00399 5.61546 7.97397 5.60602 7.94466 5.59464C7.91452 5.58295 7.88515 5.56936 7.85674 5.55395C7.82733 5.538 7.79893 5.52026 7.77169 5.50083C7.60701 5.38348 7.48978 5.21107 7.4412 5.01478C7.42509 4.94949 7.41697 4.8825 7.417 4.81525V1.39182C7.41676 1.32655 7.42489 1.26151 7.4412 1.19831C7.45653 1.13864 7.48009 1.0814 7.5112 1.02823C7.57222 0.924342 7.66301 0.841163 7.77182 0.789451C7.8265 0.763295 7.88474 0.745352 7.94466 0.736202C8.00447 0.727164 8.06525 0.726634 8.12521 0.734631C8.18716 0.742943 8.24773 0.759397 8.30537 0.783564C8.36638 0.809152 8.42402 0.842105 8.47703 0.881691L11.2112 2.91291C11.2601 2.94927 11.3048 2.99086 11.3447 3.03694C11.4236 3.12817 11.4821 3.23524 11.5162 3.35094C11.5333 3.40896 11.544 3.46867 11.5483 3.52901C11.5483 3.53382 11.5486 3.53863 11.5492 3.5434C11.5498 3.54818 11.5498 3.55302 11.5492 3.55779V3.58671C11.5494 3.65044 11.5416 3.71395 11.5261 3.77577C11.5115 3.83403 11.489 3.89005 11.4594 3.94232C11.4306 3.99298 11.3947 4.03925 11.3528 4.0797C11.3108 4.12031 11.2631 4.15452 11.2112 4.18122L8.47676 5.57344C8.44953 5.58729 8.42133 5.59914 8.39238 5.6089C8.36383 5.61854 8.33462 5.62611 8.30498 5.63153C8.27542 5.63693 8.24551 5.64021 8.21548 5.64135C8.18536 5.64249 8.1552 5.64153 8.12521 5.63847Z" fill="#CACACA"/>
</g>
<g id="Group 2">
<path id="Path 5" d="M49.318 25.2528L18.4592 25.8347C18.1097 25.8412 17.7633 25.7687 17.4458 25.6226C17.1274 25.4752 16.8422 25.2647 16.6075 25.0039C16.3609 24.7306 16.1675 24.4138 16.0369 24.0696C15.7564 23.3271 15.7564 22.5077 16.0369 21.7652C16.1675 21.421 16.361 21.1041 16.6075 20.8307C16.8422 20.5696 17.1273 20.3589 17.4458 20.2112C17.7633 20.0649 18.1097 19.9922 18.4592 19.9984L49.318 20.5562C49.548 20.562 49.7722 20.6298 49.9668 20.7524C50.1747 20.8837 50.3535 21.0562 50.4923 21.2591C50.6485 21.486 50.7674 21.7366 50.8443 22.0011C51.016 22.5904 51.016 23.2163 50.8443 23.8056C50.7674 24.0703 50.6485 24.3209 50.4923 24.548C50.3536 24.7514 50.1748 24.9244 49.9668 25.0562C49.7722 25.1789 49.548 25.2468 49.318 25.2528Z" fill="#E4E4E4"/>
<path id="Path 6" d="M30.5205 25.6073L18.4592 25.8347C18.1097 25.8412 17.7633 25.7687 17.4458 25.6227C17.1274 25.4752 16.8422 25.2648 16.6075 25.0039C16.3609 24.7306 16.1675 24.4138 16.0369 24.0696C15.897 23.7017 15.8257 23.3112 15.8265 22.9175C15.8264 22.7221 15.8436 22.527 15.878 22.3346C15.9115 22.1467 15.962 21.9622 16.0288 21.7834C16.0945 21.6075 16.1765 21.4382 16.2737 21.2775C16.3702 21.118 16.4819 20.9682 16.6071 20.8302C16.729 20.6954 16.8642 20.5732 17.0106 20.4655C17.1514 20.3622 17.3027 20.274 17.462 20.2025C17.7753 20.0618 18.1158 19.9921 18.4592 19.9984L30.5205 20.2164V25.6073Z" fill="#495CC5"/>
<path id="Path 7" d="M30.6615 25.9486C30.5791 25.9502 30.4976 25.9318 30.4239 25.8949C30.3489 25.8569 30.2826 25.8037 30.2292 25.7387C30.1716 25.6687 30.127 25.589 30.0975 25.5032C30.0652 25.4101 30.0488 25.3121 30.0491 25.2135V20.4956C30.0488 20.3969 30.0651 20.2989 30.0975 20.2057C30.127 20.1199 30.1716 20.0402 30.2292 19.9702C30.2826 19.9054 30.3489 19.8523 30.4239 19.8145C30.4976 19.7776 30.5791 19.7592 30.6615 19.7608C30.7444 19.7629 30.8256 19.7847 30.8983 19.8244C30.9729 19.8654 31.0385 19.9209 31.0913 19.9876C31.148 20.059 31.192 20.1396 31.2212 20.226C31.253 20.3191 31.2691 20.4168 31.2689 20.5152V25.1939C31.2691 25.2923 31.253 25.3901 31.2212 25.4832C31.192 25.5696 31.148 25.6503 31.0913 25.7217C31.0385 25.7885 30.9729 25.8441 30.8983 25.8851C30.8256 25.9248 30.7444 25.9466 30.6615 25.9486Z" fill="#3F3D56"/>
<path id="Path 8" d="M8.13569 25.3723C8.07475 25.3732 8.01398 25.3656 7.95514 25.3497C7.92517 25.3416 7.89579 25.3315 7.86722 25.3194C7.83797 25.3069 7.8096 25.2925 7.78231 25.2762C7.72765 25.2437 7.67757 25.2041 7.63342 25.1584C7.58973 25.1129 7.5522 25.0619 7.52182 25.0067C7.49098 24.9506 7.46745 24.8908 7.45182 24.8287C7.43562 24.7646 7.42749 24.6986 7.42761 24.6325V21.209C7.4275 21.1429 7.43563 21.0769 7.45182 21.0128C7.46748 20.9508 7.49101 20.8911 7.52182 20.8351C7.58294 20.7235 7.67296 20.6305 7.78244 20.5657C7.83638 20.5332 7.89453 20.5082 7.95527 20.4915C8.07358 20.4595 8.19849 20.4613 8.31585 20.4966C8.37626 20.5149 8.43396 20.5411 8.48738 20.5747L11.2218 22.2853L11.2316 22.2916L11.2415 22.298L11.2511 22.3045L11.2607 22.3112C11.3046 22.3429 11.3447 22.3796 11.3801 22.4206C11.4156 22.4613 11.4463 22.506 11.4717 22.5536C11.4974 22.6019 11.5177 22.6528 11.5323 22.7055C11.5473 22.7597 11.5566 22.8153 11.5598 22.8714V22.9192C11.5599 22.9838 11.5522 23.0481 11.5368 23.1109C11.5218 23.1715 11.4994 23.23 11.47 23.2851C11.4411 23.3394 11.4053 23.3898 11.3635 23.4349C11.3213 23.4803 11.2733 23.5199 11.2208 23.5527L8.48738 25.2662C8.46033 25.2832 8.43219 25.2984 8.40312 25.3116C8.37477 25.3245 8.34557 25.3355 8.31572 25.3445C8.28639 25.3533 8.25649 25.3601 8.22623 25.3648C8.19626 25.3694 8.16601 25.3719 8.13569 25.3723Z" fill="#CACACA"/>
</g>
<path id="Path 9" d="M49.312 40.1099L18.4499 44.2975C18.1146 44.3459 17.7727 44.3155 17.4513 44.2088C17.1298 44.102 16.8376 43.9219 16.5979 43.6826C16.3498 43.4359 16.1555 43.1405 16.0272 42.815C15.8859 42.4561 15.8146 42.0736 15.817 41.6879C15.8195 40.8936 16.0953 40.1244 16.598 39.5095C16.8319 39.2217 17.1159 38.9787 17.4363 38.7921C17.7468 38.611 18.0923 38.4981 18.4499 38.4608L49.312 35.4131C49.5352 35.3907 49.7603 35.4323 49.9608 35.533C50.1679 35.6395 50.3477 35.7923 50.4863 35.9794C50.644 36.1906 50.7632 36.4278 50.8385 36.6803C50.9255 36.9679 50.9689 37.267 50.9673 37.5675C50.9674 37.8778 50.9241 38.1865 50.8385 38.4848C50.7601 38.7617 50.6414 39.0257 50.4863 39.2682C50.3472 39.4884 50.1691 39.6815 49.9608 39.8379C49.7706 39.9813 49.5476 40.0748 49.312 40.1099Z" fill="#E4E4E4"/>
<path id="Path 10" d="M44.4593 40.7685L18.4499 44.2977C18.1146 44.3461 17.7727 44.3157 17.4513 44.2089C17.1298 44.1022 16.8376 43.9221 16.5979 43.6828C16.3498 43.4361 16.1555 43.1407 16.0272 42.8152C15.886 42.4565 15.8146 42.0741 15.8169 41.6886C15.817 41.4912 15.8342 41.2942 15.8684 41.0998C15.9705 40.5157 16.2217 39.9678 16.5976 39.5093C16.7196 39.3604 16.8546 39.2228 17.0011 39.098C17.1412 38.9785 17.2923 38.8726 17.4524 38.7818C17.607 38.6942 17.7701 38.6225 17.9392 38.5678C18.105 38.5142 18.2761 38.4784 18.4495 38.4611L44.4593 35.8926V40.7685Z" fill="#495CC5"/>
<path id="Path 12" d="M8.12508 45.0419C8.09502 45.0459 8.06473 45.0478 8.03441 45.0475C8.00436 45.0473 7.97437 45.045 7.94466 45.0405C7.88474 45.0313 7.82649 45.0134 7.77182 44.9872C7.66293 44.9354 7.57213 44.852 7.5112 44.7479C7.48009 44.6947 7.45653 44.6375 7.4412 44.5778C7.42496 44.5149 7.41682 44.4501 7.41699 44.3851V40.9612C7.41699 40.894 7.42512 40.8272 7.4412 40.762C7.48985 40.5657 7.60712 40.3933 7.77182 40.2758C7.8253 40.2375 7.88336 40.206 7.94466 40.182C8.00262 40.1594 8.06334 40.1447 8.12521 40.1382C8.18528 40.1319 8.24594 40.1342 8.30537 40.145C8.36501 40.1559 8.42275 40.1754 8.47676 40.203L11.2112 41.5941L11.2212 41.5992L11.231 41.6046L11.2407 41.6101L11.2502 41.6157C11.2917 41.6409 11.3299 41.671 11.364 41.7055C11.398 41.7398 11.4278 41.7781 11.4527 41.8196C11.4782 41.862 11.4988 41.9071 11.5141 41.9542C11.5301 42.0034 11.5408 42.0541 11.546 42.1056C11.5467 42.1124 11.5473 42.1192 11.5479 42.126C11.5484 42.1328 11.5488 42.1397 11.5492 42.1466C11.5492 42.1535 11.5494 42.1605 11.55 42.1675C11.5505 42.1745 11.5505 42.1815 11.55 42.1885C11.55 42.254 11.5422 42.3193 11.5269 42.3829C11.4969 42.5095 11.4381 42.6274 11.3551 42.7276C11.3127 42.778 11.2643 42.8233 11.2112 42.8625L8.47676 44.8947C8.44976 44.9148 8.42158 44.9332 8.39237 44.9499C8.36416 44.9661 8.33497 44.9805 8.30498 44.993C8.27584 45.0051 8.24594 45.0154 8.21548 45.0237C8.18579 45.0318 8.15559 45.0379 8.12508 45.0419Z" fill="#CACACA"/>
<path id="Vector_20" d="M44.2718 37.2664C44.4621 37.2389 44.6562 37.2536 44.8403 37.3093C45.0244 37.365 45.1941 37.4603 45.3373 37.5887C45.4806 37.717 45.594 37.8752 45.6695 38.0521C45.745 38.229 45.7808 38.4203 45.7743 38.6126L50.1376 40.2921L48.1608 41.7045L44.3204 39.8931C43.9981 39.8608 43.6989 39.7116 43.4794 39.4735C43.2599 39.2354 43.1354 38.9251 43.1294 38.6013C43.1234 38.2775 43.2364 37.9628 43.4469 37.7168C43.6575 37.4707 43.951 37.3105 44.2718 37.2664Z" fill="#FFB6B6"/>
<path id="Vector_21" d="M61.0697 36.5161L61.8078 37.8582C61.6295 38.7094 61.1684 39.4753 60.4997 40.0313C59.3695 40.9844 53.4602 44.5344 53.4602 44.5344L46 40.7892L47.3051 39.0549L53.162 41.0178L56.4661 37.8977L61.0697 36.5161Z" fill="#495CC5"/>
<path id="Vector_22" d="M61.5172 57.487L60.7457 57.6323L65.3972 82.3183L66.1686 82.1729L61.5172 57.487Z" fill="#CACACA"/>
<path id="Vector_23" d="M53.8388 82.172L54.6102 82.3174L59.2617 57.6314L58.4903 57.4861L53.8388 82.172Z" fill="#CACACA"/>
<path id="Vector_24" d="M59.4667 58.6492C62.6822 58.6492 65.2889 57.7998 65.2889 56.7521C65.2889 55.7043 62.6822 54.855 59.4667 54.855C56.2512 54.855 53.6445 55.7043 53.6445 56.7521C53.6445 57.7998 56.2512 58.6492 59.4667 58.6492Z" fill="#CACACA"/>
<path id="Vector_25" d="M47.1007 80.7628L45.4967 80.7626L44.7336 74.5757L47.101 74.5758L47.1007 80.7628Z" fill="#FFB6B6"/>
<path id="Vector_26" d="M47.5097 82.3174L42.3376 82.3172V82.2518C42.3377 81.7179 42.5498 81.2059 42.9273 80.8284C43.3048 80.4509 43.8169 80.2388 44.3507 80.2388L47.5098 80.2389L47.5097 82.3174Z" fill="#2F2E41"/>
<path id="Vector_27" d="M54.8873 72.3446L53.4862 73.1255L49.8071 68.0931L51.875 66.9404L54.8873 72.3446Z" fill="#FFB6B6"/>
<path id="Vector_28" d="M56.0016 73.5035L51.4841 76.0217L51.4522 75.9646C51.1923 75.4983 51.1282 74.9478 51.2742 74.4342C51.4201 73.9206 51.764 73.4861 52.2303 73.2261L54.9896 71.688L56.0016 73.5035Z" fill="#2F2E41"/>
<path id="Vector_29" d="M63.9978 52.114C63.9978 52.114 64.7755 54.5236 60.0037 57.571L53.8581 63.6948L47.4724 78.9697L43.6814 77.2701L49.5114 61.7084L52.9206 55.7391L53.0195 52.5001L53.8581 50.2169L59.9419 48.0581L63.9978 52.114Z" fill="#2F2E41"/>
<path id="Vector_30" d="M51.52 72.2444L45.1771 62.6814C44.8859 62.2414 44.7569 61.7137 44.8124 61.1889C44.8679 60.6641 45.1044 60.175 45.4813 59.8056L51.9036 53.5235L52.9925 52.4346H55.4292L54.2866 56.6502L50.3227 61.1435L54.9051 69.2524L51.52 72.2444Z" fill="#2F2E41"/>
<path id="Vector_31" d="M56.4119 39.0866L58.3232 36.3513L62.6903 36C62.6903 36 66.4447 39.5372 65.7616 44.1949C65.0785 48.8525 64.4244 53.4317 64.4244 53.4317C64.4244 53.4317 57.6209 48.5908 54.0884 50.2917L56.4119 39.0866Z" fill="#495CC5"/>
<path id="Vector_32" d="M54.8841 53.2817C54.918 53.0924 54.993 52.9127 55.1038 52.7555C55.2146 52.5983 55.3585 52.4673 55.5254 52.3717C55.6923 52.2761 55.8782 52.2183 56.0698 52.2023C56.2615 52.1863 56.4543 52.2125 56.6348 52.2791L59.6021 48.666L60.3206 50.9869L57.3927 54.0621C57.2607 54.3579 57.0248 54.5949 56.7298 54.7283C56.4347 54.8618 56.101 54.8823 55.7918 54.7861C55.4825 54.6899 55.2194 54.4836 55.0521 54.2064C54.8848 53.9291 54.8251 53.6001 54.8841 53.2817Z" fill="#FFB6B6"/>
<path id="Vector_33" d="M58.6196 53.0467L57.3127 51.159L61.0238 46.211L59.1121 42.1144L59.2513 37.2415L60.831 36.9497L60.8506 36.9595C61.6187 37.4016 62.2124 38.0932 62.5331 38.9193C62.9272 39.9045 63.807 43.603 64.2963 45.7199C64.3924 46.1301 64.3819 46.5581 64.2658 46.9631C64.1496 47.3681 63.9317 47.7367 63.6328 48.0336L58.6196 53.0467Z" fill="#495CC5"/>
<path id="Vector_34" d="M61.9513 33.8829C62.8018 32.4522 62.3314 30.6029 60.9008 29.7525C59.4701 28.902 57.6208 29.3724 56.7704 30.8031C55.9199 32.2338 56.3903 34.083 57.821 34.9335C59.2516 35.7839 61.1009 35.3135 61.9513 33.8829Z" fill="#FFB6B6"/>
<path id="Vector_35" d="M61.2874 31.2611C61.2556 31.6987 61.666 33.3122 61.666 33.3122C61.9668 32.8062 61.4943 34.4879 61.4943 34.4879C66.4307 31.0468 62.5302 27.5898 61.0044 27.8971C61.0363 27.4595 59.7919 27.6328 59.7919 27.6328C59.3177 26.8944 58.2786 27.8746 58.2786 27.8746L58.4791 27.5373C57.6723 27.7425 56.8749 30.2359 56.8749 30.2359C57.1485 31.3117 61.3193 30.8235 61.2874 31.2611Z" fill="#2F2E41"/>
<path id="Path 11" d="M44.3438 41.0963C44.2776 41.1058 44.21 41.0967 44.1487 41.0701C44.0864 41.0422 44.0317 41 43.9889 40.9468C43.9406 40.8873 43.9037 40.8193 43.8803 40.7463C43.8536 40.6629 43.8404 40.5757 43.8411 40.4881V36.2147C43.8409 36.1241 43.8541 36.0339 43.8803 35.9472C43.9047 35.8668 43.9413 35.7906 43.9889 35.7214C44.0317 35.6584 44.0859 35.6039 44.1488 35.5609C44.2068 35.5212 44.2738 35.4965 44.3438 35.4891C44.4105 35.4825 44.4777 35.4944 44.5382 35.5235C44.6002 35.5539 44.6544 35.5982 44.6967 35.6527C44.7443 35.7136 44.7804 35.7825 44.8035 35.8562C44.8299 35.9395 44.8432 36.0264 44.8428 36.1138V40.3549C44.8427 40.4453 44.8295 40.5352 44.8035 40.6217C44.7795 40.7028 44.7435 40.7798 44.6967 40.8502C44.6543 40.9146 44.6006 40.9709 44.5382 41.0163C44.4808 41.0583 44.4141 41.0857 44.3438 41.0963Z" fill="#3F3D56"/>
<path id="Vector_36" d="M84.8442 82.441H0.155331C0.114093 82.4408 0.0745834 82.4244 0.0454657 82.3952C0.0163481 82.366 0 82.3264 0 82.2852C0 82.2439 0.0163481 82.2044 0.0454657 82.1752C0.0745834 82.146 0.114093 82.1295 0.155331 82.1294H84.8442C84.8855 82.1294 84.9252 82.1458 84.9544 82.175C84.9836 82.2042 85 82.2439 85 82.2852C85 82.3265 84.9836 82.3661 84.9544 82.3953C84.9252 82.4245 84.8855 82.441 84.8442 82.441Z" fill="#CACACA"/>
</g>
</svg>
