<svg width="24" height="24" viewBox="0 0 24 24" fill="none" xmlns="http://www.w3.org/2000/svg">
<path d="M20.5781 1.5V9.23438H21.4219V1.5H20.5781ZM19.7344 2.10891L15.3563 3.75L19.7344 5.39063V2.10891ZM7.77657 4.82813C7.5422 4.82813 7.29845 4.93594 7.05938 5.15625C6.76876 5.42813 6.52032 5.86406 6.41251 6.38906C6.3047 6.91875 6.36563 7.42031 6.5297 7.78125C6.69376 8.14688 6.93282 8.35781 7.21407 8.41406C7.49532 8.475 7.79532 8.37188 8.09063 8.10469C8.37657 7.83281 8.6297 7.39688 8.73751 6.86719C8.84063 6.3375 8.7797 5.83594 8.62032 5.475C8.45626 5.10938 8.2172 4.90313 7.93595 4.84219C7.88438 4.83281 7.82813 4.82813 7.77657 4.82813ZM5.97657 8.50781C5.8172 8.56406 5.65313 8.625 5.47501 8.7C4.31017 9.43594 3.49688 10.1625 2.67001 11.3109C2.14548 12.0375 2.1197 13.2797 2.08032 14.1938L3.05532 14.625C3.0961 13.3219 3.0722 12.7828 3.67735 12.0328C4.13813 11.4609 4.58345 10.8609 5.43751 10.6781C5.51251 12.0328 5.31563 14.1328 4.78126 16.2844C5.7422 16.4156 6.54376 16.2516 7.45313 15.9891C9.8297 14.8031 10.9266 15.8109 12.5766 18.1313L13.5375 16.6266C12.3844 15.2719 11.2641 13.1063 8.04376 13.9406C8.27813 12.6609 8.30626 11.8125 8.44688 10.5375C8.47501 9.975 8.48438 9.41719 8.49845 8.86406C8.08126 9.18281 7.56563 9.35156 7.04532 9.24375C6.60001 9.15 6.23438 8.87344 5.97657 8.50781ZM12.7359 8.85C11.8828 9.68438 11.6953 10.3031 10.3828 10.65L9.32813 9.525C9.30938 10.125 9.29063 10.7391 9.23907 11.3625C9.68438 11.7703 10.1391 12.0984 10.3031 12.0469C11.7703 11.6063 12.1922 11.0953 13.1813 10.0828L12.7359 8.85ZM19.1719 10.0781V14.5781H14.6719V19.0781H10.1719V22.7391C14.9672 22.7484 18.0375 22.7906 22.8281 22.8234V10.0781H19.1719ZM6.59532 17.0578C5.95782 17.175 5.2922 17.2125 4.55907 17.1C4.0486 18.8578 3.3047 20.5828 2.28517 21.9047L4.09595 22.6219C5.36251 20.8453 5.82188 19.3125 6.59532 17.0578Z" fill="#7FD8D8"/>
</svg>
