<svg width="139" height="75" viewBox="0 0 139 75" fill="none" xmlns="http://www.w3.org/2000/svg">
<g id="undraw_mornings_re_cofi 1" clip-path="url(#clip0_370_1023)">
<path id="Path 2362" d="M112.214 75H27.9321C27.0705 74.9991 26.3724 74.4081 26.3713 73.6787V12.6626C26.3724 11.9331 27.0705 11.3421 27.9321 11.3413H112.214C113.076 11.3422 113.774 11.9333 113.775 12.6627V73.6791C113.774 74.4088 113.076 75 112.214 75ZM27.9321 11.8698C27.4152 11.8698 26.9961 12.2249 26.9956 12.6626V73.6791C26.9956 74.1167 27.4152 74.4714 27.9322 74.4719H112.214C112.731 74.4719 113.15 74.1167 113.151 73.6791V12.6626C113.151 12.225 112.731 11.8703 112.214 11.8698H27.9321Z" fill="#E6E6E6"/>
<path id="Path 2484" d="M62.5966 36.125L85.0762 31.6279L85.5643 43.967L83.8045 57.9449L85.0762 74.6147H60.8326L61.4636 55.2738C61.4636 55.2738 56.0541 47.6376 59.2409 39.9406L62.5966 36.125Z" fill="#495CC5"/>
<path id="Path 2485" d="M112.722 6.85413C112.834 7.37204 112.832 7.90837 112.715 8.42533C112.598 8.9423 112.37 9.42733 112.045 9.84626C111.721 10.2652 111.308 10.6078 110.837 10.8501C110.366 11.0923 109.847 11.2282 109.318 11.2483L87.7613 36.2578L82.7495 30.1725L105.515 7.50302C105.54 6.61089 105.892 5.75903 106.503 5.1089C107.114 4.45876 107.942 4.05552 108.831 3.97559C109.719 3.89567 110.606 4.14461 111.323 4.67525C112.04 5.20588 112.538 5.98134 112.722 6.85465L112.722 6.85413Z" fill="#FEB8B8"/>
<path id="Path 2486" d="M92.4545 33.5283C92.4596 33.7618 92.4142 33.9937 92.3215 34.2082C92.2288 34.4226 92.091 34.6145 91.9174 34.7708L85.856 40.2299C85.4798 40.6882 85.0172 41.0678 84.4943 41.3471C83.9715 41.6264 83.3989 41.7999 82.809 41.8578C82.2192 41.9157 81.6237 41.8568 81.0566 41.6844C80.4895 41.512 79.9619 41.2296 79.504 40.8533C79.046 40.4769 78.6666 40.014 78.3874 39.4909C78.1082 38.9678 77.9348 38.3949 77.8769 37.8047C77.819 37.2146 77.8779 36.6189 78.0502 36.0515C78.2225 35.4841 78.5048 34.9563 78.881 34.498L83.1124 27.4926C83.2331 27.2926 83.3956 27.121 83.5886 26.9895C83.7816 26.858 84.0007 26.7697 84.2309 26.7305C84.4611 26.6914 84.6971 26.7023 84.9227 26.7626C85.1483 26.8229 85.3582 26.9312 85.5382 27.08L91.865 32.3107C92.0451 32.4594 92.191 32.6453 92.2927 32.8557C92.3945 33.066 92.4496 33.2958 92.4545 33.5294L92.4545 33.5283Z" fill="#495CC5"/>
<path id="Path 2487" d="M27.349 65.6267C27.3153 65.0977 27.398 64.5678 27.5911 64.0742C27.7843 63.5806 28.0833 63.1354 28.467 62.7699C28.8508 62.4044 29.3099 62.1275 29.8122 61.9588C30.3144 61.7901 30.8476 61.7336 31.374 61.7933L56.4371 40.3037L60.4795 47.0725L34.5721 66.0674C34.4134 66.9457 33.9381 67.7351 33.2363 68.2862C32.5346 68.8373 31.6552 69.1116 30.7647 69.0572C29.8743 69.0028 29.0348 68.6235 28.4052 67.9912C27.7757 67.3588 27.3999 66.5174 27.349 65.6263V65.6267Z" fill="#FEB8B8"/>
<path id="Ellipse 85" d="M73.0431 25.4533C78.0972 25.4533 82.1944 21.3541 82.1944 16.2975C82.1944 11.2408 78.0972 7.1416 73.0431 7.1416C67.9889 7.1416 63.8917 11.2408 63.8917 16.2975C63.8917 21.3541 67.9889 25.4533 73.0431 25.4533Z" fill="#3F3D56"/>
<path id="Path 2488" d="M51.3873 42.297C51.4173 42.0653 51.497 41.8428 51.6207 41.6447C51.7445 41.4466 51.9096 41.2776 52.1046 41.1491L58.9162 36.6616C59.3544 36.2621 59.867 35.9529 60.4248 35.7517C60.9825 35.5504 61.5744 35.4611 62.1666 35.4888C62.7589 35.5165 63.3398 35.6607 63.8764 35.9132C64.4129 36.1656 64.8944 36.5214 65.2935 36.9601C65.6925 37.3988 66.0012 37.9119 66.202 38.47C66.4028 39.0281 66.4916 39.6204 66.4636 40.2129C66.4355 40.8054 66.291 41.3866 66.0383 41.9232C65.7856 42.4598 65.4297 42.9413 64.991 43.3403C64.9782 43.352 64.9653 43.3635 64.9524 43.375L59.7177 49.6674C59.5684 49.8469 59.382 49.9922 59.1715 50.0932C58.961 50.1942 58.7311 50.2487 58.4977 50.2528C58.2642 50.257 58.0326 50.2107 57.8186 50.1172C57.6046 50.0237 57.4132 49.8852 57.2576 49.7111L51.787 43.5904C51.6312 43.4163 51.5148 43.2107 51.4457 42.9874C51.3767 42.7642 51.3566 42.5287 51.3868 42.297H51.3873Z" fill="#495CC5"/>
<path id="Ellipse 491" d="M72.1773 30.3674C76.7533 30.3674 80.4629 26.656 80.4629 22.0777C80.4629 17.4995 76.7533 13.7881 72.1773 13.7881C67.6013 13.7881 63.8917 17.4995 63.8917 22.0777C63.8917 26.656 67.6013 30.3674 72.1773 30.3674Z" fill="#FEB8B8"/>
<path id="Path 574" d="M77.8198 0C77.1282 0.988176 76.1031 1.69317 74.9332 1.98521C72.9148 2.52602 74.9168 5.56045 74.9168 5.56045C74.9168 5.56045 74.1888 4.457 75.2388 3.28838C76.2888 2.11977 77.9786 1.32091 77.8198 0Z" fill="#3F3D56"/>
<path id="Ellipse 87" d="M74.5591 8.84C75.9676 8.84 77.1095 7.69761 77.1095 6.28841C77.1095 4.8792 75.9676 3.73682 74.5591 3.73682C73.1506 3.73682 72.0088 4.8792 72.0088 6.28841C72.0088 7.69761 73.1506 8.84 74.5591 8.84Z" fill="#3F3D56"/>
<path id="Path 575" d="M78.3701 8.42693C76.291 7.64014 72.8291 7.24122 71.0482 7.51445L71.2923 5.72998C73.0046 6.61534 76.4506 7.03148 78.6142 6.64246L78.3701 8.42693Z" fill="#495CC5"/>
<path id="Path 576" d="M73.5665 8.76074C73.5665 8.76074 70.9608 13.0969 64.9017 14.7202C58.8427 16.3435 64.8523 25.4531 64.8523 25.4531C64.8523 25.4531 62.667 22.1406 65.819 18.6324C68.971 15.1243 74.0433 12.7259 73.5665 8.76074Z" fill="#3F3D56"/>
<path id="Path 577" d="M74.5539 8.80225C74.5539 8.80225 77.0571 14.7583 79.8052 15.3214C82.5534 15.8846 82.3449 25.2957 78.0473 26.707C78.0473 26.707 81.1816 21.1897 78.5025 17.4895C75.8233 13.7894 74.1318 10.8643 74.5539 8.80225Z" fill="#3F3D56"/>
<path id="Rectangle 254" d="M139 74.6147H0V74.8718H139V74.6147Z" fill="#E6E6E6"/>
<path id="Vector" d="M24.2623 68.5062C24.2623 68.1841 24.1989 67.8651 24.0757 67.5674C23.9525 67.2698 23.7719 66.9994 23.5443 66.7716C23.3166 66.5438 23.0463 66.3631 22.7489 66.2398C22.4514 66.1165 22.1326 66.0531 21.8106 66.053H21.8105V64.166H12.3799V73.5043C12.3799 73.8302 12.5093 74.1429 12.7397 74.3734C12.9701 74.6039 13.2826 74.7334 13.6084 74.7334H20.582C20.9078 74.7334 21.2203 74.6039 21.4507 74.3734C21.6811 74.1429 21.8105 73.8302 21.8105 73.5043V70.9593C22.4608 70.9593 23.0844 70.7008 23.5442 70.2408C24.004 69.7807 24.2623 69.1568 24.2623 68.5062ZM21.8105 70.0156L21.8105 66.9964C22.2107 66.9964 22.5945 67.1554 22.8774 67.4385C23.1604 67.7216 23.3194 68.1056 23.3194 68.506C23.3194 68.9064 23.1604 69.2904 22.8774 69.5735C22.5945 69.8566 22.2107 70.0156 21.8105 70.0156Z" fill="#E6E6E6"/>
<path id="Path 776" d="M125.046 65.7644C126.893 67.747 126.988 70.661 126.988 70.661C126.988 70.661 124.09 70.3605 122.243 68.378C120.396 66.3955 120.301 63.4814 120.301 63.4814C120.301 63.4814 123.199 63.7819 125.046 65.7644Z" fill="#E6E6E6"/>
<path id="Path 777" d="M130.86 68.8594C128.878 70.707 125.965 70.8025 125.965 70.8025C125.965 70.8025 126.266 67.9024 128.247 66.0549C130.229 64.2073 133.141 64.1118 133.141 64.1118C133.141 64.1118 132.841 67.0118 130.86 68.8594Z" fill="#E6E6E6"/>
<path id="Path 778" d="M130.367 74.7437H123.079C122.939 74.7438 122.802 74.7044 122.683 74.6302C122.565 74.556 122.469 74.4499 122.408 74.3241L120.821 71.0604C120.766 70.9467 120.74 70.8207 120.747 70.6944C120.754 70.5681 120.792 70.4456 120.86 70.3383C120.927 70.2311 121.02 70.1427 121.13 70.0815C121.241 70.0202 121.365 69.9882 121.492 69.9883H131.954C132.08 69.9882 132.205 70.0202 132.315 70.0815C132.426 70.1427 132.519 70.2311 132.586 70.3383C132.653 70.4456 132.692 70.5681 132.699 70.6944C132.705 70.8207 132.68 70.9467 132.624 71.0604L131.038 74.324C130.976 74.4498 130.881 74.5559 130.763 74.6301C130.644 74.7043 130.507 74.7436 130.367 74.7436L130.367 74.7437Z" fill="#E5E5E5"/>
</g>
<defs>
<clipPath id="clip0_370_1023">
<rect width="139" height="75" fill="white"/>
</clipPath>
</defs>
</svg>
