<svg width="80" height="62" viewBox="0 0 80 62" fill="none" xmlns="http://www.w3.org/2000/svg">
<g id="Group">
<path id="Vector" d="M6.48462 53.6337H14.8096V61.984H6.48743V53.6309L6.48462 53.6337Z" fill="url(#paint0_linear_107_967)"/>
<path id="Vector_2" d="M6.48462 53.6337H14.8096V61.984H6.48743V53.6309L6.48462 53.6337Z" fill="url(#paint1_linear_107_967)"/>
<path id="Vector_3" d="M65.1956 53.6338H73.6556V61.9841H65.1956V53.6338Z" fill="url(#paint2_linear_107_967)"/>
<path id="Vector_4" d="M65.1956 53.6338H73.6556V61.9841H65.1956V53.6338Z" fill="url(#paint3_linear_107_967)"/>
<path id="Vector_5" d="M0.859619 36.6519C0.859619 36.54 0.904067 36.4327 0.983184 36.3535C1.0623 36.2744 1.16961 36.23 1.28149 36.23H78.704C78.8159 36.23 78.9232 36.2744 79.0023 36.3535C79.0814 36.4327 79.1259 36.54 79.1259 36.6519V55.8387C79.1259 55.9506 79.0814 56.0579 79.0023 56.137C78.9232 56.2162 78.8159 56.2606 78.704 56.2606H1.28431C1.17242 56.2606 1.06511 56.2162 0.985996 56.137C0.906879 56.0579 0.862432 55.9506 0.862432 55.8387V36.6519H0.859619Z" fill="#7FD8D8"/>
<path id="Vector_6" d="M0.859619 36.6519C0.859619 36.54 0.904067 36.4327 0.983184 36.3535C1.0623 36.2744 1.16961 36.23 1.28149 36.23H78.704C78.8159 36.23 78.9232 36.2744 79.0023 36.3535C79.0814 36.4327 79.1259 36.54 79.1259 36.6519V55.8387C79.1259 55.9506 79.0814 56.0579 79.0023 56.137C78.9232 56.2162 78.8159 56.2606 78.704 56.2606H1.28431C1.17242 56.2606 1.06511 56.2162 0.985996 56.137C0.906879 56.0579 0.862432 55.9506 0.862432 55.8387V36.6519H0.859619Z" fill="url(#paint4_linear_107_967)"/>
<path id="Vector_7" d="M0.859619 36.6519C0.859619 36.54 0.904067 36.4327 0.983184 36.3535C1.0623 36.2744 1.16961 36.23 1.28149 36.23H78.704C78.8159 36.23 78.9232 36.2744 79.0023 36.3535C79.0814 36.4327 79.1259 36.54 79.1259 36.6519V55.8387C79.1259 55.9506 79.0814 56.0579 79.0023 56.137C78.9232 56.2162 78.8159 56.2606 78.704 56.2606H1.28431C1.17242 56.2606 1.06511 56.2162 0.985996 56.137C0.906879 56.0579 0.862432 55.9506 0.862432 55.8387V36.6519H0.859619Z" fill="url(#paint5_linear_107_967)"/>
<path id="Vector_8" d="M0.859619 36.6519C0.859619 36.54 0.904067 36.4327 0.983184 36.3535C1.0623 36.2744 1.16961 36.23 1.28149 36.23H78.704C78.8159 36.23 78.9232 36.2744 79.0023 36.3535C79.0814 36.4327 79.1259 36.54 79.1259 36.6519V55.8387C79.1259 55.9506 79.0814 56.0579 79.0023 56.137C78.9232 56.2162 78.8159 56.2606 78.704 56.2606H1.28431C1.17242 56.2606 1.06511 56.2162 0.985996 56.137C0.906879 56.0579 0.862432 55.9506 0.862432 55.8387V36.6519H0.859619Z" fill="url(#paint6_linear_107_967)"/>
<path id="Vector_9" d="M0.859619 36.6519C0.859619 36.54 0.904067 36.4327 0.983184 36.3535C1.0623 36.2744 1.16961 36.23 1.28149 36.23H78.704C78.8159 36.23 78.9232 36.2744 79.0023 36.3535C79.0814 36.4327 79.1259 36.54 79.1259 36.6519V55.8387C79.1259 55.9506 79.0814 56.0579 79.0023 56.137C78.9232 56.2162 78.8159 56.2606 78.704 56.2606H1.28431C1.17242 56.2606 1.06511 56.2162 0.985996 56.137C0.906879 56.0579 0.862432 55.9506 0.862432 55.8387V36.6519H0.859619Z" fill="#7FD8D8"/>
<g id="Group_2" filter="url(#filter0_i_107_967)">
<path id="Vector_10" d="M9.07495 26.853C9.07495 26.2343 9.5812 25.728 10.2 25.728H32.4553V36.2299H10.2028C9.9044 36.2299 9.61825 36.1114 9.40727 35.9004C9.19629 35.6894 9.07776 35.4033 9.07776 35.1049L9.07495 26.853Z" fill="url(#paint7_linear_107_967)"/>
<path id="Vector_11" d="M9.07495 26.853C9.07495 26.2343 9.5812 25.728 10.2 25.728H32.4553V36.2299H10.2028C9.9044 36.2299 9.61825 36.1114 9.40727 35.9004C9.19629 35.6894 9.07776 35.4033 9.07776 35.1049L9.07495 26.853Z" fill="url(#paint8_linear_107_967)"/>
</g>
<g id="Group_3" filter="url(#filter1_i_107_967)">
<path id="Vector_12" d="M9.07495 19.1638C9.07495 18.1195 9.48979 17.118 10.2282 16.3796C10.9666 15.6412 11.9682 15.2263 13.0125 15.2263H32.4553V25.7282H10.2028C9.9044 25.7282 9.61825 25.6097 9.40727 25.3987C9.19629 25.1877 9.07776 24.9016 9.07776 24.6032L9.07495 19.1638Z" fill="#7FD8D8"/>
<path id="Vector_13" d="M9.07495 19.1638C9.07495 18.1195 9.48979 17.118 10.2282 16.3796C10.9666 15.6412 11.9682 15.2263 13.0125 15.2263H32.4553V25.7282H10.2028C9.9044 25.7282 9.61825 25.6097 9.40727 25.3987C9.19629 25.1877 9.07776 24.9016 9.07776 24.6032L9.07495 19.1638Z" fill="url(#paint9_linear_107_967)"/>
</g>
<path id="Vector_14" d="M0.859619 10.0624C0.859619 8.97264 1.29254 7.92748 2.06314 7.15688C2.83373 6.38629 3.87889 5.95337 4.96868 5.95337C6.05847 5.95337 7.10363 6.38629 7.87423 7.15688C8.64483 7.92748 9.07774 8.97264 9.07774 10.0624V36.2299H1.14087C1.10394 36.2299 1.06736 36.2227 1.03324 36.2085C0.999117 36.1944 0.968112 36.1737 0.941996 36.1476C0.915879 36.1214 0.895163 36.0904 0.881029 36.0563C0.866894 36.0222 0.859619 35.9856 0.859619 35.9487V10.0624Z" fill="#7FD8D8"/>
<path id="Vector_15" d="M0.859619 10.0624C0.859619 8.97264 1.29254 7.92748 2.06314 7.15688C2.83373 6.38629 3.87889 5.95337 4.96868 5.95337C6.05847 5.95337 7.10363 6.38629 7.87423 7.15688C8.64483 7.92748 9.07774 8.97264 9.07774 10.0624V36.2299H1.14087C1.10394 36.2299 1.06736 36.2227 1.03324 36.2085C0.999117 36.1944 0.968112 36.1737 0.941996 36.1476C0.915879 36.1214 0.895163 36.0904 0.881029 36.0563C0.866894 36.0222 0.859619 35.9856 0.859619 35.9487V10.0624Z" fill="url(#paint10_linear_107_967)"/>
<g id="Group_4" filter="url(#filter2_f_107_967)">
<path id="Vector_16" d="M28.1494 17.7744H68.7844C70.0007 17.7711 71.2057 18.0074 72.3306 18.4697C73.4555 18.9321 74.4784 19.6115 75.3408 20.4692C76.2031 21.3269 76.8881 22.346 77.3566 23.4684C77.8251 24.5908 78.068 25.7945 78.0713 27.0107V41.0648C78.0709 41.1689 78.0501 41.272 78.0099 41.3681C77.9697 41.4642 77.9109 41.5514 77.837 41.6248C77.7631 41.6982 77.6755 41.7563 77.5791 41.7958C77.4827 41.8353 77.3795 41.8554 77.2754 41.8551H28.1494C28.0106 41.8554 27.873 41.8285 27.7445 41.7757C27.6161 41.7229 27.4993 41.6453 27.4008 41.5473C27.3024 41.4494 27.2242 41.333 27.1707 41.2049C27.1172 41.0767 27.0895 40.9393 27.0891 40.8004L28.1494 17.7744Z" fill="#7FD8D8"/>
</g>
<g id="Group_5" filter="url(#filter3_f_107_967)">
<path id="Vector_17" d="M16.7053 6.54681C17.1468 5.87462 18.1987 4.97181 19.7371 5.25587C20.9971 5.49212 22.0125 6.40337 22.1278 7.66056C22.7803 7.68025 23.9334 7.93619 25.4437 8.94587C25.9162 9.26369 26.4618 9.63493 27.0356 10.0427C27.3711 10.1219 27.7187 10.1353 28.0593 10.0821C28.8187 9.9415 29.4262 10.1834 29.699 10.6671C29.9156 11.0496 29.7637 11.5193 29.429 11.8624C30.7959 12.9987 30.2362 16.174 30.7875 17.2906C31.8 19.3493 29.6203 22.6427 23.9756 22.1674C23.79 22.5387 23.5762 22.9634 23.3203 23.4499C22.8928 24.2656 22.1981 24.6509 21.6187 24.4793C20.9409 24.274 20.5331 23.6299 20.7384 22.9493L20.7778 22.8143C19.7878 22.9184 17.3043 22.8087 14.1768 20.4884C10.7793 17.9712 13.9462 16.4159 14.1768 15.3415L15.6675 14.6749C15.9037 13.5865 12.3121 12.5431 14.115 10.9287C15.1134 10.0343 15.3609 9.39587 15.6703 8.60556C15.8868 8.04306 16.1371 7.40743 16.7053 6.54681Z" fill="#7FD8D8"/>
</g>
<path id="Vector_18" d="M26.217 13.9072H69.282C71.8928 13.9072 74.3966 14.9443 76.2426 16.7904C78.0887 18.6365 79.1258 21.1403 79.1258 23.751V38.7275C79.1258 38.9513 79.0369 39.1659 78.8787 39.3242C78.7204 39.4824 78.5058 39.5713 78.282 39.5713H27.342C27.0437 39.5713 26.7575 39.4528 26.5465 39.2418C26.3356 39.0308 26.217 38.7447 26.217 38.4463V13.9072Z" fill="url(#paint11_linear_107_967)"/>
<path id="Vector_19" d="M26.217 13.9072H69.282C71.8928 13.9072 74.3966 14.9443 76.2426 16.7904C78.0887 18.6365 79.1258 21.1403 79.1258 23.751V38.7275C79.1258 38.9513 79.0369 39.1659 78.8787 39.3242C78.7204 39.4824 78.5058 39.5713 78.282 39.5713H27.342C27.0437 39.5713 26.7575 39.4528 26.5465 39.2418C26.3356 39.0308 26.217 38.7447 26.217 38.4463V13.9072Z" fill="url(#paint12_linear_107_967)"/>
<path id="Vector_20" d="M26.217 13.9072H69.282C71.8928 13.9072 74.3966 14.9443 76.2426 16.7904C78.0887 18.6365 79.1258 21.1403 79.1258 23.751V38.7275C79.1258 38.9513 79.0369 39.1659 78.8787 39.3242C78.7204 39.4824 78.5058 39.5713 78.282 39.5713H27.342C27.0437 39.5713 26.7575 39.4528 26.5465 39.2418C26.3356 39.0308 26.217 38.7447 26.217 38.4463V13.9072Z" fill="url(#paint13_linear_107_967)"/>
<path id="Vector_21" d="M26.217 13.9072H69.282C71.8928 13.9072 74.3966 14.9443 76.2426 16.7904C78.0887 18.6365 79.1258 21.1403 79.1258 23.751V38.7275C79.1258 38.9513 79.0369 39.1659 78.8787 39.3242C78.7204 39.4824 78.5058 39.5713 78.282 39.5713H27.342C27.0437 39.5713 26.7575 39.4528 26.5465 39.2418C26.3356 39.0308 26.217 38.7447 26.217 38.4463V13.9072Z" fill="url(#paint14_linear_107_967)"/>
<path id="Vector_22" d="M26.217 13.9072H69.282C71.8928 13.9072 74.3966 14.9443 76.2426 16.7904C78.0887 18.6365 79.1258 21.1403 79.1258 23.751V38.7275C79.1258 38.9513 79.0369 39.1659 78.8787 39.3242C78.7204 39.4824 78.5058 39.5713 78.282 39.5713H27.342C27.0437 39.5713 26.7575 39.4528 26.5465 39.2418C26.3356 39.0308 26.217 38.7447 26.217 38.4463V13.9072Z" fill="url(#paint15_linear_107_967)"/>
<path id="Vector_23" d="M26.217 13.9072H69.282C71.8928 13.9072 74.3966 14.9443 76.2426 16.7904C78.0887 18.6365 79.1258 21.1403 79.1258 23.751V38.7275C79.1258 38.9513 79.0369 39.1659 78.8787 39.3242C78.7204 39.4824 78.5058 39.5713 78.282 39.5713H27.342C27.0437 39.5713 26.7575 39.4528 26.5465 39.2418C26.3356 39.0308 26.217 38.7447 26.217 38.4463V13.9072Z" fill="url(#paint16_radial_107_967)"/>
<g id="Group_6" filter="url(#filter4_f_107_967)">
<path id="Vector_24" d="M28.678 17.5635H69.282V15.876H28.678V17.5635ZM75.4695 23.751V37.9879H77.157V23.751H75.4695ZM69.282 17.5635C70.9231 17.5635 72.4969 18.2154 73.6573 19.3758C74.8176 20.5361 75.4695 22.11 75.4695 23.751H77.157C77.157 22.7168 76.9534 21.6928 76.5576 20.7373C76.1618 19.7819 75.5818 18.9138 74.8505 18.1825C74.1192 17.4512 73.2511 16.8712 72.2957 16.4754C71.3402 16.0797 70.3162 15.876 69.282 15.876V17.5635Z" fill="url(#paint17_radial_107_967)"/>
</g>
<path id="Vector_25" d="M27.6881 5.87181C27.139 5.95032 26.5789 5.88141 26.0653 5.67212L25.7334 6.12212L28.5459 8.20618C29.2884 7.92493 29.8031 7.11493 29.46 6.50743C29.1646 5.98431 28.5093 5.72556 27.6881 5.87462V5.87181Z" fill="url(#paint18_radial_107_967)"/>
<g id="Group_7" filter="url(#filter5_i_107_967)">
<path id="Vector_26" d="M24.8614 4.64833C22.7858 3.25896 21.3374 3.19146 20.8283 3.28708L13.8955 12.6358L21.6946 18.6602C28.6133 20.4265 33.7518 13.969 32.5649 11.5558C31.378 9.14552 27.2661 6.25708 24.8614 4.64833Z" fill="url(#paint19_linear_107_967)"/>
<path id="Vector_27" d="M24.8614 4.64833C22.7858 3.25896 21.3374 3.19146 20.8283 3.28708L13.8955 12.6358L21.6946 18.6602C28.6133 20.4265 33.7518 13.969 32.5649 11.5558C31.378 9.14552 27.2661 6.25708 24.8614 4.64833Z" fill="url(#paint20_radial_107_967)"/>
</g>
<g id="Group_8" filter="url(#filter6_i_107_967)">
<path id="Vector_28" d="M18.6938 0.660297C17.0344 0.350922 15.901 1.32967 15.4228 2.0553C13.9435 4.29405 14.4666 5.1378 12.6244 6.78873C10.6753 8.53248 10.0453 9.6378 9.7922 10.8134L9.78658 10.8359C9.53626 11.9975 9.01876 14.3965 12.6891 17.1162C16.0697 19.625 18.75 19.7403 19.8216 19.6306L19.7794 19.774C19.5572 20.5109 19.996 21.2084 20.73 21.4278C21.3572 21.6134 22.1081 21.1972 22.5694 20.3169C22.9774 19.5394 23.3693 18.7536 23.745 17.96C23.8211 17.7983 23.8389 17.6153 23.7953 17.442C23.7517 17.2687 23.6495 17.1158 23.506 17.0094L20.7216 14.945C20.3061 14.628 19.9781 14.2105 19.7685 13.7317C19.5589 13.253 19.4746 12.7287 19.5235 12.2084C18.3422 11.269 18.061 10.4844 18.2185 9.6603C18.4772 8.29623 18.9497 8.16123 20.581 5.65248C22.2291 3.12686 20.7722 1.04842 18.6966 0.660297H18.6938Z" fill="#FFBA23"/>
<path id="Vector_29" d="M18.6938 0.660297C17.0344 0.350922 15.901 1.32967 15.4228 2.0553C13.9435 4.29405 14.4666 5.1378 12.6244 6.78873C10.6753 8.53248 10.0453 9.6378 9.7922 10.8134L9.78658 10.8359C9.53626 11.9975 9.01876 14.3965 12.6891 17.1162C16.0697 19.625 18.75 19.7403 19.8216 19.6306L19.7794 19.774C19.5572 20.5109 19.996 21.2084 20.73 21.4278C21.3572 21.6134 22.1081 21.1972 22.5694 20.3169C22.9774 19.5394 23.3693 18.7536 23.745 17.96C23.8211 17.7983 23.8389 17.6153 23.7953 17.442C23.7517 17.2687 23.6495 17.1158 23.506 17.0094L20.7216 14.945C20.3061 14.628 19.9781 14.2105 19.7685 13.7317C19.5589 13.253 19.4746 12.7287 19.5235 12.2084C18.3422 11.269 18.061 10.4844 18.2185 9.6603C18.4772 8.29623 18.9497 8.16123 20.581 5.65248C22.2291 3.12686 20.7722 1.04842 18.6966 0.660297H18.6938Z" fill="url(#paint21_radial_107_967)"/>
<path id="Vector_30" d="M18.6938 0.660297C17.0344 0.350922 15.901 1.32967 15.4228 2.0553C13.9435 4.29405 14.4666 5.1378 12.6244 6.78873C10.6753 8.53248 10.0453 9.6378 9.7922 10.8134L9.78658 10.8359C9.53626 11.9975 9.01876 14.3965 12.6891 17.1162C16.0697 19.625 18.75 19.7403 19.8216 19.6306L19.7794 19.774C19.5572 20.5109 19.996 21.2084 20.73 21.4278C21.3572 21.6134 22.1081 21.1972 22.5694 20.3169C22.9774 19.5394 23.3693 18.7536 23.745 17.96C23.8211 17.7983 23.8389 17.6153 23.7953 17.442C23.7517 17.2687 23.6495 17.1158 23.506 17.0094L20.7216 14.945C20.3061 14.628 19.9781 14.2105 19.7685 13.7317C19.5589 13.253 19.4746 12.7287 19.5235 12.2084C18.3422 11.269 18.061 10.4844 18.2185 9.6603C18.4772 8.29623 18.9497 8.16123 20.581 5.65248C22.2291 3.12686 20.7722 1.04842 18.6966 0.660297H18.6938Z" fill="url(#paint22_radial_107_967)"/>
<path id="Vector_31" d="M18.6938 0.660297C17.0344 0.350922 15.901 1.32967 15.4228 2.0553C13.9435 4.29405 14.4666 5.1378 12.6244 6.78873C10.6753 8.53248 10.0453 9.6378 9.7922 10.8134L9.78658 10.8359C9.53626 11.9975 9.01876 14.3965 12.6891 17.1162C16.0697 19.625 18.75 19.7403 19.8216 19.6306L19.7794 19.774C19.5572 20.5109 19.996 21.2084 20.73 21.4278C21.3572 21.6134 22.1081 21.1972 22.5694 20.3169C22.9774 19.5394 23.3693 18.7536 23.745 17.96C23.8211 17.7983 23.8389 17.6153 23.7953 17.442C23.7517 17.2687 23.6495 17.1158 23.506 17.0094L20.7216 14.945C20.3061 14.628 19.9781 14.2105 19.7685 13.7317C19.5589 13.253 19.4746 12.7287 19.5235 12.2084C18.3422 11.269 18.061 10.4844 18.2185 9.6603C18.4772 8.29623 18.9497 8.16123 20.581 5.65248C22.2291 3.12686 20.7722 1.04842 18.6966 0.660297H18.6938Z" fill="url(#paint23_radial_107_967)"/>
<path id="Vector_32" d="M18.6938 0.660297C17.0344 0.350922 15.901 1.32967 15.4228 2.0553C13.9435 4.29405 14.4666 5.1378 12.6244 6.78873C10.6753 8.53248 10.0453 9.6378 9.7922 10.8134L9.78658 10.8359C9.53626 11.9975 9.01876 14.3965 12.6891 17.1162C16.0697 19.625 18.75 19.7403 19.8216 19.6306L19.7794 19.774C19.5572 20.5109 19.996 21.2084 20.73 21.4278C21.3572 21.6134 22.1081 21.1972 22.5694 20.3169C22.9774 19.5394 23.3693 18.7536 23.745 17.96C23.8211 17.7983 23.8389 17.6153 23.7953 17.442C23.7517 17.2687 23.6495 17.1158 23.506 17.0094L20.7216 14.945C20.3061 14.628 19.9781 14.2105 19.7685 13.7317C19.5589 13.253 19.4746 12.7287 19.5235 12.2084C18.3422 11.269 18.061 10.4844 18.2185 9.6603C18.4772 8.29623 18.9497 8.16123 20.581 5.65248C22.2291 3.12686 20.7722 1.04842 18.6966 0.660297H18.6938Z" fill="url(#paint24_radial_107_967)"/>
<path id="Vector_33" d="M18.6938 0.660297C17.0344 0.350922 15.901 1.32967 15.4228 2.0553C13.9435 4.29405 14.4666 5.1378 12.6244 6.78873C10.6753 8.53248 10.0453 9.6378 9.7922 10.8134L9.78658 10.8359C9.53626 11.9975 9.01876 14.3965 12.6891 17.1162C16.0697 19.625 18.75 19.7403 19.8216 19.6306L19.7794 19.774C19.5572 20.5109 19.996 21.2084 20.73 21.4278C21.3572 21.6134 22.1081 21.1972 22.5694 20.3169C22.9774 19.5394 23.3693 18.7536 23.745 17.96C23.8211 17.7983 23.8389 17.6153 23.7953 17.442C23.7517 17.2687 23.6495 17.1158 23.506 17.0094L20.7216 14.945C20.3061 14.628 19.9781 14.2105 19.7685 13.7317C19.5589 13.253 19.4746 12.7287 19.5235 12.2084C18.3422 11.269 18.061 10.4844 18.2185 9.6603C18.4772 8.29623 18.9497 8.16123 20.581 5.65248C22.2291 3.12686 20.7722 1.04842 18.6966 0.660297H18.6938Z" fill="url(#paint25_radial_107_967)"/>
</g>
<g id="Group_9" filter="url(#filter7_i_107_967)">
<path id="Vector_34" d="M18.6938 0.660297C17.0344 0.350922 15.901 1.32967 15.4228 2.0553C13.9435 4.29405 14.4666 5.1378 12.6244 6.78873C10.6753 8.53248 10.0453 9.6378 9.7922 10.8134L9.78658 10.8359C9.53626 11.9975 9.01876 14.3965 12.6891 17.1162C16.0697 19.625 18.75 19.7403 19.8216 19.6306L19.7794 19.774C19.5572 20.5109 19.996 21.2084 20.73 21.4278C21.3572 21.6134 22.1081 21.1972 22.5694 20.3169C22.9774 19.5394 23.3693 18.7536 23.745 17.96C23.8211 17.7983 23.8389 17.6153 23.7953 17.442C23.7517 17.2687 23.6495 17.1158 23.506 17.0094L20.7216 14.945C20.3061 14.628 19.9781 14.2105 19.7685 13.7317C19.5589 13.253 19.4746 12.7287 19.5235 12.2084C18.3422 11.269 18.061 10.4844 18.2185 9.6603C18.4772 8.29623 18.9497 8.16123 20.581 5.65248C22.2291 3.12686 20.7722 1.04842 18.6966 0.660297H18.6938Z" fill="#FFBA23"/>
<path id="Vector_35" d="M18.6938 0.660297C17.0344 0.350922 15.901 1.32967 15.4228 2.0553C13.9435 4.29405 14.4666 5.1378 12.6244 6.78873C10.6753 8.53248 10.0453 9.6378 9.7922 10.8134L9.78658 10.8359C9.53626 11.9975 9.01876 14.3965 12.6891 17.1162C16.0697 19.625 18.75 19.7403 19.8216 19.6306L19.7794 19.774C19.5572 20.5109 19.996 21.2084 20.73 21.4278C21.3572 21.6134 22.1081 21.1972 22.5694 20.3169C22.9774 19.5394 23.3693 18.7536 23.745 17.96C23.8211 17.7983 23.8389 17.6153 23.7953 17.442C23.7517 17.2687 23.6495 17.1158 23.506 17.0094L20.7216 14.945C20.3061 14.628 19.9781 14.2105 19.7685 13.7317C19.5589 13.253 19.4746 12.7287 19.5235 12.2084C18.3422 11.269 18.061 10.4844 18.2185 9.6603C18.4772 8.29623 18.9497 8.16123 20.581 5.65248C22.2291 3.12686 20.7722 1.04842 18.6966 0.660297H18.6938Z" fill="url(#paint26_radial_107_967)"/>
<path id="Vector_36" d="M18.6938 0.660297C17.0344 0.350922 15.901 1.32967 15.4228 2.0553C13.9435 4.29405 14.4666 5.1378 12.6244 6.78873C10.6753 8.53248 10.0453 9.6378 9.7922 10.8134L9.78658 10.8359C9.53626 11.9975 9.01876 14.3965 12.6891 17.1162C16.0697 19.625 18.75 19.7403 19.8216 19.6306L19.7794 19.774C19.5572 20.5109 19.996 21.2084 20.73 21.4278C21.3572 21.6134 22.1081 21.1972 22.5694 20.3169C22.9774 19.5394 23.3693 18.7536 23.745 17.96C23.8211 17.7983 23.8389 17.6153 23.7953 17.442C23.7517 17.2687 23.6495 17.1158 23.506 17.0094L20.7216 14.945C20.3061 14.628 19.9781 14.2105 19.7685 13.7317C19.5589 13.253 19.4746 12.7287 19.5235 12.2084C18.3422 11.269 18.061 10.4844 18.2185 9.6603C18.4772 8.29623 18.9497 8.16123 20.581 5.65248C22.2291 3.12686 20.7722 1.04842 18.6966 0.660297H18.6938Z" fill="url(#paint27_radial_107_967)"/>
<path id="Vector_37" d="M18.6938 0.660297C17.0344 0.350922 15.901 1.32967 15.4228 2.0553C13.9435 4.29405 14.4666 5.1378 12.6244 6.78873C10.6753 8.53248 10.0453 9.6378 9.7922 10.8134L9.78658 10.8359C9.53626 11.9975 9.01876 14.3965 12.6891 17.1162C16.0697 19.625 18.75 19.7403 19.8216 19.6306L19.7794 19.774C19.5572 20.5109 19.996 21.2084 20.73 21.4278C21.3572 21.6134 22.1081 21.1972 22.5694 20.3169C22.9774 19.5394 23.3693 18.7536 23.745 17.96C23.8211 17.7983 23.8389 17.6153 23.7953 17.442C23.7517 17.2687 23.6495 17.1158 23.506 17.0094L20.7216 14.945C20.3061 14.628 19.9781 14.2105 19.7685 13.7317C19.5589 13.253 19.4746 12.7287 19.5235 12.2084C18.3422 11.269 18.061 10.4844 18.2185 9.6603C18.4772 8.29623 18.9497 8.16123 20.581 5.65248C22.2291 3.12686 20.7722 1.04842 18.6966 0.660297H18.6938Z" fill="url(#paint28_radial_107_967)"/>
<path id="Vector_38" d="M18.6938 0.660297C17.0344 0.350922 15.901 1.32967 15.4228 2.0553C13.9435 4.29405 14.4666 5.1378 12.6244 6.78873C10.6753 8.53248 10.0453 9.6378 9.7922 10.8134L9.78658 10.8359C9.53626 11.9975 9.01876 14.3965 12.6891 17.1162C16.0697 19.625 18.75 19.7403 19.8216 19.6306L19.7794 19.774C19.5572 20.5109 19.996 21.2084 20.73 21.4278C21.3572 21.6134 22.1081 21.1972 22.5694 20.3169C22.9774 19.5394 23.3693 18.7536 23.745 17.96C23.8211 17.7983 23.8389 17.6153 23.7953 17.442C23.7517 17.2687 23.6495 17.1158 23.506 17.0094L20.7216 14.945C20.3061 14.628 19.9781 14.2105 19.7685 13.7317C19.5589 13.253 19.4746 12.7287 19.5235 12.2084C18.3422 11.269 18.061 10.4844 18.2185 9.6603C18.4772 8.29623 18.9497 8.16123 20.581 5.65248C22.2291 3.12686 20.7722 1.04842 18.6966 0.660297H18.6938Z" fill="url(#paint29_radial_107_967)"/>
<path id="Vector_39" d="M18.6938 0.660297C17.0344 0.350922 15.901 1.32967 15.4228 2.0553C13.9435 4.29405 14.4666 5.1378 12.6244 6.78873C10.6753 8.53248 10.0453 9.6378 9.7922 10.8134L9.78658 10.8359C9.53626 11.9975 9.01876 14.3965 12.6891 17.1162C16.0697 19.625 18.75 19.7403 19.8216 19.6306L19.7794 19.774C19.5572 20.5109 19.996 21.2084 20.73 21.4278C21.3572 21.6134 22.1081 21.1972 22.5694 20.3169C22.9774 19.5394 23.3693 18.7536 23.745 17.96C23.8211 17.7983 23.8389 17.6153 23.7953 17.442C23.7517 17.2687 23.6495 17.1158 23.506 17.0094L20.7216 14.945C20.3061 14.628 19.9781 14.2105 19.7685 13.7317C19.5589 13.253 19.4746 12.7287 19.5235 12.2084C18.3422 11.269 18.061 10.4844 18.2185 9.6603C18.4772 8.29623 18.9497 8.16123 20.581 5.65248C22.2291 3.12686 20.7722 1.04842 18.6966 0.660297H18.6938Z" fill="url(#paint30_radial_107_967)"/>
</g>
<path id="Vector_40" d="M23.354 14.2842L19.3828 12.1157C19.1225 12.6399 19.0752 13.2445 19.251 13.8027C19.4268 14.3609 19.8119 14.8294 20.3255 15.1098C20.8392 15.3903 21.4415 15.461 22.0061 15.307C22.5707 15.1531 23.0538 14.7865 23.354 14.2842Z" fill="url(#paint31_radial_107_967)"/>
<path id="Vector_41" fill-rule="evenodd" clip-rule="evenodd" d="M27.3083 11.3226C27.3162 11.3733 27.334 11.4219 27.3608 11.4657C27.3876 11.5095 27.4228 11.5475 27.4644 11.5776C27.506 11.6077 27.5531 11.6292 27.6031 11.641C27.6531 11.6527 27.7049 11.6544 27.7555 11.646C28.7821 11.4829 29.5696 10.7291 29.8002 10.476C29.8406 10.4395 29.873 10.395 29.8953 10.3453C29.9175 10.2955 29.9291 10.2417 29.9294 10.1872C29.9296 10.1328 29.9184 10.0789 29.8966 10.0289C29.8748 9.97904 29.8427 9.93424 29.8026 9.89743C29.7624 9.86062 29.715 9.83261 29.6634 9.8152C29.6118 9.79778 29.5571 9.79134 29.5029 9.7963C29.4486 9.80125 29.396 9.81749 29.3484 9.84397C29.3008 9.87044 29.2593 9.90658 29.2264 9.95005C29.0296 10.1694 28.3911 10.7544 27.6317 10.8754C27.5296 10.8919 27.4383 10.9483 27.3776 11.0321C27.317 11.116 27.2921 11.2204 27.3083 11.3226Z" fill="#87014D"/>
<g id="Group_10" filter="url(#filter8_i_107_967)">
<path id="Vector_42" fill-rule="evenodd" clip-rule="evenodd" d="M22.3697 6.75771C22.4638 6.5501 22.5869 6.35692 22.7353 6.18396C22.7778 6.13964 22.8111 6.08739 22.8334 6.03019C22.8557 5.97298 22.8665 5.91196 22.8652 5.85058C22.8639 5.78921 22.8505 5.72869 22.8258 5.67249C22.8011 5.61629 22.7656 5.5655 22.7213 5.52303C22.6769 5.48055 22.6247 5.44722 22.5675 5.42494C22.5103 5.40266 22.4493 5.39187 22.3879 5.39317C22.3265 5.39448 22.266 5.40786 22.2098 5.43255C22.1536 5.45725 22.1028 5.49277 22.0603 5.53709C21.8422 5.78259 21.662 6.05941 21.526 6.35834C21.3516 6.72396 21.2025 7.19365 21.1997 7.70271C21.1997 7.82691 21.249 7.94602 21.3369 8.03384C21.4247 8.12166 21.5438 8.17099 21.668 8.17099C21.7922 8.17099 21.9113 8.12166 21.9991 8.03384C22.0869 7.94602 22.1363 7.82691 22.1363 7.70271C22.1363 7.37365 22.2375 7.04178 22.3697 6.75771Z" fill="#AF5247"/>
</g>
<g id="Group_11" filter="url(#filter9_i_107_967)">
<path id="Vector_43" d="M24.0374 8.75473C24.3017 8.67316 24.7602 8.60566 25.1595 8.0741C25.452 7.68035 25.3958 7.19098 25.3339 6.87598" stroke="#A03C29" stroke-width="0.35" stroke-linecap="round"/>
</g>
<g id="Group_12" filter="url(#filter10_f_107_967)">
<path id="Vector_44" d="M24.2146 8.65621C24.4762 8.57746 24.9374 8.50715 25.334 7.97559C25.6293 7.58465 25.573 7.09527 25.5112 6.78027" stroke="#B2685E" stroke-width="0.1" stroke-linecap="round"/>
</g>
</g>
<defs>
<filter id="filter0_i_107_967" x="9.07495" y="25.728" width="23.3804" height="10.502" filterUnits="userSpaceOnUse" color-interpolation-filters="sRGB">
<feFlood flood-opacity="0" result="BackgroundImageFix"/>
<feBlend mode="normal" in="SourceGraphic" in2="BackgroundImageFix" result="shape"/>
<feColorMatrix in="SourceAlpha" type="matrix" values="0 0 0 0 0 0 0 0 0 0 0 0 0 0 0 0 0 0 127 0" result="hardAlpha"/>
<feOffset/>
<feGaussianBlur stdDeviation="0.375"/>
<feComposite in2="hardAlpha" operator="arithmetic" k2="-1" k3="1"/>
<feColorMatrix type="matrix" values="0 0 0 0 0.368627 0 0 0 0 0.376471 0 0 0 0 0.662745 0 0 0 1 0"/>
<feBlend mode="normal" in2="shape" result="effect1_innerShadow_107_967"/>
</filter>
<filter id="filter1_i_107_967" x="9.07495" y="15.2263" width="23.3804" height="10.502" filterUnits="userSpaceOnUse" color-interpolation-filters="sRGB">
<feFlood flood-opacity="0" result="BackgroundImageFix"/>
<feBlend mode="normal" in="SourceGraphic" in2="BackgroundImageFix" result="shape"/>
<feColorMatrix in="SourceAlpha" type="matrix" values="0 0 0 0 0 0 0 0 0 0 0 0 0 0 0 0 0 0 127 0" result="hardAlpha"/>
<feOffset/>
<feGaussianBlur stdDeviation="0.25"/>
<feComposite in2="hardAlpha" operator="arithmetic" k2="-1" k3="1"/>
<feColorMatrix type="matrix" values="0 0 0 0 0.14902 0 0 0 0 0.266667 0 0 0 0 0.643137 0 0 0 1 0"/>
<feBlend mode="normal" in2="shape" result="effect1_innerShadow_107_967"/>
</filter>
<filter id="filter2_f_107_967" x="26.5891" y="17.2744" width="51.9822" height="25.0806" filterUnits="userSpaceOnUse" color-interpolation-filters="sRGB">
<feFlood flood-opacity="0" result="BackgroundImageFix"/>
<feBlend mode="normal" in="SourceGraphic" in2="BackgroundImageFix" result="shape"/>
<feGaussianBlur stdDeviation="0.25" result="effect1_foregroundBlur_107_967"/>
</filter>
<filter id="filter3_f_107_967" x="11.6143" y="4.20215" width="20.4131" height="21.3174" filterUnits="userSpaceOnUse" color-interpolation-filters="sRGB">
<feFlood flood-opacity="0" result="BackgroundImageFix"/>
<feBlend mode="normal" in="SourceGraphic" in2="BackgroundImageFix" result="shape"/>
<feGaussianBlur stdDeviation="0.5" result="effect1_foregroundBlur_107_967"/>
</filter>
<filter id="filter4_f_107_967" x="27.928" y="15.126" width="49.979" height="23.6118" filterUnits="userSpaceOnUse" color-interpolation-filters="sRGB">
<feFlood flood-opacity="0" result="BackgroundImageFix"/>
<feBlend mode="normal" in="SourceGraphic" in2="BackgroundImageFix" result="shape"/>
<feGaussianBlur stdDeviation="0.375" result="effect1_foregroundBlur_107_967"/>
</filter>
<filter id="filter5_i_107_967" x="13.8955" y="3.05806" width="19.0903" height="15.9041" filterUnits="userSpaceOnUse" color-interpolation-filters="sRGB">
<feFlood flood-opacity="0" result="BackgroundImageFix"/>
<feBlend mode="normal" in="SourceGraphic" in2="BackgroundImageFix" result="shape"/>
<feColorMatrix in="SourceAlpha" type="matrix" values="0 0 0 0 0 0 0 0 0 0 0 0 0 0 0 0 0 0 127 0" result="hardAlpha"/>
<feOffset dx="0.25" dy="-0.2"/>
<feGaussianBlur stdDeviation="0.5"/>
<feComposite in2="hardAlpha" operator="arithmetic" k2="-1" k3="1"/>
<feColorMatrix type="matrix" values="0 0 0 0 0.94902 0 0 0 0 0.533333 0 0 0 0 0.215686 0 0 0 1 0"/>
<feBlend mode="normal" in2="shape" result="effect1_innerShadow_107_967"/>
</filter>
<filter id="filter6_i_107_967" x="9.60938" y="0.451562" width="14.2092" height="21.0196" filterUnits="userSpaceOnUse" color-interpolation-filters="sRGB">
<feFlood flood-opacity="0" result="BackgroundImageFix"/>
<feBlend mode="normal" in="SourceGraphic" in2="BackgroundImageFix" result="shape"/>
<feColorMatrix in="SourceAlpha" type="matrix" values="0 0 0 0 0 0 0 0 0 0 0 0 0 0 0 0 0 0 127 0" result="hardAlpha"/>
<feOffset dy="-0.15"/>
<feGaussianBlur stdDeviation="0.15"/>
<feComposite in2="hardAlpha" operator="arithmetic" k2="-1" k3="1"/>
<feColorMatrix type="matrix" values="0 0 0 0 1 0 0 0 0 0.607843 0 0 0 0 0.117647 0 0 0 1 0"/>
<feBlend mode="normal" in2="shape" result="effect1_innerShadow_107_967"/>
</filter>
<filter id="filter7_i_107_967" x="9.60938" y="0.601562" width="14.7092" height="21.1196" filterUnits="userSpaceOnUse" color-interpolation-filters="sRGB">
<feFlood flood-opacity="0" result="BackgroundImageFix"/>
<feBlend mode="normal" in="SourceGraphic" in2="BackgroundImageFix" result="shape"/>
<feColorMatrix in="SourceAlpha" type="matrix" values="0 0 0 0 0 0 0 0 0 0 0 0 0 0 0 0 0 0 127 0" result="hardAlpha"/>
<feOffset dx="0.5" dy="0.25"/>
<feGaussianBlur stdDeviation="0.5"/>
<feComposite in2="hardAlpha" operator="arithmetic" k2="-1" k3="1"/>
<feColorMatrix type="matrix" values="0 0 0 0 0.701961 0 0 0 0 0.52549 0 0 0 0 0.184314 0 0 0 1 0"/>
<feBlend mode="normal" in2="shape" result="effect1_innerShadow_107_967"/>
</filter>
<filter id="filter8_i_107_967" x="21.0997" y="5.39307" width="1.76553" height="2.87783" filterUnits="userSpaceOnUse" color-interpolation-filters="sRGB">
<feFlood flood-opacity="0" result="BackgroundImageFix"/>
<feBlend mode="normal" in="SourceGraphic" in2="BackgroundImageFix" result="shape"/>
<feColorMatrix in="SourceAlpha" type="matrix" values="0 0 0 0 0 0 0 0 0 0 0 0 0 0 0 0 0 0 127 0" result="hardAlpha"/>
<feOffset dx="-0.1" dy="0.1"/>
<feGaussianBlur stdDeviation="0.1"/>
<feComposite in2="hardAlpha" operator="arithmetic" k2="-1" k3="1"/>
<feColorMatrix type="matrix" values="0 0 0 0 0.682353 0 0 0 0 0.219608 0 0 0 0 0.133333 0 0 0 1 0"/>
<feBlend mode="normal" in2="shape" result="effect1_innerShadow_107_967"/>
</filter>
<filter id="filter9_i_107_967" x="23.8623" y="6.60093" width="1.79629" height="2.32876" filterUnits="userSpaceOnUse" color-interpolation-filters="sRGB">
<feFlood flood-opacity="0" result="BackgroundImageFix"/>
<feBlend mode="normal" in="SourceGraphic" in2="BackgroundImageFix" result="shape"/>
<feColorMatrix in="SourceAlpha" type="matrix" values="0 0 0 0 0 0 0 0 0 0 0 0 0 0 0 0 0 0 127 0" result="hardAlpha"/>
<feOffset dx="0.1" dy="-0.1"/>
<feGaussianBlur stdDeviation="0.15"/>
<feComposite in2="hardAlpha" operator="arithmetic" k2="-1" k3="1"/>
<feColorMatrix type="matrix" values="0 0 0 0 0.65098 0 0 0 0 0.172549 0 0 0 0 0.176471 0 0 0 1 0"/>
<feBlend mode="normal" in2="shape" result="effect1_innerShadow_107_967"/>
</filter>
<filter id="filter10_f_107_967" x="24.0646" y="6.63022" width="1.64604" height="2.17607" filterUnits="userSpaceOnUse" color-interpolation-filters="sRGB">
<feFlood flood-opacity="0" result="BackgroundImageFix"/>
<feBlend mode="normal" in="SourceGraphic" in2="BackgroundImageFix" result="shape"/>
<feGaussianBlur stdDeviation="0.05" result="effect1_foregroundBlur_107_967"/>
</filter>
<linearGradient id="paint0_linear_107_967" x1="10.6471" y1="55.2143" x2="10.6471" y2="59.9618" gradientUnits="userSpaceOnUse">
<stop stop-color="#5E4AC0"/>
<stop offset="1" stop-color="#7B74D4"/>
</linearGradient>
<linearGradient id="paint1_linear_107_967" x1="5.75899" y1="60.994" x2="7.05556" y2="60.994" gradientUnits="userSpaceOnUse">
<stop stop-color="#5A4EB7"/>
<stop offset="1" stop-color="#5A4EB7" stop-opacity="0"/>
</linearGradient>
<linearGradient id="paint2_linear_107_967" x1="69.4256" y1="55.2144" x2="69.4256" y2="59.9619" gradientUnits="userSpaceOnUse">
<stop stop-color="#5E4AC0"/>
<stop offset="1" stop-color="#7C75D7"/>
</linearGradient>
<linearGradient id="paint3_linear_107_967" x1="64.4587" y1="60.9941" x2="65.7749" y2="60.9941" gradientUnits="userSpaceOnUse">
<stop stop-color="#5A4EB7"/>
<stop offset="1" stop-color="#5A4EB7" stop-opacity="0"/>
</linearGradient>
<linearGradient id="paint4_linear_107_967" x1="0.859619" y1="51.7887" x2="5.78149" y2="51.7887" gradientUnits="userSpaceOnUse">
<stop offset="0.205" stop-color="#3C2C4D"/>
<stop offset="1" stop-color="#3C2C4D" stop-opacity="0"/>
</linearGradient>
<linearGradient id="paint5_linear_107_967" x1="79.1259" y1="51.0856" x2="75.1715" y2="51.0856" gradientUnits="userSpaceOnUse">
<stop offset="0.089" stop-color="#4E3568"/>
<stop offset="1" stop-color="#4E3568" stop-opacity="0"/>
</linearGradient>
<linearGradient id="paint6_linear_107_967" x1="46.2562" y1="56.2606" x2="46.2562" y2="55.4787" gradientUnits="userSpaceOnUse">
<stop stop-color="#481764"/>
<stop offset="1" stop-color="#481764" stop-opacity="0"/>
</linearGradient>
<linearGradient id="paint7_linear_107_967" x1="26.3043" y1="34.1205" x2="9.6937" y2="34.1205" gradientUnits="userSpaceOnUse">
<stop stop-color="#817ED9"/>
<stop offset="1" stop-color="#7F7DCB"/>
</linearGradient>
<linearGradient id="paint8_linear_107_967" x1="26.9203" y1="35.088" x2="22.6115" y2="35.088" gradientUnits="userSpaceOnUse">
<stop stop-color="#6964BD"/>
<stop offset="1" stop-color="#6964BD" stop-opacity="0"/>
</linearGradient>
<linearGradient id="paint9_linear_107_967" x1="26.6559" y1="24.8929" x2="21.9984" y2="24.8929" gradientUnits="userSpaceOnUse">
<stop offset="0.057" stop-color="#28469E"/>
<stop offset="1" stop-color="#305FB8" stop-opacity="0"/>
</linearGradient>
<linearGradient id="paint10_linear_107_967" x1="9.60368" y1="36.2299" x2="6.61681" y2="36.2299" gradientUnits="userSpaceOnUse">
<stop stop-color="#7FD8D8"/>
<stop offset="1" stop-color="#2A2356" stop-opacity="0"/>
</linearGradient>
<linearGradient id="paint11_linear_107_967" x1="28.5008" y1="29.6404" x2="75.9617" y2="29.6404" gradientUnits="userSpaceOnUse">
<stop stop-color="#7FD8D8"/>
<stop offset="1" stop-color="#3172D9"/>
</linearGradient>
<linearGradient id="paint12_linear_107_967" x1="26.217" y1="37.1104" x2="29.907" y2="37.1104" gradientUnits="userSpaceOnUse">
<stop stop-color="#1C4EB1"/>
<stop offset="1" stop-color="#1F60BF" stop-opacity="0"/>
</linearGradient>
<linearGradient id="paint13_linear_107_967" x1="59.7899" y1="39.8132" x2="59.7899" y2="38.5813" gradientUnits="userSpaceOnUse">
<stop stop-color="#1441B8"/>
<stop offset="1" stop-color="#1441B8" stop-opacity="0"/>
</linearGradient>
<linearGradient id="paint14_linear_107_967" x1="25.7108" y1="29.6404" x2="27.0299" y2="29.6404" gradientUnits="userSpaceOnUse">
<stop stop-color="#7FD8D8"/>
<stop offset="1" stop-color="#1D46A7" stop-opacity="0"/>
</linearGradient>
<linearGradient id="paint15_linear_107_967" x1="52.6714" y1="12.7654" x2="52.6714" y2="16.1038" gradientUnits="userSpaceOnUse">
<stop stop-color="#497DBA"/>
<stop offset="1" stop-color="#497DBA" stop-opacity="0"/>
</linearGradient>
<radialGradient id="paint16_radial_107_967" cx="0" cy="0" r="1" gradientUnits="userSpaceOnUse" gradientTransform="translate(79.564 13.1164) rotate(125.151) scale(18.1664 27.4898)">
<stop offset="0.215" stop-color="#4790DD"/>
<stop offset="1" stop-color="#3173DA" stop-opacity="0"/>
</radialGradient>
<radialGradient id="paint17_radial_107_967" cx="0" cy="0" r="1" gradientUnits="userSpaceOnUse" gradientTransform="translate(78.4227 16.7197) rotate(133.951) scale(37.3573 66.1686)">
<stop offset="0.125" stop-color="#5490E6"/>
<stop offset="1" stop-color="#5490E6" stop-opacity="0"/>
</radialGradient>
<radialGradient id="paint18_radial_107_967" cx="0" cy="0" r="1" gradientUnits="userSpaceOnUse" gradientTransform="translate(28.3742 5.72979) rotate(63.839) scale(2.1229 2.70366)">
<stop offset="0.332" stop-color="#FFBF42"/>
<stop offset="1" stop-color="#EBA544"/>
</radialGradient>
<linearGradient id="paint19_linear_107_967" x1="23.1993" y1="14.419" x2="28.9452" y2="7.56771" gradientUnits="userSpaceOnUse">
<stop stop-color="#FFD03A"/>
<stop offset="1" stop-color="#FFE331"/>
</linearGradient>
<radialGradient id="paint20_radial_107_967" cx="0" cy="0" r="1" gradientUnits="userSpaceOnUse" gradientTransform="translate(20.7636 13.8255) rotate(-56.6222) scale(2.63497 3.20857)">
<stop offset="0.156" stop-color="#FFAB1D"/>
<stop offset="1" stop-color="#FFAB1D" stop-opacity="0"/>
</radialGradient>
<radialGradient id="paint21_radial_107_967" cx="0" cy="0" r="1" gradientUnits="userSpaceOnUse" gradientTransform="translate(23.4554 17.6929) rotate(172.015) scale(8.4825 12.3965)">
<stop stop-color="#FFA526"/>
<stop offset="1" stop-color="#FFA526" stop-opacity="0"/>
</radialGradient>
<radialGradient id="paint22_radial_107_967" cx="0" cy="0" r="1" gradientUnits="userSpaceOnUse" gradientTransform="translate(11.6822 14.4303) rotate(-30.7327) scale(7.18313 18.8746)">
<stop stop-color="#F69637"/>
<stop offset="1" stop-color="#FCA123" stop-opacity="0"/>
</radialGradient>
<radialGradient id="paint23_radial_107_967" cx="0" cy="0" r="1" gradientUnits="userSpaceOnUse" gradientTransform="translate(11.3138 7.81811) rotate(-43.1104) scale(5.69532 2.62654)">
<stop offset="0.174" stop-color="#E4AF34"/>
<stop offset="1" stop-color="#FFBF27" stop-opacity="0"/>
</radialGradient>
<radialGradient id="paint24_radial_107_967" cx="0" cy="0" r="1" gradientUnits="userSpaceOnUse" gradientTransform="translate(16.508 0.361968) rotate(83.407) scale(2.17024 3.134)">
<stop offset="0.117" stop-color="#E0A531"/>
<stop offset="1" stop-color="#E0A531" stop-opacity="0"/>
</radialGradient>
<radialGradient id="paint25_radial_107_967" cx="0" cy="0" r="1" gradientUnits="userSpaceOnUse" gradientTransform="translate(17.8331 20.0806) rotate(-165.579) scale(6.19403 2.82242)">
<stop offset="0.368" stop-color="#E8653B"/>
<stop offset="1" stop-color="#FAA030" stop-opacity="0"/>
</radialGradient>
<radialGradient id="paint26_radial_107_967" cx="0" cy="0" r="1" gradientUnits="userSpaceOnUse" gradientTransform="translate(23.4554 17.6929) rotate(172.015) scale(8.4825 12.3965)">
<stop stop-color="#FFA526"/>
<stop offset="1" stop-color="#FFA526" stop-opacity="0"/>
</radialGradient>
<radialGradient id="paint27_radial_107_967" cx="0" cy="0" r="1" gradientUnits="userSpaceOnUse" gradientTransform="translate(11.6822 14.4303) rotate(-30.7327) scale(7.18313 18.8746)">
<stop stop-color="#F69637"/>
<stop offset="1" stop-color="#FCA123" stop-opacity="0"/>
</radialGradient>
<radialGradient id="paint28_radial_107_967" cx="0" cy="0" r="1" gradientUnits="userSpaceOnUse" gradientTransform="translate(11.3138 7.81811) rotate(-43.1104) scale(5.69532 2.62654)">
<stop offset="0.174" stop-color="#E4AF34"/>
<stop offset="1" stop-color="#FFBF27" stop-opacity="0"/>
</radialGradient>
<radialGradient id="paint29_radial_107_967" cx="0" cy="0" r="1" gradientUnits="userSpaceOnUse" gradientTransform="translate(16.508 0.361968) rotate(83.407) scale(2.17024 3.134)">
<stop offset="0.117" stop-color="#E0A531"/>
<stop offset="1" stop-color="#E0A531" stop-opacity="0"/>
</radialGradient>
<radialGradient id="paint30_radial_107_967" cx="0" cy="0" r="1" gradientUnits="userSpaceOnUse" gradientTransform="translate(17.8331 20.0806) rotate(-165.579) scale(6.19403 2.82242)">
<stop offset="0.368" stop-color="#E8653B"/>
<stop offset="1" stop-color="#FAA030" stop-opacity="0"/>
</radialGradient>
<radialGradient id="paint31_radial_107_967" cx="0" cy="0" r="1" gradientUnits="userSpaceOnUse" gradientTransform="translate(19.7484 14.2532) rotate(10.8228) scale(3.25447 5.29245)">
<stop offset="0.04" stop-color="#FFD040"/>
<stop offset="1" stop-color="#FEAD30"/>
</radialGradient>
</defs>
</svg>
