<svg width="24" height="24" viewBox="0 0 24 24" fill="none" xmlns="http://www.w3.org/2000/svg">
<path d="M20 20C16.55 20 12 22 12 22V11C12 11 16.5 9 21 9L20 20Z" fill="#7FD8D8"/>
<path d="M4 20C7.45 20 12 22 12 22V11C12 11 7.5 9 3 9L4 20Z" fill="#7FD8D8"/>
<path d="M12 10C14.2091 10 16 8.20914 16 6C16 3.79086 14.2091 2 12 2C9.79086 2 8 3.79086 8 6C8 8.20914 9.79086 10 12 10Z" fill="#FFB74D"/>
<path d="M20.5 16H21C21.3 16 21.5 15.8 21.5 15.5V13.5C21.5 13.2 21.3 13 21 13H20.5C19.65 13 19 13.65 19 14.5C19 15.35 19.65 16 20.5 16ZM3.5 13H3C2.7 13 2.5 13.2 2.5 13.5V15.5C2.5 15.8 2.7 16 3 16H3.5C4.35 16 5 15.35 5 14.5C5 13.65 4.35 13 3.5 13Z" fill="#FFB74D"/>
</svg>
