<svg width="24" height="24" viewBox="0 0 24 24" fill="none" xmlns="http://www.w3.org/2000/svg">
<path d="M11.4375 3.4125C11.4375 3.4125 10.4625 3.825 9.375 2.775C8.7375 2.175 7.65 1.65 7.2 1.5H6.7875C6.7875 1.5 5.3625 1.5 3.8625 2.775C2.9625 3.525 2.1375 3.6 1.9875 3.4125H1.575C1.05 4.575 0 4.425 0 4.425V15.825H12.825L11.85 3.4125H11.4375Z" fill="#7FD8D8"/>
<path d="M11.8501 3.4125C11.8501 3.4125 10.8751 3.825 9.7876 2.775C8.4751 1.5 7.2001 1.5 7.2001 1.5C7.2001 1.5 5.7751 1.5 4.2751 2.775C3.0376 3.825 1.9876 3.4125 1.9876 3.4125C1.4626 4.575 0.412598 4.4625 0.412598 4.4625V15.8625H13.2376V4.425C13.2376 4.425 12.3001 4.575 11.8501 3.4125Z" fill="#7FD8D8"/>
<path d="M0.412598 13.3125L8.4376 17.625V21L0.412598 15.825V13.3125Z" fill="#7FD8D8"/>
<path d="M8.4375 21L24 18.375V15.375L8.4375 17.625V21ZM8.0625 20.775L8.2125 22.35L8.4375 22.5V21L8.0625 20.775Z" fill="#7FD8D8"/>
<path d="M8.4374 22.5L8.9624 22.35L9.2249 20.8875L8.4374 21V22.5ZM23.8499 19.875V18.4125L22.8374 18.6L23.1749 19.9875L23.8499 19.875ZM0.149902 15.825V17.025H0.712402L1.0874 15.825H0.149902Z" fill="#7FD8D8"/>
<path d="M0.412598 13.3125L8.4376 17.625L24.0001 15.375L13.1251 11.625L0.412598 13.3125Z" fill="#94989B"/>
<path d="M0.862549 11.1375L8.70005 14.25V17.1L0.862549 13.2375V11.1375Z" fill="#DAE3EA"/>
<path d="M8.69995 17.1L23.2125 15.1875V12.6375L8.69995 14.25V17.1Z" fill="#FFDD7D"/>
<path d="M0.862549 11.1375L8.70005 14.25L23.2125 12.6375L13.2375 10.125L0.862549 11.1375Z" fill="white"/>
<path d="M1.5376 9.6C1.5376 9.6 1.9876 10.8 3.4126 11.3625C3.4126 11.3625 5.5501 10.725 8.4001 10.7625C8.4001 10.7625 7.2751 9.75001 6.9751 8.88751C6.9751 8.92501 4.5001 8.02501 1.5376 9.6ZM8.0251 9.07501C8.0251 9.07501 8.3251 10.275 9.3001 10.8375C9.3001 10.8375 10.7626 10.2 12.6751 10.2375C12.6751 10.2375 11.9251 9.225 11.7001 8.3625C11.7376 8.4 10.0501 7.50001 8.0251 9.07501Z" fill="#B2C1C0"/>
<path d="M2.8125 8.70002C2.8125 8.70002 3.7875 10.0125 4.2375 11.775C4.2375 11.775 6.375 10.9125 9.225 10.95C9.225 10.95 8.1 9.52502 7.8 8.36252C7.8 8.36252 5.7 7.95002 2.8125 8.70002ZM8.475 8.32502C8.475 8.32502 9.3375 9.52502 9.75 11.1C9.75 11.1 11.6625 10.3125 14.2125 10.35C14.2125 10.35 13.2 9.07502 12.9375 8.02502C12.9375 8.02502 11.0625 7.65002 8.475 8.32502Z" fill="#DAE3EA"/>
<path d="M4.42501 15C4.42501 15 4.20001 13.425 4.31251 12.975C4.38751 12.6375 4.76251 12.15 4.95001 11.9625C5.47501 11.55 7.31251 11.4 7.31251 11.4C7.31251 11.4 13.95 10.4625 16.125 10.5375C16.4625 10.5375 17.3625 11.1375 17.3625 11.1375L7.01251 12.45L5.88751 14.4375L5.77501 15.7125L4.42501 15Z" fill="#A53838"/>
<path d="M6.525 13.3875L5.925 14.4375L5.8125 15.675L8.7 17.1V14.25L6.525 13.3875Z" fill="#A53838"/>
<path d="M8.69995 14.25V17.1L23.2125 15.1875V12.6375L8.69995 14.25Z" fill="#ED4C5C"/>
<path d="M6.5249 13.3875L8.6999 14.25L23.2124 12.6375L17.2874 11.1375L7.0499 12.4125L6.5249 13.3875Z" fill="#C94747"/>
<path d="M20.3999 11.925C20.3999 11.925 20.1374 11.475 20.0249 11.3625C19.8749 11.25 19.4249 11.2125 19.4249 11.2125C19.4249 11.2125 19.2749 10.875 19.1999 10.8375C19.0124 10.7625 18.4874 11.1 18.4874 11.1C18.4874 11.1 18.1874 10.6875 18.0749 10.6875C15.3374 10.6875 9.59993 11.3625 6.93743 12.15C6.63743 12.225 6.18743 12.9375 6.03743 13.275C5.66243 14.025 5.17493 15.75 5.06243 16.6875C4.94993 17.55 5.47493 20.025 5.47493 20.025C5.47493 20.025 5.92493 18.3375 6.33743 17.85C6.52493 17.625 6.71243 18.8625 6.71243 18.8625C6.71243 18.8625 7.04993 17.2875 7.16244 17.1375C7.31243 16.95 7.53744 18.075 7.53744 18.075C7.53744 18.075 7.76243 15.6 7.94993 15C8.06244 14.5875 8.47493 13.875 8.73743 13.7625C11.3624 12.6 16.8749 11.6625 19.5749 11.7375C19.7249 11.775 20.3999 11.925 20.3999 11.925Z" fill="#ED4C5C"/>
</svg>
