<svg version="1.1" id="Layer_1" xmlns="http://www.w3.org/2000/svg" xmlns:xlink="http://www.w3.org/1999/xlink" x="0px" y="0px"
	 width="100%" viewBox="0 0 1024 912" enable-background="new 0 0 1024 912" xml:space="preserve">
<path fill="#FFFFFF" opacity="1.000000" stroke="none" 
	d="
M704.000000,913.000000 
	C469.333344,913.000000 235.166672,913.000000 1.000000,913.000000 
	C1.000000,609.000000 1.000000,305.000000 1.000000,1.000000 
	C342.333344,1.000000 683.666687,1.000000 1025.000000,1.000000 
	C1025.000000,305.000000 1025.000000,609.000000 1025.000000,913.000000 
	C918.166687,913.000000 811.333313,913.000000 704.000000,913.000000 
M487.031555,268.989471 
	C481.187866,269.079010 475.344147,269.168549 468.511139,269.102875 
	C467.512421,269.070953 466.513733,269.011017 465.515015,269.011017 
	C368.703064,269.010437 271.891083,269.014465 175.079117,269.018127 
	C172.097488,269.018250 169.115875,269.018127 166.134247,269.018127 
	C173.055679,269.979187 179.973221,270.488922 186.896027,270.912689 
	C202.983139,271.897491 219.070480,272.881317 235.161880,273.792236 
	C266.195343,275.549133 297.231171,277.264618 328.267029,278.979156 
	C347.520386,280.042816 366.777618,281.038330 386.028564,282.142853 
	C390.909088,282.422882 395.772430,283.002594 400.913361,283.469086 
	C398.208405,297.645599 395.424774,311.302887 393.086395,325.035980 
	C392.348450,329.369751 390.998505,331.058136 386.223572,331.046875 
	C314.239868,330.876862 242.255630,330.928009 170.271515,330.927277 
	C166.594070,330.927246 162.916611,330.927307 159.239166,330.927307 
	C159.243317,331.141113 159.247467,331.354950 159.251617,331.568756 
	C235.680740,336.015900 312.109863,340.463043 388.748871,344.922394 
	C388.748871,346.401550 388.878601,347.228149 388.729675,348.001099 
	C385.901184,362.680359 382.745667,377.305481 380.347504,392.053955 
	C379.527191,397.098541 377.538513,398.036316 372.903564,398.026611 
	C305.085510,397.884338 237.267044,397.927887 169.448685,397.927216 
	C165.332169,397.927185 161.215652,397.927216 157.099152,397.927216 
	C171.195236,399.379303 185.285309,400.202667 199.378128,400.975555 
	C212.989548,401.722015 226.608780,402.333649 240.215759,403.151489 
	C265.757538,404.686646 291.289642,406.383484 316.832336,407.903015 
	C331.105103,408.752136 345.393646,409.332947 359.669647,410.132050 
	C365.063019,410.433899 370.441101,411.009949 376.490723,411.516663 
	C366.485046,464.141479 356.581177,516.230957 346.561371,568.930054 
	C369.325043,568.930054 391.114105,568.930054 413.859589,569.003113 
	C419.975952,569.003113 426.092346,569.003113 432.456787,569.003113 
	C439.880829,529.739502 447.229645,490.873535 455.027435,452.239716 
	C455.343414,452.125244 455.659393,452.010742 456.919739,451.955536 
	C493.611511,451.970123 530.303284,451.984711 567.080444,452.845428 
	C566.049622,459.097382 565.018738,465.349335 563.775452,472.889557 
	C566.415955,471.119263 567.873779,470.111023 569.361877,469.149811 
	C574.607361,465.761383 579.863220,462.389038 585.025757,459.854523 
	C584.632568,464.030792 584.239380,468.207031 583.787048,473.011383 
	C609.308228,454.845520 634.275635,437.073792 659.626343,419.029266 
	C640.822510,401.485840 622.458069,384.352356 603.645813,366.801025 
	C602.484131,372.352722 601.502075,377.045837 599.847229,381.338715 
	C594.654297,376.701508 589.461304,372.064301 583.736938,366.952545 
	C582.378967,373.834961 581.174255,379.940979 579.038452,386.043732 
	C542.358337,386.072937 505.678284,386.102142 468.314697,385.946930 
	C468.078735,385.945801 467.842773,385.944641 467.497040,385.113892 
	C474.787323,346.858917 482.077637,308.603912 489.949432,270.872498 
	C497.227448,276.588348 504.505432,282.304199 512.226379,288.367889 
	C507.036621,286.916809 502.252167,285.579041 496.955902,284.098175 
	C503.610779,297.171356 511.895538,307.761139 524.029480,315.188843 
	C521.528748,314.561523 519.028015,313.934204 516.527222,313.306885 
	C516.240662,313.604248 515.954041,313.901581 515.667480,314.198944 
	C519.214478,319.062469 523.378174,323.603790 526.134460,328.880341 
	C528.876160,334.128876 530.203796,340.116028 532.115295,345.674164 
	C543.309875,324.568939 554.862671,302.887939 566.204651,281.097229 
	C566.745544,280.058075 565.887085,277.591370 564.884888,276.569427 
	C560.580261,272.179901 555.935791,268.126190 551.493713,263.868195 
	C544.381897,257.050995 544.416748,257.027344 548.360474,248.156479 
	C557.338501,227.961517 566.282593,207.751358 575.341980,187.593048 
	C575.877441,186.401749 577.224915,185.499039 578.342407,184.658752 
	C583.413635,180.845490 583.231873,170.693771 578.007080,167.004440 
	C578.007080,167.004440 578.040283,167.036407 577.889526,166.182663 
	C578.387634,157.494293 573.790833,150.574127 564.170654,148.752182 
	C552.153442,146.476273 539.861816,145.617203 527.662903,144.406693 
	C526.883240,144.329315 525.091492,146.535583 525.151917,147.601089 
	C525.268066,149.645706 526.376465,151.633987 526.778687,152.795242 
	C525.399231,154.517273 523.336975,155.929169 523.208130,157.499710 
	C522.956177,160.569992 523.783875,163.728836 523.980530,167.027649 
	C523.980530,167.027649 523.802612,167.210510 523.057739,167.133682 
	C522.304443,167.346863 521.287476,167.319321 520.838745,167.810669 
	C516.581543,172.472183 517.813843,181.491989 523.031433,184.966614 
	C523.902771,185.546890 524.805298,186.390671 525.203064,187.322083 
	C528.054077,193.998322 530.778320,200.728729 533.671570,207.754578 
	C532.506104,209.073318 531.028870,210.744888 529.596680,212.365494 
	C533.396790,213.241104 536.856140,214.038177 540.315430,214.835266 
	C539.606812,215.812988 538.976135,216.091370 538.462708,215.948441 
	C530.346558,213.689209 523.276245,216.377136 516.043457,219.875061 
	C506.756042,224.366638 496.890503,223.939880 487.046875,221.409882 
	C498.075867,221.348602 508.876007,220.454010 519.460449,214.519531 
	C510.930237,210.272110 502.840668,208.256943 494.585266,210.844421 
	C486.588654,213.350784 478.955933,217.018082 471.021576,220.028595 
	C471.021576,220.028595 470.873749,219.887787 470.964844,219.220840 
	C471.798004,218.022507 472.631134,216.824188 473.577698,215.462708 
	C465.288177,211.154282 457.482635,214.262680 449.706146,217.088638 
	C451.498108,214.404358 453.659943,212.459549 454.195923,210.139175 
	C456.511444,200.114838 460.332672,191.004700 466.569763,182.650238 
	C468.719604,179.770645 470.461761,178.871582 473.507233,179.022171 
	C479.745880,179.330627 485.992706,179.963745 492.221893,179.824661 
	C497.565796,179.705338 498.528809,177.953064 497.297821,173.141327 
	C498.578583,171.802246 500.693726,170.626099 500.787811,169.305893 
	C501.123077,164.601639 501.936310,159.664383 497.391541,155.967270 
	C492.674866,152.130295 488.377045,148.121002 481.439178,150.912415 
	C470.079834,155.482788 458.997009,160.039474 452.910095,171.960617 
	C450.446594,176.785385 446.315674,180.727570 443.349274,185.332748 
	C435.164337,198.039444 426.853210,210.686661 419.273102,223.752548 
	C415.118927,230.913193 416.571808,236.062454 422.164673,241.824448 
	C429.904144,249.797943 439.766418,252.829849 450.411316,253.921982 
	C460.697845,254.977371 470.457123,252.561188 480.000000,249.000000 
	C480.000000,249.000000 479.998444,248.998611 479.758667,249.630280 
	C478.375763,250.725266 476.992828,251.820251 475.404694,253.077744 
	C479.952148,258.804352 483.954346,263.844330 487.031555,268.989471 
M630.906250,219.143433 
	C623.845398,216.332214 616.942383,212.982056 609.681152,210.854843 
	C601.741577,208.528931 600.408447,209.808243 598.092407,219.059143 
	C605.599670,219.924347 613.003845,220.777679 621.588684,221.767075 
	C613.475098,223.763809 606.501099,223.632492 599.424988,222.279755 
	C597.949097,221.997604 595.362732,222.268265 594.815125,223.190689 
	C588.641235,233.590408 582.765503,244.167160 577.248474,253.920776 
	C583.829102,260.999664 589.915771,267.547089 596.224792,274.333801 
	C578.952759,293.938690 561.501099,313.747467 543.653137,334.005981 
	C554.424316,338.517181 564.963379,341.118774 575.937012,341.943695 
	C587.082458,342.781555 597.923950,341.386353 608.758911,336.201752 
	C607.825562,341.282318 607.328003,345.416229 606.252014,349.393646 
	C605.399719,352.544098 606.149536,354.532074 608.540649,356.734283 
	C624.466064,371.401733 640.239502,386.234314 656.070129,401.004822 
	C657.722717,402.546783 659.426208,404.034149 661.598755,405.990540 
	C670.295227,360.286102 678.841003,315.373871 687.443115,270.165527 
	C664.998169,270.165527 643.268799,270.165527 621.417419,270.165527 
	C617.371521,291.334991 613.378662,312.227142 609.152954,334.337402 
	C605.219971,330.062958 601.921265,326.636322 598.800537,323.054657 
	C591.352966,314.507202 589.625061,305.031433 595.162537,294.909821 
	C601.950562,282.502289 609.023926,270.248871 616.155212,258.034637 
	C616.757751,257.002625 618.735596,256.237854 620.064758,256.252380 
	C628.968506,256.349518 637.978210,257.681610 646.746033,256.720520 
	C659.642517,255.306885 671.521973,250.322220 681.434204,241.588608 
	C687.558594,236.192444 688.455505,231.651749 685.395142,224.192993 
	C684.701477,222.502533 684.016724,220.759521 683.008606,219.254517 
	C672.454834,203.498642 661.247803,188.141663 651.453979,171.929810 
	C645.502197,162.077728 637.114563,156.630875 627.075989,152.601852 
	C616.136902,148.211441 615.450439,148.154388 605.708130,157.471436 
	C601.310547,161.677063 602.576660,170.176102 607.541870,172.907898 
	C605.385681,177.283554 605.992249,179.007782 610.786011,179.530533 
	C615.170654,180.008636 619.711670,179.979813 624.085510,179.414459 
	C630.871155,178.537354 636.985352,178.215790 640.229797,185.978470 
	C642.972534,192.540619 646.168335,198.912964 648.931824,205.467072 
	C650.341675,208.810974 651.242371,212.369598 652.652222,216.685272 
	C645.474182,213.251907 638.159119,212.027328 630.475525,215.362640 
	C631.416992,216.657349 632.089722,217.582428 632.123413,218.932571 
	C631.925110,219.094193 631.726746,219.255814 630.906250,219.143433 
M595.593201,479.122040 
	C591.391052,482.111389 586.987854,484.864044 583.072083,488.190460 
	C581.128357,489.841553 579.276917,492.375641 578.759949,494.803345 
	C575.919067,508.144012 573.496582,521.573914 570.944641,534.975891 
	C568.811462,546.178955 566.697754,557.385803 564.539551,568.780457 
	C586.823975,568.780457 608.566650,568.780457 630.573425,568.780457 
	C638.930542,524.868103 647.255737,481.123871 655.783386,436.315765 
	C635.188293,450.974152 615.690125,464.851746 595.593201,479.122040 
M340.879242,654.580872 
	C335.926453,652.904114 331.053680,650.152893 326.003998,649.776733 
	C315.817993,649.017944 305.535767,649.550598 295.330566,649.550598 
	C295.330566,669.886841 295.330566,689.764832 295.330566,709.889526 
	C307.045532,709.889526 318.351227,710.056824 329.645569,709.773621 
	C332.519501,709.701538 335.460907,708.445312 338.190979,707.302490 
	C344.102020,704.827942 347.474030,700.102173 347.741852,693.813538 
	C348.006958,687.588562 345.297882,682.543579 339.627899,679.398926 
	C338.803497,678.941650 338.055115,678.347290 337.181427,677.755310 
	C347.066956,670.509399 348.416473,662.908813 340.879242,654.580872 
M578.927124,698.534241 
	C592.773560,716.957153 626.991028,714.803040 636.055908,690.456604 
	C641.241577,676.528992 636.071655,661.725525 623.509949,653.928894 
	C610.261047,645.705566 591.319824,647.927124 580.708557,658.948792 
	C570.796631,669.244080 569.881714,685.189392 578.927124,698.534241 
M189.994049,649.202209 
	C185.749557,649.202209 181.505066,649.202209 176.712677,649.202209 
	C176.712677,658.012878 176.712677,665.927368 176.712677,673.729126 
	C168.214355,673.729126 160.307465,673.729126 151.821838,673.729126 
	C151.821838,665.434082 151.821838,657.530823 151.821838,649.179321 
	C148.100021,649.179321 144.942886,649.418396 141.836975,649.121460 
	C137.521133,648.708862 136.016891,650.175537 136.082047,654.681641 
	C136.325348,671.511108 136.171646,688.346313 136.192978,705.179321 
	C136.194809,706.628479 136.388809,708.077393 136.502670,709.652710 
	C141.760727,709.652710 146.649002,709.652710 152.197937,709.652710 
	C152.197937,701.918396 152.197937,694.523560 152.197937,687.252686 
	C160.773453,687.252686 168.678131,687.252686 177.063477,687.252686 
	C177.063477,694.913696 177.063477,702.175110 177.063477,709.669861 
	C182.440674,709.669861 187.319519,709.669861 192.183167,709.669861 
	C192.419327,708.889221 192.682861,708.423218 192.683762,707.956665 
	C192.719406,689.624023 192.766861,671.291199 192.665680,652.959106 
	C192.658920,651.737488 191.500168,650.522156 189.994049,649.202209 
M864.247498,684.500549 
	C864.247498,672.907043 864.247498,661.313538 864.247498,649.829407 
	C858.787659,649.829407 854.001648,649.829407 848.733154,649.829407 
	C848.733154,658.140991 848.733154,666.204590 848.733154,674.184692 
	C840.292603,674.184692 832.341858,674.184692 823.859741,674.184692 
	C823.859741,665.967102 823.859741,657.920044 823.859741,649.818848 
	C818.559326,649.818848 813.796570,649.818848 808.829346,649.818848 
	C808.829346,669.964600 808.829346,689.866516 808.829346,709.663330 
	C813.996216,709.663330 818.901062,709.663330 824.231934,709.663330 
	C824.231934,701.759460 824.231934,694.194214 824.231934,686.689941 
	C832.627930,686.689941 840.587036,686.689941 848.959839,686.689941 
	C848.959839,694.439880 848.959839,702.028687 848.959839,709.728149 
	C854.253357,709.728149 859.126282,709.728149 864.247437,709.728149 
	C864.247437,701.468628 864.247437,693.484619 864.247498,684.500549 
M668.950867,670.320923 
	C663.312622,683.380554 657.674438,696.440186 651.895691,709.825317 
	C657.461060,709.825317 662.549683,709.825317 667.670959,709.825317 
	C668.557495,707.569946 669.639526,705.467529 670.202881,703.234375 
	C671.085449,699.736267 673.016663,698.578125 676.612000,698.832703 
	C681.412048,699.172668 686.308350,699.369446 691.064392,698.800537 
	C696.825867,698.111206 699.884277,700.092712 701.232971,705.726868 
	C701.623596,707.358643 703.556702,709.642700 704.996521,709.812439 
	C709.502197,710.343384 714.110046,710.007446 719.185120,710.007446 
	C712.028625,693.061523 705.133179,676.740784 698.243652,660.417603 
	C693.534424,649.260071 693.533142,649.147827 681.257996,649.705322 
	C679.640015,649.778809 677.397766,651.308838 676.656677,652.776489 
	C673.895203,658.244934 671.639038,663.968567 668.950867,670.320923 
M257.835114,702.559570 
	C259.757507,704.913391 258.273987,709.780823 263.062469,709.964539 
	C267.518402,710.135559 271.986053,710.001099 276.892334,710.001099 
	C276.366119,708.415771 276.081879,707.320068 275.647766,706.287354 
	C269.135193,690.796265 262.530731,675.343323 256.099854,659.818481 
	C251.581070,648.909607 251.684937,648.940857 239.762543,649.128296 
	C237.085342,649.170410 235.624405,649.892029 234.533783,652.536133 
	C230.663895,661.918274 226.442474,671.154846 222.416321,680.473328 
	C218.276672,690.054565 214.209671,699.667175 209.795105,710.005493 
	C212.274597,710.005493 214.062714,709.820190 215.800217,710.038208 
	C222.577301,710.888428 227.886429,709.779480 229.151047,701.639343 
	C229.317261,700.569519 231.702805,699.140808 233.107407,699.086182 
	C239.930176,698.820862 246.775070,698.816833 253.596771,699.096375 
	C254.932648,699.151184 256.200378,700.868896 257.835114,702.559570 
M521.617249,708.980286 
	C535.407837,713.200806 547.041809,709.300110 557.575928,699.677429 
	C554.459473,696.382019 551.619995,693.379639 548.806763,690.404907 
	C537.030334,698.912781 527.854675,699.283264 521.034607,691.684692 
	C514.971069,684.929016 515.109741,673.594299 521.335999,667.051025 
	C528.380676,659.647705 537.308716,660.347534 548.892273,669.370056 
	C551.654785,666.095398 554.425049,662.811523 557.173401,659.553650 
	C549.056152,650.067200 534.115845,646.536804 521.328735,650.953125 
	C509.637665,654.991028 501.448425,665.612183 500.947601,677.386719 
	C500.317322,692.205383 506.922760,702.622009 521.617249,708.980286 
M778.718811,707.234863 
	C782.346985,704.862732 785.975098,702.490540 790.119751,699.780640 
	C786.356262,696.103027 783.431946,693.245422 780.533142,690.412781 
	C769.959290,698.738281 760.392029,699.320251 753.521545,692.224854 
	C747.211914,685.708679 746.612732,674.127380 752.945496,667.754333 
	C755.575256,665.107788 759.465759,663.014404 763.117615,662.232300 
	C770.172913,660.721069 775.707642,664.730957 780.726990,669.559204 
	C783.740723,665.993652 786.496704,662.732910 789.423401,659.270264 
	C788.072510,658.077087 787.026733,657.027588 785.857727,656.140259 
	C773.731689,646.934998 756.601440,646.637207 744.940002,655.399719 
	C733.835205,663.743958 729.866882,677.841003 734.887390,691.109863 
	C741.209351,707.818298 759.398682,714.776733 778.718811,707.234863 
M452.174225,661.922668 
	C453.049194,657.935120 453.924133,653.947571 454.971039,649.176331 
	C437.323608,649.176331 421.222443,649.129639 405.123352,649.292480 
	C404.157074,649.302246 402.492218,650.906677 402.382324,651.904602 
	C402.028381,655.119385 402.250488,658.397583 402.250488,662.141479 
	C408.802948,662.141479 414.557922,662.141479 421.016418,662.141479 
	C421.016418,678.314880 421.016418,693.995605 421.016418,709.691895 
	C426.323883,709.691895 430.906219,709.691895 436.148560,709.691895 
	C436.148560,693.696899 436.148560,678.003540 436.148560,661.964172 
	C441.617950,661.964172 446.426788,661.964172 452.174225,661.922668 
M383.992920,687.500000 
	C383.992920,674.926514 383.992920,662.353088 383.992920,649.173706 
	C380.135071,649.173706 376.841095,649.382385 373.584961,649.120667 
	C369.559479,648.796997 368.034576,650.123413 368.087006,654.393250 
	C368.297180,671.501160 368.165833,688.613098 368.190979,705.723572 
	C368.192841,707.000732 368.433014,708.277527 368.573608,709.664795 
	C373.765472,709.664795 378.642914,709.664795 383.992889,709.664795 
	C383.992889,702.383728 383.992889,695.441833 383.992920,687.500000 
z"/>
<path fill="#80D8D8" opacity="1.000000" stroke="none" 
	d="
M579.969543,386.046997 
	C581.174255,379.940979 582.378967,373.834961 583.736938,366.952545 
	C589.461304,372.064301 594.654297,376.701508 600.303589,381.775513 
	C613.590393,394.409515 626.420837,406.606720 639.579834,419.116272 
	C631.748779,424.696716 624.293762,429.934601 616.918579,435.282715 
	C606.569641,442.787170 596.280151,450.373596 585.772583,458.092865 
	C585.383118,458.532562 585.186218,458.804352 585.005859,459.031006 
	C585.022278,458.985901 585.115173,459.010620 585.115173,459.010620 
	C579.863220,462.389038 574.607361,465.761383 569.361877,469.149811 
	C567.873779,470.111023 566.415955,471.119263 563.775452,472.889557 
	C565.018738,465.349335 566.049622,459.097382 567.121399,452.132599 
	C566.542664,451.287354 565.923096,451.039459 565.303345,451.039124 
	C530.270935,451.020996 495.238525,451.013275 460.206177,451.060730 
	C458.795532,451.062622 457.385620,451.605438 455.975372,451.896240 
	C455.659393,452.010742 455.343414,452.125244 454.324585,451.942993 
	C449.135010,451.608307 444.613403,451.903168 440.171509,451.437653 
	C435.829254,450.982544 434.538116,452.789642 433.816498,456.760925 
	C430.103607,477.194855 426.060211,497.568420 422.232483,517.981873 
	C419.050629,534.951050 416.007660,551.946350 412.903168,568.930054 
	C391.114105,568.930054 369.325043,568.930054 346.561371,568.930054 
	C356.581177,516.230957 366.485046,464.141479 376.490723,411.516663 
	C370.441101,411.009949 365.063019,410.433899 359.669647,410.132050 
	C345.393646,409.332947 331.105103,408.752136 316.832336,407.903015 
	C291.289642,406.383484 265.757538,404.686646 240.215759,403.151489 
	C226.608780,402.333649 212.989548,401.722015 199.378128,400.975555 
	C185.285309,400.202667 171.195236,399.379303 157.099152,397.927216 
	C161.215652,397.927216 165.332169,397.927185 169.448685,397.927216 
	C237.267044,397.927887 305.085510,397.884338 372.903564,398.026611 
	C377.538513,398.036316 379.527191,397.098541 380.347504,392.053955 
	C382.745667,377.305481 385.901184,362.680359 388.729675,348.001099 
	C388.878601,347.228149 388.748871,346.401550 388.748871,344.922394 
	C312.109863,340.463043 235.680740,336.015900 159.251617,331.568756 
	C159.247467,331.354950 159.243317,331.141113 159.239166,330.927307 
	C162.916611,330.927307 166.594070,330.927246 170.271515,330.927277 
	C242.255630,330.928009 314.239868,330.876862 386.223572,331.046875 
	C390.998505,331.058136 392.348450,329.369751 393.086395,325.035980 
	C395.424774,311.302887 398.208405,297.645599 400.913361,283.469086 
	C395.772430,283.002594 390.909088,282.422882 386.028564,282.142853 
	C366.777618,281.038330 347.520386,280.042816 328.267029,278.979156 
	C297.231171,277.264618 266.195343,275.549133 235.161880,273.792236 
	C219.070480,272.881317 202.983139,271.897491 186.896027,270.912689 
	C179.973221,270.488922 173.055679,269.979187 166.134247,269.018127 
	C169.115875,269.018127 172.097488,269.018250 175.079117,269.018127 
	C271.891083,269.014465 368.703064,269.010437 465.515015,269.011017 
	C466.513733,269.011017 467.512421,269.070953 468.989197,269.593475 
	C462.114502,308.731354 454.761719,347.378662 447.248901,386.867249 
	C454.737274,386.527466 461.172058,386.235474 467.606812,385.943481 
	C467.842773,385.944641 468.078735,385.945801 468.973419,386.306641 
	C470.283691,386.766205 470.935211,386.953125 471.586792,386.953400 
	C506.478485,386.968567 541.370178,386.977448 576.261841,386.930267 
	C577.498169,386.928619 578.733643,386.354401 579.969543,386.046997 
z"/>
<path fill="#030303" opacity="1.000000" stroke="none" 
	d="
M632.762451,218.507492 
	C632.089722,217.582428 631.416992,216.657349 630.475525,215.362640 
	C638.159119,212.027328 645.474182,213.251907 652.652222,216.685272 
	C651.242371,212.369598 650.341675,208.810974 648.931824,205.467072 
	C646.168335,198.912964 642.972534,192.540619 640.229797,185.978470 
	C636.985352,178.215790 630.871155,178.537354 624.085510,179.414459 
	C619.711670,179.979813 615.170654,180.008636 610.786011,179.530533 
	C605.992249,179.007782 605.385681,177.283554 607.541870,172.907898 
	C602.576660,170.176102 601.310547,161.677063 605.708130,157.471436 
	C615.450439,148.154388 616.136902,148.211441 627.075989,152.601852 
	C637.114563,156.630875 645.502197,162.077728 651.453979,171.929810 
	C661.247803,188.141663 672.454834,203.498642 683.008606,219.254517 
	C684.016724,220.759521 684.701477,222.502533 685.395142,224.192993 
	C688.455505,231.651749 687.558594,236.192444 681.434204,241.588608 
	C671.521973,250.322220 659.642517,255.306885 646.746033,256.720520 
	C637.978210,257.681610 628.968506,256.349518 620.064758,256.252380 
	C618.735596,256.237854 616.757751,257.002625 616.155212,258.034637 
	C609.023926,270.248871 601.950562,282.502289 595.162537,294.909821 
	C589.625061,305.031433 591.352966,314.507202 598.800537,323.054657 
	C601.921265,326.636322 605.219971,330.062958 609.152954,334.337402 
	C613.378662,312.227142 617.371521,291.334991 621.417419,270.165527 
	C643.268799,270.165527 664.998169,270.165527 687.443115,270.165527 
	C678.841003,315.373871 670.295227,360.286102 661.598755,405.990540 
	C659.426208,404.034149 657.722717,402.546783 656.070129,401.004822 
	C640.239502,386.234314 624.466064,371.401733 608.540649,356.734283 
	C606.149536,354.532074 605.399719,352.544098 606.252014,349.393646 
	C607.328003,345.416229 607.825562,341.282318 608.758911,336.201752 
	C597.923950,341.386353 587.082458,342.781555 575.937012,341.943695 
	C564.963379,341.118774 554.424316,338.517181 543.653137,334.005981 
	C561.501099,313.747467 578.952759,293.938690 596.224792,274.333801 
	C589.915771,267.547089 583.829102,260.999664 577.248474,253.920776 
	C582.765503,244.167160 588.641235,233.590408 594.815125,223.190689 
	C595.362732,222.268265 597.949097,221.997604 599.424988,222.279755 
	C606.501099,223.632492 613.475098,223.763809 621.588684,221.767075 
	C613.003845,220.777679 605.599670,219.924347 598.092407,219.059143 
	C600.408447,209.808243 601.741577,208.528931 609.681152,210.854843 
	C616.942383,212.982056 623.845398,216.332214 631.336365,219.572784 
	C632.083252,220.242950 632.400085,220.483749 632.716858,220.724548 
	C632.732056,219.985535 632.747253,219.246506 632.762451,218.507492 
z"/>
<path fill="#81D9D9" opacity="1.000000" stroke="none" 
	d="
M577.978760,166.968170 
	C583.231873,170.693771 583.413635,180.845490 578.342407,184.658752 
	C577.224915,185.499039 575.877441,186.401749 575.341980,187.593048 
	C566.282593,207.751358 557.338501,227.961517 548.360474,248.156479 
	C544.416748,257.027344 544.381897,257.050995 551.493713,263.868195 
	C555.935791,268.126190 560.580261,272.179901 564.884888,276.569427 
	C565.887085,277.591370 566.745544,280.058075 566.204651,281.097229 
	C554.862671,302.887939 543.309875,324.568939 532.115295,345.674164 
	C530.203796,340.116028 528.876160,334.128876 526.134460,328.880341 
	C523.378174,323.603790 519.214478,319.062469 515.667480,314.198944 
	C515.954041,313.901581 516.240662,313.604248 516.527222,313.306885 
	C519.028015,313.934204 521.528748,314.561523 524.029480,315.188843 
	C511.895538,307.761139 503.610779,297.171356 496.955902,284.098175 
	C502.252167,285.579041 507.036621,286.916809 512.226379,288.367889 
	C504.505432,282.304199 497.227448,276.588348 489.487732,270.492035 
	C488.669556,269.702484 488.313049,269.293396 487.956573,268.884308 
	C483.954346,263.844330 479.952148,258.804352 475.404694,253.077744 
	C476.992828,251.820251 478.375763,250.725266 480.073120,249.261429 
	C480.369751,248.710205 480.351898,248.527847 480.334045,248.345490 
	C480.223541,248.564499 480.113007,248.783508 480.002441,249.002533 
	C470.457123,252.561188 460.697845,254.977371 450.411316,253.921982 
	C439.766418,252.829849 429.904144,249.797943 422.164673,241.824448 
	C416.571808,236.062454 415.118927,230.913193 419.273102,223.752548 
	C426.853210,210.686661 435.164337,198.039444 443.349274,185.332748 
	C446.315674,180.727570 450.446594,176.785385 452.910095,171.960617 
	C458.997009,160.039474 470.079834,155.482788 481.439178,150.912415 
	C488.377045,148.121002 492.674866,152.130295 497.391541,155.967270 
	C501.936310,159.664383 501.123077,164.601639 500.787811,169.305893 
	C500.693726,170.626099 498.578583,171.802246 497.297821,173.141327 
	C498.528809,177.953064 497.565796,179.705338 492.221893,179.824661 
	C485.992706,179.963745 479.745880,179.330627 473.507233,179.022171 
	C470.461761,178.871582 468.719604,179.770645 466.569763,182.650238 
	C460.332672,191.004700 456.511444,200.114838 454.195923,210.139175 
	C453.659943,212.459549 451.498108,214.404358 449.706146,217.088638 
	C457.482635,214.262680 465.288177,211.154282 473.577698,215.462708 
	C472.631134,216.824188 471.798004,218.022507 470.738953,219.652542 
	C470.547058,220.301193 470.581024,220.518127 470.614990,220.735077 
	C470.797821,220.548569 470.980621,220.362030 471.163391,220.175476 
	C478.955933,217.018082 486.588654,213.350784 494.585266,210.844421 
	C502.840668,208.256943 510.930237,210.272110 519.460449,214.519531 
	C508.876007,220.454010 498.075867,221.348602 487.046875,221.409882 
	C496.890503,223.939880 506.756042,224.366638 516.043457,219.875061 
	C523.276245,216.377136 530.346558,213.689209 538.462708,215.948441 
	C538.976135,216.091370 539.606812,215.812988 540.315430,214.835266 
	C536.856140,214.038177 533.396790,213.241104 529.596680,212.365494 
	C531.028870,210.744888 532.506104,209.073318 533.671570,207.754578 
	C530.778320,200.728729 528.054077,193.998322 525.203064,187.322083 
	C524.805298,186.390671 523.902771,185.546890 523.031433,184.966614 
	C517.813843,181.491989 516.581543,172.472183 520.838745,167.810669 
	C521.287476,167.319321 522.304443,167.346863 523.539368,167.344772 
	C524.233704,167.521439 524.446350,167.487015 524.659058,167.452576 
	C524.494263,167.252060 524.329407,167.051544 524.164612,166.851028 
	C523.783875,163.728836 522.956177,160.569992 523.208130,157.499710 
	C523.336975,155.929169 525.399231,154.517273 526.778687,152.795242 
	C526.376465,151.633987 525.268066,149.645706 525.151917,147.601089 
	C525.091492,146.535583 526.883240,144.329315 527.662903,144.406693 
	C539.861816,145.617203 552.153442,146.476273 564.170654,148.752182 
	C573.790833,150.574127 578.387634,157.494293 577.782593,166.605652 
	C577.776672,167.008484 577.877747,166.988327 577.978760,166.968170 
M469.509735,222.335083 
	C469.509735,222.335083 469.587494,222.476105 469.509735,222.335083 
z"/>
<path fill="#020202" opacity="1.000000" stroke="none" 
	d="
M595.892578,478.925720 
	C615.690125,464.851746 635.188293,450.974152 655.783386,436.315765 
	C647.255737,481.123871 638.930542,524.868103 630.573425,568.780457 
	C608.566650,568.780457 586.823975,568.780457 564.539551,568.780457 
	C566.697754,557.385803 568.811462,546.178955 570.944641,534.975891 
	C573.496582,521.573914 575.919067,508.144012 578.759949,494.803345 
	C579.276917,492.375641 581.128357,489.841553 583.072083,488.190460 
	C586.987854,484.864044 591.391052,482.111389 595.892578,478.925720 
z"/>
<path fill="#81D9D9" opacity="1.000000" stroke="none" 
	d="
M341.158386,654.822571 
	C348.416473,662.908813 347.066956,670.509399 337.181427,677.755310 
	C338.055115,678.347290 338.803497,678.941650 339.627899,679.398926 
	C345.297882,682.543579 348.006958,687.588562 347.741852,693.813538 
	C347.474030,700.102173 344.102020,704.827942 338.190979,707.302490 
	C335.460907,708.445312 332.519501,709.701538 329.645569,709.773621 
	C318.351227,710.056824 307.045532,709.889526 295.330566,709.889526 
	C295.330566,689.764832 295.330566,669.886841 295.330566,649.550598 
	C305.535767,649.550598 315.817993,649.017944 326.003998,649.776733 
	C331.053680,650.152893 335.926453,652.904114 341.158386,654.822571 
M310.040985,695.256165 
	C310.560364,696.147156 311.073944,697.806152 311.600067,697.810181 
	C316.712860,697.848999 321.921387,698.115906 326.894653,697.194885 
	C328.800751,696.841919 331.545959,693.508301 331.429901,691.691101 
	C331.291870,689.528625 328.712677,686.044006 326.795532,685.754761 
	C321.397186,684.940369 315.796021,685.470337 310.033386,685.470337 
	C310.033386,688.693604 310.033386,691.505798 310.040985,695.256165 
M317.448761,661.105591 
	C315.176331,661.105591 312.903900,661.105591 310.329102,661.105591 
	C310.329102,665.557556 310.329102,669.424805 310.329102,673.769409 
	C315.013428,673.769409 319.473022,674.122009 323.844727,673.653809 
	C327.125397,673.302429 329.858490,671.297241 329.863129,667.489807 
	C329.867798,663.661133 327.081757,662.023376 323.821075,661.307800 
	C322.074860,660.924500 320.194366,661.153259 317.448761,661.105591 
z"/>
<path fill="#040505" opacity="1.000000" stroke="none" 
	d="
M487.494080,268.936890 
	C488.313049,269.293396 488.669556,269.702484 489.196960,270.230255 
	C482.077637,308.603912 474.787323,346.858917 467.551941,385.528687 
	C461.172058,386.235474 454.737274,386.527466 447.248901,386.867249 
	C454.761719,347.378662 462.114502,308.731354 469.483887,269.671082 
	C475.344147,269.168549 481.187866,269.079010 487.494080,268.936890 
z"/>
<path fill="#040505" opacity="1.000000" stroke="none" 
	d="
M413.381378,568.966553 
	C416.007660,551.946350 419.050629,534.951050 422.232483,517.981873 
	C426.060211,497.568420 430.103607,477.194855 433.816498,456.760925 
	C434.538116,452.789642 435.829254,450.982544 440.171509,451.437653 
	C444.613403,451.903168 449.135010,451.608307 454.100098,451.826935 
	C447.229645,490.873535 439.880829,529.739502 432.456787,569.003113 
	C426.092346,569.003113 419.975952,569.003113 413.381378,568.966553 
z"/>
<path fill="#040404" opacity="1.000000" stroke="none" 
	d="
M578.698120,698.257812 
	C569.881714,685.189392 570.796631,669.244080 580.708557,658.948792 
	C591.319824,647.927124 610.261047,645.705566 623.509949,653.928894 
	C636.071655,661.725525 641.241577,676.528992 636.055908,690.456604 
	C626.991028,714.803040 592.773560,716.957153 578.698120,698.257812 
M596.511719,695.180847 
	C605.691895,700.061890 614.882935,697.727661 619.737244,689.282349 
	C624.560730,680.890625 622.028198,669.560425 614.186523,664.449524 
	C606.866516,659.678589 596.919067,661.703125 591.600891,669.046082 
	C585.796326,677.060669 587.550171,687.651367 596.511719,695.180847 
z"/>
<path fill="#83D9D9" opacity="1.000000" stroke="none" 
	d="
M190.435638,649.253052 
	C191.500168,650.522156 192.658920,651.737488 192.665680,652.959106 
	C192.766861,671.291199 192.719406,689.624023 192.683762,707.956665 
	C192.682861,708.423218 192.419327,708.889221 192.183167,709.669861 
	C187.319519,709.669861 182.440674,709.669861 177.063477,709.669861 
	C177.063477,702.175110 177.063477,694.913696 177.063477,687.252686 
	C168.678131,687.252686 160.773453,687.252686 152.197937,687.252686 
	C152.197937,694.523560 152.197937,701.918396 152.197937,709.652710 
	C146.649002,709.652710 141.760727,709.652710 136.502670,709.652710 
	C136.388809,708.077393 136.194809,706.628479 136.192978,705.179321 
	C136.171646,688.346313 136.325348,671.511108 136.082047,654.681641 
	C136.016891,650.175537 137.521133,648.708862 141.836975,649.121460 
	C144.942886,649.418396 148.100021,649.179321 151.821838,649.179321 
	C151.821838,657.530823 151.821838,665.434082 151.821838,673.729126 
	C160.307465,673.729126 168.214355,673.729126 176.712677,673.729126 
	C176.712677,665.927368 176.712677,658.012878 176.712677,649.202209 
	C181.505066,649.202209 185.749557,649.202209 190.435638,649.253052 
z"/>
<path fill="#030303" opacity="1.000000" stroke="none" 
	d="
M864.247437,685.000610 
	C864.247437,693.484619 864.247437,701.468628 864.247437,709.728149 
	C859.126282,709.728149 854.253357,709.728149 848.959839,709.728149 
	C848.959839,702.028687 848.959839,694.439880 848.959839,686.689941 
	C840.587036,686.689941 832.627930,686.689941 824.231934,686.689941 
	C824.231934,694.194214 824.231934,701.759460 824.231934,709.663330 
	C818.901062,709.663330 813.996216,709.663330 808.829346,709.663330 
	C808.829346,689.866516 808.829346,669.964600 808.829346,649.818848 
	C813.796570,649.818848 818.559326,649.818848 823.859741,649.818848 
	C823.859741,657.920044 823.859741,665.967102 823.859741,674.184692 
	C832.341858,674.184692 840.292603,674.184692 848.733154,674.184692 
	C848.733154,666.204590 848.733154,658.140991 848.733154,649.829407 
	C854.001648,649.829407 858.787659,649.829407 864.247498,649.829407 
	C864.247498,661.313538 864.247498,672.907043 864.247437,685.000610 
z"/>
<path fill="#040404" opacity="1.000000" stroke="none" 
	d="
M669.072021,669.958740 
	C671.639038,663.968567 673.895203,658.244934 676.656677,652.776489 
	C677.397766,651.308838 679.640015,649.778809 681.257996,649.705322 
	C693.533142,649.147827 693.534424,649.260071 698.243652,660.417603 
	C705.133179,676.740784 712.028625,693.061523 719.185120,710.007446 
	C714.110046,710.007446 709.502197,710.343384 704.996521,709.812439 
	C703.556702,709.642700 701.623596,707.358643 701.232971,705.726868 
	C699.884277,700.092712 696.825867,698.111206 691.064392,698.800537 
	C686.308350,699.369446 681.412048,699.172668 676.612000,698.832703 
	C673.016663,698.578125 671.085449,699.736267 670.202881,703.234375 
	C669.639526,705.467529 668.557495,707.569946 667.670959,709.825317 
	C662.549683,709.825317 657.461060,709.825317 651.895691,709.825317 
	C657.674438,696.440186 663.312622,683.380554 669.072021,669.958740 
M693.120728,685.128784 
	C690.639465,678.650757 688.158203,672.172729 685.351807,664.845886 
	C682.291504,672.605652 679.522644,679.626221 676.329773,687.722107 
	C682.638367,687.085571 688.019714,686.542603 693.120728,685.128784 
z"/>
<path fill="#82D9D9" opacity="1.000000" stroke="none" 
	d="
M257.667328,702.189575 
	C256.200378,700.868896 254.932648,699.151184 253.596771,699.096375 
	C246.775070,698.816833 239.930176,698.820862 233.107407,699.086182 
	C231.702805,699.140808 229.317261,700.569519 229.151047,701.639343 
	C227.886429,709.779480 222.577301,710.888428 215.800217,710.038208 
	C214.062714,709.820190 212.274597,710.005493 209.795105,710.005493 
	C214.209671,699.667175 218.276672,690.054565 222.416321,680.473328 
	C226.442474,671.154846 230.663895,661.918274 234.533783,652.536133 
	C235.624405,649.892029 237.085342,649.170410 239.762543,649.128296 
	C251.684937,648.940857 251.581070,648.909607 256.099854,659.818481 
	C262.530731,675.343323 269.135193,690.796265 275.647766,706.287354 
	C276.081879,707.320068 276.366119,708.415771 276.892334,710.001099 
	C271.986053,710.001099 267.518402,710.135559 263.062469,709.964539 
	C258.273987,709.780823 259.757507,704.913391 257.667328,702.189575 
M248.998962,687.030640 
	C249.628296,686.315247 250.939392,685.358032 250.784317,684.920959 
	C248.575867,678.696594 246.169067,672.542603 243.296249,665.027344 
	C240.129089,673.174683 237.550812,679.807129 234.734863,687.050964 
	C239.849564,687.050964 243.976761,687.050964 248.998962,687.030640 
z"/>
<path fill="#060707" opacity="1.000000" stroke="none" 
	d="
M585.965210,457.924927 
	C596.280151,450.373596 606.569641,442.787170 616.918579,435.282715 
	C624.293762,429.934601 631.748779,424.696716 639.579834,419.116272 
	C626.420837,406.606720 613.590393,394.409515 600.640015,381.975647 
	C601.502075,377.045837 602.484131,372.352722 603.645813,366.801025 
	C622.458069,384.352356 640.822510,401.485840 659.626343,419.029266 
	C634.275635,437.073792 609.308228,454.845520 583.787048,473.011383 
	C584.239380,468.207031 584.632568,464.030792 585.070435,459.432556 
	C585.115173,459.010620 585.022278,458.985901 585.278442,458.935120 
	C585.678162,458.564514 585.821655,458.244720 585.965210,457.924927 
z"/>
<path fill="#060606" opacity="1.000000" stroke="none" 
	d="
M521.236877,708.881470 
	C506.922760,702.622009 500.317322,692.205383 500.947601,677.386719 
	C501.448425,665.612183 509.637665,654.991028 521.328735,650.953125 
	C534.115845,646.536804 549.056152,650.067200 557.173401,659.553650 
	C554.425049,662.811523 551.654785,666.095398 548.892273,669.370056 
	C537.308716,660.347534 528.380676,659.647705 521.335999,667.051025 
	C515.109741,673.594299 514.971069,684.929016 521.034607,691.684692 
	C527.854675,699.283264 537.030334,698.912781 548.806763,690.404907 
	C551.619995,693.379639 554.459473,696.382019 557.575928,699.677429 
	C547.041809,709.300110 535.407837,713.200806 521.236877,708.881470 
z"/>
<path fill="#060606" opacity="1.000000" stroke="none" 
	d="
M778.396729,707.433105 
	C759.398682,714.776733 741.209351,707.818298 734.887390,691.109863 
	C729.866882,677.841003 733.835205,663.743958 744.940002,655.399719 
	C756.601440,646.637207 773.731689,646.934998 785.857727,656.140259 
	C787.026733,657.027588 788.072510,658.077087 789.423401,659.270264 
	C786.496704,662.732910 783.740723,665.993652 780.726990,669.559204 
	C775.707642,664.730957 770.172913,660.721069 763.117615,662.232300 
	C759.465759,663.014404 755.575256,665.107788 752.945496,667.754333 
	C746.612732,674.127380 747.211914,685.708679 753.521545,692.224854 
	C760.392029,699.320251 769.959290,698.738281 780.533142,690.412781 
	C783.431946,693.245422 786.356262,696.103027 790.119751,699.780640 
	C785.975098,702.490540 782.346985,704.862732 778.396729,707.433105 
z"/>
<path fill="#82D9D9" opacity="1.000000" stroke="none" 
	d="
M451.704926,661.943420 
	C446.426788,661.964172 441.617950,661.964172 436.148560,661.964172 
	C436.148560,678.003540 436.148560,693.696899 436.148560,709.691895 
	C430.906219,709.691895 426.323883,709.691895 421.016418,709.691895 
	C421.016418,693.995605 421.016418,678.314880 421.016418,662.141479 
	C414.557922,662.141479 408.802948,662.141479 402.250488,662.141479 
	C402.250488,658.397583 402.028381,655.119385 402.382324,651.904602 
	C402.492218,650.906677 404.157074,649.302246 405.123352,649.292480 
	C421.222443,649.129639 437.323608,649.176331 454.971039,649.176331 
	C453.924133,653.947571 453.049194,657.935120 451.704926,661.943420 
z"/>
<path fill="#84DADA" opacity="1.000000" stroke="none" 
	d="
M383.992920,687.999939 
	C383.992889,695.441833 383.992889,702.383728 383.992889,709.664795 
	C378.642914,709.664795 373.765472,709.664795 368.573608,709.664795 
	C368.433014,708.277527 368.192841,707.000732 368.190979,705.723572 
	C368.165833,688.613098 368.297180,671.501160 368.087006,654.393250 
	C368.034576,650.123413 369.559479,648.796997 373.584961,649.120667 
	C376.841095,649.382385 380.135071,649.173706 383.992920,649.173706 
	C383.992920,662.353088 383.992920,674.926514 383.992920,687.999939 
z"/>
<path fill="#77A1A1" opacity="1.000000" stroke="none" 
	d="
M456.447571,451.925903 
	C457.385620,451.605438 458.795532,451.062622 460.206177,451.060730 
	C495.238525,451.013275 530.270935,451.020996 565.303345,451.039124 
	C565.923096,451.039459 566.542664,451.287354 567.078735,451.709534 
	C530.303284,451.984711 493.611511,451.970123 456.447571,451.925903 
z"/>
<path fill="#77A1A1" opacity="1.000000" stroke="none" 
	d="
M579.504028,386.045380 
	C578.733643,386.354401 577.498169,386.928619 576.261841,386.930267 
	C541.370178,386.977448 506.478485,386.968567 471.586792,386.953400 
	C470.935211,386.953125 470.283691,386.766205 469.315186,386.398865 
	C505.678284,386.102142 542.358337,386.072937 579.504028,386.045380 
z"/>
<path fill="#FFFFFF" opacity="1.000000" stroke="none" 
	d="
M585.772583,458.092834 
	C585.821655,458.244720 585.678162,458.564514 585.261963,458.980225 
	C585.186218,458.804352 585.383118,458.532562 585.772583,458.092834 
z"/>
<path fill="#FFFFFF" opacity="1.000000" stroke="none" 
	d="
M632.442932,218.720032 
	C632.747253,219.246506 632.732056,219.985535 632.716858,220.724548 
	C632.400085,220.483749 632.083252,220.242950 631.647461,219.709793 
	C631.726746,219.255814 631.925110,219.094193 632.442932,218.720032 
z"/>
<path fill="#FFFFFF" opacity="1.000000" stroke="none" 
	d="
M480.001221,249.001266 
	C480.113007,248.783508 480.223541,248.564499 480.334045,248.345490 
	C480.351898,248.527847 480.369751,248.710205 480.192993,248.945587 
	C479.998444,248.998611 480.000000,249.000000 480.001221,249.001266 
z"/>
<path fill="#FFFFFF" opacity="1.000000" stroke="none" 
	d="
M469.548615,222.405594 
	C469.587494,222.476105 469.509735,222.335083 469.548615,222.405594 
z"/>
<path fill="#FFFFFF" opacity="1.000000" stroke="none" 
	d="
M471.092499,220.102051 
	C470.980621,220.362030 470.797821,220.548569 470.614990,220.735077 
	C470.581024,220.518127 470.547058,220.301193 470.693420,219.986023 
	C470.873749,219.887787 471.021576,220.028595 471.092499,220.102051 
z"/>
<path fill="#FFFFFF" opacity="1.000000" stroke="none" 
	d="
M577.992920,166.986298 
	C577.877747,166.988327 577.776672,167.008484 577.857971,167.032516 
	C578.040283,167.036407 578.007080,167.004440 577.992920,166.986298 
z"/>
<path fill="#FFFFFF" opacity="1.000000" stroke="none" 
	d="
M524.072571,166.939331 
	C524.329407,167.051544 524.494263,167.252060 524.659058,167.452576 
	C524.446350,167.487015 524.233704,167.521439 523.911804,167.383179 
	C523.802612,167.210510 523.980530,167.027649 524.072571,166.939331 
z"/>
<path fill="#FFFFFF" opacity="1.000000" stroke="none" 
	d="
M310.037170,694.787109 
	C310.033386,691.505798 310.033386,688.693604 310.033386,685.470337 
	C315.796021,685.470337 321.397186,684.940369 326.795532,685.754761 
	C328.712677,686.044006 331.291870,689.528625 331.429901,691.691101 
	C331.545959,693.508301 328.800751,696.841919 326.894653,697.194885 
	C321.921387,698.115906 316.712860,697.848999 311.600067,697.810181 
	C311.073944,697.806152 310.560364,696.147156 310.037170,694.787109 
z"/>
<path fill="#FBFBFB" opacity="1.000000" stroke="none" 
	d="
M317.911621,661.105713 
	C320.194366,661.153259 322.074860,660.924500 323.821075,661.307800 
	C327.081757,662.023376 329.867798,663.661133 329.863129,667.489807 
	C329.858490,671.297241 327.125397,673.302429 323.844727,673.653809 
	C319.473022,674.122009 315.013428,673.769409 310.329102,673.769409 
	C310.329102,669.424805 310.329102,665.557556 310.329102,661.105591 
	C312.903900,661.105591 315.176331,661.105591 317.911621,661.105713 
z"/>
<path fill="#FBFBFB" opacity="1.000000" stroke="none" 
	d="
M596.189148,694.992798 
	C587.550171,687.651367 585.796326,677.060669 591.600891,669.046082 
	C596.919067,661.703125 606.866516,659.678589 614.186523,664.449524 
	C622.028198,669.560425 624.560730,680.890625 619.737244,689.282349 
	C614.882935,697.727661 605.691895,700.061890 596.189148,694.992798 
z"/>
<path fill="#FBFBFB" opacity="1.000000" stroke="none" 
	d="
M693.260864,685.564209 
	C688.019714,686.542603 682.638367,687.085571 676.329773,687.722107 
	C679.522644,679.626221 682.291504,672.605652 685.351807,664.845886 
	C688.158203,672.172729 690.639465,678.650757 693.260864,685.564209 
z"/>
<path fill="#FFFFFF" opacity="1.000000" stroke="none" 
	d="
M248.551453,687.040771 
	C243.976761,687.050964 239.849564,687.050964 234.734863,687.050964 
	C237.550812,679.807129 240.129089,673.174683 243.296249,665.027344 
	C246.169067,672.542603 248.575867,678.696594 250.784317,684.920959 
	C250.939392,685.358032 249.628296,686.315247 248.551453,687.040771 
z"/>
</svg>